<?xml version="1.0" encoding="UTF-8" standalone="no"?>
<svg xmlns="http://www.w3.org/2000/svg" xmlns:xlink="http://www.w3.org/1999/xlink" width="48" height="48" version="1.0">
  <defs>
    <linearGradient id="g">
      <stop offset="0" stop-color="#c17d11"/>
      <stop offset="1" stop-color="#e9b96e"/>
    </linearGradient>
    <linearGradient id="h">
      <stop offset="0" stop-color="#fff"/>
      <stop offset="1" stop-color="#fff" stop-opacity="0"/>
    </linearGradient>
    <linearGradient id="o">
      <stop offset="0"/>
      <stop offset="1" stop-opacity="0"/>
    </linearGradient>
    <linearGradient id="b">
      <stop offset="0" stop-color="#fff"/>
      <stop offset="1" stop-color="#fff" stop-opacity=".52091253"/>
    </linearGradient>
    <linearGradient id="m">
      <stop offset="0"/>
      <stop offset="1" stop-opacity="0"/>
    </linearGradient>
    <linearGradient id="e">
      <stop offset="0" stop-color="#eac586"/>
      <stop offset="1" stop-color="#eac586" stop-opacity="0"/>
    </linearGradient>
    <linearGradient id="k">
      <stop offset="0" stop-color="#8ae234"/>
      <stop offset="1" stop-color="#73d216"/>
    </linearGradient>
    <linearGradient id="l">
      <stop offset="0"/>
      <stop offset="1" stop-opacity="0"/>
    </linearGradient>
    <linearGradient id="j">
      <stop offset="0" stop-color="#729fcf"/>
      <stop offset="1" stop-color="#3465a4"/>
    </linearGradient>
    <linearGradient id="i">
      <stop offset="0" stop-color="#ef2929"/>
      <stop offset="1" stop-color="#c00"/>
    </linearGradient>
    <linearGradient id="f">
      <stop offset="0" stop-color="#eeeeec"/>
      <stop offset="1" stop-color="#888a85"/>
    </linearGradient>
    <linearGradient id="n">
      <stop offset="0" stop-color="#e7ce79"/>
      <stop offset="1" stop-color="#c17d11"/>
    </linearGradient>
    <linearGradient id="c">
      <stop offset="0" stop-color="#fff"/>
      <stop offset="1" stop-color="#fff" stop-opacity=".06844106"/>
    </linearGradient>
    <linearGradient id="d">
      <stop offset="0" stop-color="#555753"/>
      <stop offset="1" stop-color="#1f2324"/>
    </linearGradient>
    <linearGradient id="a">
      <stop offset="0" stop-color="#fff"/>
      <stop offset="1" stop-color="#fff" stop-opacity=".34600762"/>
    </linearGradient>
    <linearGradient xlink:href="#a" id="w" x1="21.424923" x2="16.6399" y1="14.769098" y2="5.5" gradientTransform="translate(1.0640333 .0246337)" gradientUnits="userSpaceOnUse"/>
    <linearGradient xlink:href="#b" id="t" x1="15.299923" x2="51.568203" y1="9.1440983" y2="83.076073" gradientTransform="translate(1.0640333 .0246337)" gradientUnits="userSpaceOnUse"/>
    <linearGradient xlink:href="#c" id="B" x1="9.3437004" x2="10.924745" y1="38.811657" y2="46.82093" gradientTransform="matrix(.64242 0 0 .71463 3.445805 6.787435)" gradientUnits="userSpaceOnUse"/>
    <linearGradient xlink:href="#d" id="A" x1="10.593056" x2="10.165062" y1="38.581955" y2="43.382187" gradientTransform="matrix(1 0 0 1.26753 -.999995 -14.85358)" gradientUnits="userSpaceOnUse"/>
    <linearGradient xlink:href="#c" id="C" x1="12.186543" x2="12.186543" y1="38.012455" y2="39.53223" gradientUnits="userSpaceOnUse"/>
    <linearGradient xlink:href="#e" id="E" x1="38.289421" x2="36.610626" y1="5.2539482" y2="7.3314619" gradientTransform="matrix(.8048 -.08406 -.25878 .8412 10.626724 5.876157)" gradientUnits="userSpaceOnUse"/>
    <linearGradient xlink:href="#f" id="x" x1="19.635454" x2="23.529133" y1="29.591417" y2="33.485096" gradientTransform="matrix(.8048 -.08406 -.25878 .8412 10.723364 3.5105159)" gradientUnits="userSpaceOnUse"/>
    <linearGradient xlink:href="#g" id="v" x1="33.175713" x2="31.180811" y1="18.657627" y2="17.17729" gradientTransform="matrix(.8048 -.08406 -.25878 .8412 10.723364 3.5105159)" gradientUnits="userSpaceOnUse"/>
    <linearGradient xlink:href="#h" id="y" x1="18.1875" x2="41.4375" y1="28.625" y2="6.1875" gradientTransform="translate(0 -1)" gradientUnits="userSpaceOnUse"/>
    <radialGradient xlink:href="#i" id="D" cx="32.450172" cy="33.609394" r="5.0383151" fx="32.450172" fy="33.609394" gradientTransform="matrix(.63694 .69684 .55326 -.51013 -5.0012019 25.28829)" gradientUnits="userSpaceOnUse"/>
    <radialGradient xlink:href="#j" id="F" cx="33.290813" cy="36.070057" r="5.0383151" fx="33.290813" fy="36.070057" gradientTransform="matrix(-.85708 .70369 -.63055 -.63055 89.175967 19.040701)" gradientUnits="userSpaceOnUse"/>
    <radialGradient xlink:href="#k" id="z" cx="23.537704" cy="36.025131" r="4.2448119" fx="23.537704" fy="36.025131" gradientTransform="matrix(.94093 0 0 1.04825 1.6820709 -3.1775018)" gradientUnits="userSpaceOnUse"/>
    <radialGradient xlink:href="#l" id="q" cx="6.5" cy="23.5" r="4.5" fx="6.5" fy="23.5" gradientUnits="userSpaceOnUse"/>
    <radialGradient xlink:href="#l" id="r" cx="6.5" cy="23.5" r="4.5" fx="6.5" fy="23.5" gradientUnits="userSpaceOnUse"/>
    <radialGradient xlink:href="#m" id="u" cx="28.469051" cy="23.21442" r="12.3671" fx="28.469051" fy="23.21442" gradientTransform="matrix(.16754 .13407 -.93936 1.1739 43.937672 -7.5867473)" gradientUnits="userSpaceOnUse"/>
    <radialGradient xlink:href="#n" id="s" cx="28.6576" cy="33.986694" r="18.572308" fx="28.6576" fy="33.986694" gradientTransform="matrix(6.04299 0 0 5.53708 -142.79439 -152.23844)" gradientUnits="userSpaceOnUse"/>
    <radialGradient xlink:href="#o" id="p" cx="10.5625" cy="46.0625" r="8.5625" fx="10.5625" fy="46.0625" gradientTransform="matrix(1 0 0 .53285 0 21.518248)" gradientUnits="userSpaceOnUse"/>
  </defs>
  <path fill="url(#p)" d="M19.125 46.0625a8.5625 4.5625 0 1 1-17.125 0 8.5625 4.5625 0 1 1 17.125 0z" opacity=".1" transform="matrix(1.10949 0 0 .54795 -1.7189781 16.635274)"/>
  <g fill-rule="evenodd" opacity=".30268196">
    <path fill="url(#q)" d="M2 23.5a4.5 4.5 0 0 1 9 0H6.5z" opacity="1" transform="matrix(0 -1.11132 7.2704 0 -139.82152042 48.1922917)"/>
    <path fill="url(#r)" d="M2 23.5a4.5 4.5 0 0 1 9 0H6.5z" opacity="1" transform="matrix(0 -1.11132 -3.7038 0 118.0720974 48.1922917)"/>
  </g>
  <path fill="url(#s)" fill-rule="evenodd" stroke="#c17d11" stroke-width=".99999988" d="M23.03125 4.5c-5.866769.0769393-13.726547 2.0845978-13.59375 8.53125.1416607 6.87692 8.495026 4.163435 8.8125 7.21875.513103 4.938007-10.1737302 19.961023 6.0625 22.90625C35.151762 45.122476 46.655802 38.37184 45.5 24.75 44.460562 12.499581 34.3249 4.8118411 24.1875 4.5c-.37036-.0113928-.765132-.0051293-1.15625 0zM20.5 8.5c2.76 0 5 1.568 5 3.5.000001 1.932-2.24 3.5-5 3.5s-5-1.568-5-3.5 2.24-3.5 5-3.5z"/>
  <path fill="none" stroke="url(#t)" d="M23.095283 5.5246337c-2.824283.0370388-6.123175.567596-8.59375 1.78125s-4.057917 2.9071623-4 5.7187503c.031184 1.51383.479666 2.328336 1.09375 2.90625.614084.577914 1.495673.923909 2.5 1.1875s2.091554.419269 3.0625.75c.485473.165365.96108.379912 1.375.75.41392.370088.717279.946859.78125 1.5625.170902 1.644729-.478927 3.503351-1.15625 5.65625s-1.44609 4.513614-1.71875 6.75c-.27266 2.236386-.041212 4.280029 1.0625 5.90625 1.103712 1.626221 3.170707 2.981535 7.0625 3.6875 5.158548.935753 10.448864-.207142 14.28125-3.15625 3.832386-2.949108 6.271634-7.64017 5.71875-14.15625-.99575-11.735534-10.694831-19.0469356-20.34375-19.3437503-.336993-.0103664-.732015-.0051538-1.125 0z" opacity=".67049806"/>
  <path fill="url(#u)" fill-rule="evenodd" d="M35.5 8.3125c-.082496.0220558-.157865.0651237-.21875.125-8.987327 7.021878-13.61717 12.354142-16.1875 15.78125-1.712114 2.113128-3.60376 5.271233-5.15625 8.21875a.49393126.49393126 0 0 0-.0625.15625c-.218608 1.997666-.076546 4.013442.78125 5.78125.058719.123476.165996.217088.296287.258544.130291.041456.271938.027048.391213-.039794 4.016305-2.311066 9.157901-7.187953 10.53125-8.78125 2.936442-3.355933 7.649032-9.291157 12.59375-18.6875.09108-.188426.053518-.413799-.09375-.5625-.778726-.7627697-1.618596-1.5120354-2.5-2.15625-.107073-.0808969-.242455-.1147423-.375-.09375z" opacity=".16475094" transform="translate(.4375 -.875)"/>
  <path fill="url(#v)" fill-rule="evenodd" stroke="#8f5902" stroke-linejoin="round" stroke-width=".99999994" d="M24.377603 26.216886C28.122394 22.659661 34.668929 15.824043 42.5 4.9999999c.315076-.3489489-.209392-.6489131-.5-.4999999-11.831703 8.286013-17.782134 14.476254-21.157327 18.01528"/>
  <path fill-rule="evenodd" stroke="#000" stroke-linejoin="round" d="M21.436423 21.92153c1.481476.593851 2.797936 1.536069 3.53493 3.701606-1.500396 1.439227-7.463448 6.424706-11.18179 8.495374l-1.092052-1.514265c2.112915-3.07026 5.97347-7.921974 8.738912-10.682715z" opacity=".15"/>
  <path fill="none" stroke="url(#w)" d="M20.564033 7.5246337c1.570976 0 3.022716.4159014 4.125 1.1875s1.875 1.9567533 1.875 3.3125003c.000001 1.355748-.772716 2.540901-1.875 3.3125-1.102284.771599-2.554024 1.1875-4.125 1.1875s-3.022716-.415901-4.125-1.1875c-1.102284-.771599-1.875-1.956753-1.875-3.3125s.772716-2.5409017 1.875-3.3125003c1.102284-.7715986 2.554024-1.1875 4.125-1.1875z" opacity=".7356322"/>
  <path fill="url(#x)" fill-rule="evenodd" stroke="#888a85" stroke-width=".99999994" d="M20.842673 22.51528c1.481476.593851 2.797936 1.536069 3.53493 3.701606-1.500396 1.439227-7.463448 6.424706-11.18179 8.495374l-1.092052-1.514265c2.112915-3.07026 5.97347-7.921974 8.738912-10.682715z"/>
  <g fill-rule="evenodd" stroke="#000" stroke-linejoin="round" stroke-miterlimit="5" opacity=".13026817">
    <path stroke-width=".99999982" d="M28.0453759 37.9219738c-.981039.592836.071526 1.273848.544949 1.67058.375468.314644-.188397 1.835332-.860815 1.163308-.77491-.774458-1.273839-1.851888-1.577772-1.879501-1.746924-.158722-.401869 2.147771-1.807633 1.640503-.841208-.30355.205427-1.577839-.917893-1.968926-.892406-.310696-.803744.644057-1.31976.178846-2.429276-2.190108-1.152388-4.092588-.028152-5.578351 1.124252-1.485787 3.345193-1.645116 4.992107-.327618 1.646912 1.317498 2.083698 3.602818.974969 5.101159z"/>
    <path d="M36.6955059 34.9090038c.894548 0 2.39583.150996 2.790916.615637.923827 1.086467 1.743502-.342638 1.040709-.959593-.809917-.710995-1.886381-1.120206-1.939258-1.422238-.303925-1.735995 2.024552-.582617 1.416042-1.947741-.364131-.81689-1.495114.338088-1.967688-.753954-.375429-.867558.547768-.858881.056864-1.33657-2.311049-2.248844-4.024394-.810592-5.351418.439837-1.327044 1.250445-1.286919 3.487787.119448 5.026412.577587.631904.861404 2.150838 1.598016 2.333503 1.056967.262105-.016214-1.995293 2.236369-1.995293zm1.546074-10.983047c-.880935 0-1.057367.607951-1.47249.999606-.329232.310617-1.71697-.304448-1.024872-.852636.797593-.631744.972799-1.378012 1.024872-1.64638.299301-1.542499-2.656061-.792599-2.048119-2.001071.442679-.879967 2.052495-.042131 2.048119-.497944-.006748-.702831-.4201-1.764624.460645-1.938266 1.853165-.365357 3.986414.912172 4.991236 1.93621.960731.979104.427845 2.691241-.140195 3.907468-.347066.743101-1.142342 2.255472-2.064528 2.073408-1.046421-.206591.443637-1.980395-1.774668-1.980395z"/>
  </g>
  <path fill="url(#y)" fill-rule="evenodd" d="M12.9375 33.4375C18.547566 24.933929 36.615367 9.233779 40.5 6.6249999 32.235232 15.427256 21.892146 25.266733 12.9375 33.4375z" opacity=".68000016"/>
  <path fill="url(#z)" fill-rule="evenodd" stroke="#4e9a06" stroke-linejoin="round" stroke-miterlimit="5" stroke-width=".99999982" d="M27.824405 37.496498c-.981039.592836.071526 1.273848.544949 1.67058.375468.314644-.188397 1.835332-.860815 1.163308-.77491-.774458-1.273839-1.851888-1.577772-1.879501-1.746924-.158722-.401869 2.147771-1.807633 1.640503-.841208-.30355.205427-1.577839-.917893-1.968926-.892406-.310696-.803744.644057-1.31976.178846-2.429276-2.190108-1.152388-4.092588-.028152-5.578351 1.124252-1.485787 3.345193-1.645116 4.992107-.327618 1.646912 1.317498 2.083698 3.602818.974969 5.101159z"/>
  <path fill="#eeeeec" fill-rule="evenodd" d="M25.71875 32.75c-1.333278-.778122-2.840055.047938-3.375.71875s-1.261138 1.982461-.6875 3.21875c.376806-1.189309.918476-1.979945 1.46875-2.59375.551092-.614718 1.193087-1.276611 2.59375-1.34375z" opacity=".77011497"/>
  <path fill="url(#A)" fill-rule="evenodd" stroke="#000" stroke-width=".99999988" d="M2.5 39.533975c4.693467.001813 4.221149-4.892079 6.5-6.392279 2.640769-1.738454 4.954982.415683 5.41701 2.188487C15 37.56712 14 40.025689 11 41.009116c-3.363648 1.102635-8.110527.475429-8.5-1.475141z"/>
  <path fill="none" stroke="url(#B)" stroke-linejoin="round" stroke-miterlimit="5" d="M4 40.11888c2.035358-.025633 3.435893-2.444925 3.966235-3.979048 1.599215-4.626059 6.414474-2.426936 5.533765.792882-1.048471 5.181517-6.455172 3.194333-9.5 3.186166z" opacity=".29118772"/>
  <path fill="url(#C)" fill-rule="evenodd" d="M13.324543 38.708176a1.138.91702908 0 1 1-2.276 0 1.138.91702908 0 1 1 2.276 0z" opacity=".5" transform="matrix(2.6362 0 0 2.18096 -21.126216 -49.420941)"/>
  <path fill="url(#D)" fill-rule="evenodd" stroke="#a40000" stroke-linejoin="round" stroke-miterlimit="5" d="M36.474535 34.483528c.894548 0 2.39583.150996 2.790916.615637.923827 1.086467 1.743502-.342638 1.040709-.959593-.809917-.710995-1.886381-1.120206-1.939258-1.422238-.303925-1.735995 2.024552-.582617 1.416042-1.947741-.364131-.81689-1.495114.338088-1.967688-.753954-.375429-.867558.547768-.858881.056864-1.33657-2.311049-2.248844-4.024394-.810592-5.351418.439837-1.327044 1.250445-1.286919 3.487787.119448 5.026412.577587.631904.861404 2.150838 1.598016 2.333503 1.056967.262105-.016214-1.995293 2.236369-1.995293z"/>
  <path fill="none" stroke="url(#E)" stroke-linecap="round" stroke-width=".99999994" d="M41.510654 5.5 38.5 8.5088128"/>
  <path fill="url(#F)" fill-rule="evenodd" stroke="#204a87" stroke-linejoin="round" stroke-miterlimit="5" d="M38.020609 23.500481c-.880935 0-1.057367.607951-1.47249.999606-.329232.310617-1.71697-.304448-1.024872-.852636.797593-.631744.972799-1.378012 1.024872-1.64638C36.84742 20.458572 33.892058 21.208472 34.5 20c.442679-.879967 2.052495-.042131 2.048119-.497944-.006748-.702831-.4201-1.764624.460645-1.938266C38.861929 17.198433 40.995178 18.475962 42 19.5c.960731.979104.427845 2.691241-.140195 3.907468-.347066.743101-1.142342 2.255472-2.064528 2.073408-1.046421-.206591.443637-1.980395-1.774668-1.980395z"/>
  <path fill="#eeeeec" fill-rule="evenodd" d="M38 18.5c-.855286.387353-1 1.5-.5 2.5.533147-1.446702 2-1 3.5-1-.5-1-2.403676-1.699471-3-1.5zm-1.231964 10.232129c-1.333278-.778122-2.840055.047938-3.375.71875s-1.261138 1.982461-.6875 3.21875c.376806-1.189309.918476-1.979945 1.46875-2.59375.551092-.614718 1.193087-1.276611 2.59375-1.34375z" opacity=".77011497"/>
</svg>