<?xml version="1.0" encoding="UTF-8" standalone="no"?><svg xmlns="http://www.w3.org/2000/svg" xmlns:xlink="http://www.w3.org/1999/xlink" version="1.1" width="127.5" height="127.5"><defs><linearGradient y2="104.337" x2="95.822502" y1="100.348" x1="93.163101" gradientUnits="userSpaceOnUse" id="O"><stop offset=".0112" stop-color="#009500"/><stop offset="1" stop-color="#005B00"/></linearGradient><linearGradient id="P"><stop offset="0" stop-color="#fff"/><stop offset=".51592094" stop-color="#04ca04"/><stop offset="1" stop-color="#007100"/></linearGradient><linearGradient id="N"><stop offset="0" stop-color="#fff"/><stop offset="1" stop-color="#fff" stop-opacity="0"/></linearGradient><linearGradient xlink:href="#a" id="R" gradientUnits="userSpaceOnUse" x1="57.165" y1="178.789" x2="57.165" y2="55.4198" gradientTransform="matrix(.88777 0 0 .8708 12.856 20.577)"/><linearGradient xlink:href="#b" id="S" gradientUnits="userSpaceOnUse" x1="57.165" y1="122.151" x2="57.165" y2="94.5931" gradientTransform="matrix(.88777 0 0 .8708 12.856 20.577)"/><linearGradient xlink:href="#c" id="T" gradientUnits="userSpaceOnUse" x1="57.1646" y1="162.114" x2="57.1645" y2="91.8496" gradientTransform="matrix(.88777 0 0 .8708 12.856 20.577)"/><linearGradient xlink:href="#d" id="U" gradientUnits="userSpaceOnUse" x1="52.5483" y1="104.32" x2="8.753" y2="104.32"/><linearGradient xlink:href="#e" id="V" gradientUnits="userSpaceOnUse" x1="78.5293" y1="115.325" x2="78.5293" y2="98.0781"/><linearGradient xlink:href="#f" id="W" gradientUnits="userSpaceOnUse" x1="71.7012" y1="115.325" x2="71.7012" y2="98.0781"/><linearGradient xlink:href="#g" id="X" gradientUnits="userSpaceOnUse" x1="64.8711" y1="115.325" x2="64.8711" y2="98.0781"/><linearGradient xlink:href="#h" id="Y" gradientUnits="userSpaceOnUse" x1="58.0444" y1="115.325" x2="58.0444" y2="98.0781"/><linearGradient xlink:href="#i" id="Z" gradientUnits="userSpaceOnUse" x1="51.2139" y1="115.325" x2="51.2139" y2="98.0781"/><linearGradient xlink:href="#j" id="aa" gradientUnits="userSpaceOnUse" x1="33.728" y1="106.732" x2="9.2356" y2="106.732"/><linearGradient xlink:href="#k" id="ab" gradientUnits="userSpaceOnUse" x1="48.7651" y1="115.318" x2="40.9049" y2="74.5693"/><linearGradient xlink:href="#l" id="ac" gradientUnits="userSpaceOnUse" x1="45.1807" y1="106.351" x2="45.1807" y2="91.2381"/><linearGradient xlink:href="#m" id="ad" gradientUnits="userSpaceOnUse" x1="97.5371" y1="109.754" x2="97.5371" y2="102.057"/><linearGradient xlink:href="#n" id="ae" gradientUnits="userSpaceOnUse" x1="97.5361" y1="113.801" x2="97.5361" y2="107.157"/><linearGradient xlink:href="#o" id="af" gradientUnits="userSpaceOnUse" x1="93.1631" y1="100.348" x2="95.8225" y2="104.337"/><linearGradient xlink:href="#p" id="ag" gradientUnits="userSpaceOnUse" x1="97.4375" y1="103.69" x2="97.4375" y2="107.485"/><linearGradient xlink:href="#q" id="ah" gradientUnits="userSpaceOnUse" x1="55.3882" y1="68" x2="56.2991" y2="39.3011"/><linearGradient xlink:href="#r" id="ai" gradientUnits="userSpaceOnUse" x1="55.77" y1="114.116" x2="55.77" y2="43.8208"/><linearGradient xlink:href="#s" id="aj" gradientUnits="userSpaceOnUse" x1="55.1758" y1="61.0811" x2="55.4198" y2="53.3916"/><linearGradient xlink:href="#t" id="ak" gradientUnits="userSpaceOnUse" x1="55.3711" y1="72.4316" x2="55.3711" y2="54.5005"/><linearGradient xlink:href="#u" id="al" gradientUnits="userSpaceOnUse" x1="41.1436" y1="25.6182" x2="41.3434" y2="19.3225"/><linearGradient xlink:href="#v" id="am" gradientUnits="userSpaceOnUse" x1="41.125" y1="33.374" x2="41.125" y2="20.2621"/><linearGradient xlink:href="#w" id="an" gradientUnits="userSpaceOnUse" x1="138.234" y1="-17.3511" x2="23.4438" y2="79.6744" gradientTransform="matrix(.88777 0 0 .8708 12.856 20.577)"/><linearGradient xlink:href="#x" id="ao" gradientUnits="userSpaceOnUse" x1="14.5322" y1="86.127" x2="14.4474" y2="81.2274"/><linearGradient xlink:href="#y" id="ap" gradientUnits="userSpaceOnUse" x1="14.3501" y1="78.4961" x2="14.3501" y2="81.6527"/><linearGradient xlink:href="#z" id="aq" gradientUnits="userSpaceOnUse" x1="14.4546" y1="84.9053" x2="14.4546" y2="83.7498"/><linearGradient xlink:href="#A" id="ar" gradientUnits="userSpaceOnUse" x1="14.3066" y1="83.2227" x2="14.3066" y2="82.6361"/><linearGradient xlink:href="#B" id="as" gradientUnits="userSpaceOnUse" x1="98.6172" y1="86.127" x2="98.5323" y2="81.2274"/><linearGradient xlink:href="#C" id="at" gradientUnits="userSpaceOnUse" x1="98.4365" y1="78.4961" x2="98.4365" y2="81.6527"/><linearGradient xlink:href="#D" id="au" gradientUnits="userSpaceOnUse" x1="98.54" y1="84.9053" x2="98.54" y2="83.7498"/><linearGradient xlink:href="#E" id="av" gradientUnits="userSpaceOnUse" x1="98.3926" y1="83.2227" x2="98.3926" y2="82.6361"/><linearGradient xlink:href="#F" id="aw" gradientUnits="userSpaceOnUse" x1="22.2334" y1="10.7407" x2="22.1615" y2="6.5903"/><linearGradient xlink:href="#G" id="ax" gradientUnits="userSpaceOnUse" x1="22.0815" y1="4.2778" x2="22.0815" y2="6.9491"/><linearGradient xlink:href="#H" id="ay" gradientUnits="userSpaceOnUse" x1="22.1675" y1="9.7031" x2="22.1675" y2="8.7248"/><linearGradient xlink:href="#I" id="az" gradientUnits="userSpaceOnUse" x1="22.0435" y1="8.2788" x2="22.0435" y2="7.7822"/><linearGradient xlink:href="#J" id="aA" gradientUnits="userSpaceOnUse" x1="92.2324" y1="10.7402" x2="92.1605" y2="6.5906"/><linearGradient xlink:href="#K" id="aB" gradientUnits="userSpaceOnUse" x1="92.082" y1="4.2778" x2="92.082" y2="6.9491"/><linearGradient xlink:href="#L" id="aC" gradientUnits="userSpaceOnUse" x1="92.168" y1="9.7031" x2="92.168" y2="8.7248"/><linearGradient xlink:href="#M" id="aD" gradientUnits="userSpaceOnUse" x1="92.0439" y1="8.2788" x2="92.0439" y2="7.7822"/><linearGradient id="a" gradientUnits="userSpaceOnUse" x1="57.165001" y1="178.789" x2="57.165001" y2="55.4198"><stop offset="0" stop-color="#FFF"/><stop offset=".764" stop-color="#C2CFDC"/><stop offset="1" stop-color="#B8C2D4"/></linearGradient><linearGradient id="b" gradientUnits="userSpaceOnUse" x1="57.165001" y1="122.151" x2="57.165001" y2="94.593102"><stop offset="0" stop-color="#FFF"/><stop offset=".1629" stop-color="#F0F0FF"/><stop offset="1" stop-color="#8D99A9"/></linearGradient><linearGradient id="c" gradientUnits="userSpaceOnUse" x1="57.1646" y1="162.114" x2="57.164501" y2="91.849602"><stop offset="0" stop-color="#9E9EAC"/><stop offset="1" stop-color="#42425B"/></linearGradient><linearGradient id="w" gradientUnits="userSpaceOnUse" x1="138.23399" y1="-17.351101" x2="23.4438" y2="79.6744"><stop offset="5.74713%" stop-color="#FFF"/><stop offset="100%" stop-opacity="0" stop-color="#FFF"/></linearGradient><filter id="Q"><feGaussianBlur stdDeviation="1.0168651"/></filter><linearGradient xlink:href="#N" id="aH" gradientUnits="userSpaceOnUse" x1="28.555803" y1="2.7713063" x2="28.4603" y2="51.096512"/><linearGradient xlink:href="#O" id="aG" gradientUnits="userSpaceOnUse" x1="102.9792" y1="-.03117471" x2="102.98156" y2="74.794037"/><radialGradient xlink:href="#P" id="aF" cx="25.312103" cy="35.579838" fx="25.312103" fy="35.579838" r="39.372208" gradientTransform="matrix(1.93995 .00007 -.00006 1.62656 -23.79 -22.212)" gradientUnits="userSpaceOnUse"/><filter id="aE"><feGaussianBlur stdDeviation=".29644388"/></filter></defs><path d="M113.26663 94.432057l-4.97594-66.193597c-.31871-3.922067-3.13027-6.661593-6.83848-6.661593H25.761076c-3.77923 0-6.59168 2.743009-6.83937 6.672914l-4.98571 66.193596-1.07952 14.320253 1.01472 8.05225c.67204 3.9778 3.41702 6.63634 6.83581 6.63634h85.801934c3.52177 0 6.26853-2.66377 6.83315-6.62676l1.01206-7.94166z" filter="url(#Q)"/><path d="M107.68334 27.285483c-.28498-3.501472-2.79115-6.113862-6.23303-6.113862H25.759186c-3.441878 0-6.009304 2.53663-6.233022 6.113862l-6.066121 80.522557 1.009393 7.93382c.561957 3.32209 2.792919 6.11387 6.234797 6.11387h85.801037c3.44187 0 5.75274-2.74911 6.23302-6.11387l1.01205-7.93382-6.067-80.522557z" fill="url(#R)"/><path d="M107.51555 98.718663H19.693953c-3.441878 0-6.233022 2.736047-6.233022 6.113857l1.009393 7.93557c.561957 3.32035 2.792919 6.11387 6.234797 6.11387h85.801029c3.44188 0 5.75274-2.75085 6.23303-6.11387l1.01205-7.93557c-.00089-3.37781-2.79381-6.113857-6.23568-6.113857z" fill="#fff"/><path d="M107.51555 101.09768H19.693953c-3.441878 0-6.233022 2.73952-6.233022 6.11386l1.009393 7.93557c.561957 3.32035 2.792919 6.11386 6.234797 6.11386h85.801029c3.44188 0 5.75274-2.74823 6.23303-6.11386l1.01205-7.93557c-.00089-3.37434-2.79381-6.11386-6.23568-6.11386z" fill="url(#S)"/><path d="M101.45209 21.766375H25.760961c-3.107189 0-5.421601 2.285841-5.628451 5.562648l-4.864082 64.442425c1.107047-.965713 2.564762-1.556113 4.162745-1.556113h88.347157c1.59709 0 3.05126.586917 4.15742 1.55263-1.76933-23.493219-4.85432-64.429363-4.85521-64.434588-.26633-3.276807-2.58074-5.567002-5.62845-5.567002z" fill="none"/><path d="M113.26651 93.431837l-4.97594-66.193597c-.31871-3.922067-3.13027-6.661593-6.83848-6.661593H25.760961c-3.779229 0-6.591679 2.743009-6.839367 6.672914l-4.985707 66.193596-1.079526 14.320253 1.014719 8.05225c.672041 3.9778 3.417021 6.63634 6.835816 6.63634h85.801924c3.52177 0 6.26853-2.66377 6.83315-6.62676l1.01206-7.94166-1.08752-14.451743zm-1.12658 22.237533c-.39772 2.77871-2.2931 5.59225-5.632 5.59225H20.706009c-3.458746 0-5.197884-3.02689-5.635554-5.61576l-1.006729-7.91032 1.203814-15.964312 4.86497-64.442425c.205962-3.276807 2.521262-5.562648 5.628451-5.562648h75.691129c3.0486 0 5.36212 2.289324 5.62845 5.567002.00089.0052 3.08588 40.94224 4.85521 64.434588.71199 9.451625 1.2118 16.084485 1.2118 16.084485l-1.00762 7.81714z" fill="url(#T)"/><g transform="matrix(.88777 0 0 .8708 12.856 20.577)"><linearGradient id="d" gradientUnits="userSpaceOnUse" x1="52.548302" y1="104.32" x2="8.7530003" y2="104.32"><stop offset="0" stop-color="#D1D1E6"/><stop offset=".0421" stop-color="#C9C9DE"/><stop offset=".1692" stop-color="#B5B5CA"/><stop offset=".2986" stop-color="#AAAABF"/><stop offset=".4326" stop-color="#A6A6BB"/><stop offset=".9944" stop-color="#666679"/></linearGradient><path d="M80.489 111.606H10.032L8.753 97.034h71.736v14.572z" fill="url(#U)"/><linearGradient id="e" gradientUnits="userSpaceOnUse" x1="78.529297" y1="115.325" x2="78.529297" y2="98.078102"><stop offset="1%" stop-opacity="0"/><stop offset="100%"/></linearGradient><path d="M80.358 98.326H76.7v12.045h3.658V98.326z" opacity=".7" fill="url(#V)"/><linearGradient id="f" gradientUnits="userSpaceOnUse" x1="71.701202" y1="115.325" x2="71.701202" y2="98.078102"><stop offset="0" stop-color="#FFF"/><stop offset="1"/></linearGradient><path d="M73.53 98.326h-3.659v12.045h3.659V98.326z" opacity=".7" fill="url(#W)"/><linearGradient id="g" gradientUnits="userSpaceOnUse" x1="64.871101" y1="115.325" x2="64.871101" y2="98.078102"><stop offset="0" stop-color="#FFF"/><stop offset="1"/></linearGradient><path d="M66.702 98.326h-3.661v12.045h3.661V98.326z" opacity=".7" fill="url(#X)"/><linearGradient id="h" gradientUnits="userSpaceOnUse" x1="58.044399" y1="115.325" x2="58.044399" y2="98.078102"><stop offset="0" stop-color="#FFF"/><stop offset="1"/></linearGradient><path d="M59.875 98.326h-3.663v12.045h3.663V98.326z" opacity=".7" fill="url(#Y)"/><linearGradient id="i" gradientUnits="userSpaceOnUse" x1="51.213902" y1="115.325" x2="51.213902" y2="98.078102"><stop offset="0%" stop-opacity="0"/><stop offset="100%"/></linearGradient><path d="M53.045 98.326h-3.663v12.045h3.663V98.326z" opacity=".7" fill="url(#Z)"/><linearGradient id="j" gradientUnits="userSpaceOnUse" x1="33.728001" y1="106.732" x2="9.2356005" y2="106.732"><stop offset="0" stop-color="#E3E3E3"/><stop offset=".123" stop-color="#CECECE"/><stop offset=".2768" stop-color="#BABABA"/><stop offset=".4334" stop-color="#AFAFAF"/><stop offset=".5955" stop-color="#ABABAB"/><stop offset="1" stop-color="#6E6E6E"/></linearGradient><path d="M20.364 107.323c8.808 3.979 28.99 4.283 28.99 4.283H10.032l-.796-9.749c-.001 0 1.187.976 11.128 5.466z" opacity=".8" fill="url(#aa)"/><path d="M81.663 111.608H10.005v-1.288h71.658v1.288z" fill="#fff"/><path d="M80.459 110.584V96.953h1.272v13.631h-1.272z" fill="#fff"/><linearGradient id="k" gradientUnits="userSpaceOnUse" x1="48.765099" y1="115.318" x2="40.9049" y2="74.569298"><stop offset="0" stop-color="#9E9EAC"/><stop offset="1" stop-color="#42425B"/></linearGradient><path d="M81.708 97.988H8.931v-1.066h72.777v1.066z" fill="url(#ab)"/><linearGradient id="l" gradientUnits="userSpaceOnUse" x1="45.180698" y1="106.351" x2="45.180698" y2="91.238098"><stop offset="0%" stop-opacity="0"/><stop offset="100%"/></linearGradient><path d="M8.637 96.857l.402 3.24c13.009 3.439 32.607 6.819 53.424 6.819 6.678 0 13.133-.228 19.261-.645v-9.415H8.637v.001z" opacity=".7" fill="url(#ac)"/></g><g transform="matrix(.88777 0 0 .8708 12.856 20.577)"><linearGradient id="m" gradientUnits="userSpaceOnUse" x1="97.537102" y1="109.754" x2="97.537102" y2="102.057"><stop offset="0%" stop-color="#FFF"/><stop offset="100%"/></linearGradient><path d="M102.079 106.908c0 2.511-2.033 4.539-4.541 4.539-2.51 0-4.542-2.028-4.542-4.539 0-2.508 2.032-4.543 4.542-4.543 2.508 0 4.541 2.035 4.541 4.543z" fill="url(#ad)"/><linearGradient id="n" gradientUnits="userSpaceOnUse" x1="97.536102" y1="113.801" x2="97.536102" y2="107.157"><stop offset=".4888" stop-color="#FFF"/><stop offset=".8202" stop-color="#00CD00"/><stop offset="1" stop-color="#00BD00"/></linearGradient><path d="M101.096 106.908c0 1.969-1.593 3.561-3.558 3.561-1.967 0-3.562-1.592-3.562-3.561 0-1.966 1.595-3.559 3.562-3.559 1.965.001 3.558 1.593 3.558 3.559z" fill="url(#ae)"/><linearGradient id="o" gradientUnits="userSpaceOnUse" x1="93.163101" y1="100.348" x2="95.822502" y2="104.337"><stop offset=".0112" stop-color="#009500"/><stop offset=".2978" stop-color="#009000"/><stop offset="1" stop-color="#005B00"/></linearGradient><path d="M93.808 106.908c0 2.058 1.674 3.729 3.73 3.729 2.055 0 3.729-1.671 3.729-3.729s-1.675-3.727-3.729-3.727c-2.057.001-3.73 1.67-3.73 3.727zm.338 0c0-1.87 1.522-3.389 3.392-3.389 1.87 0 3.389 1.519 3.389 3.389 0 1.871-1.52 3.389-3.389 3.389-1.869 0-3.392-1.518-3.392-3.389z" fill="url(#af)"/><linearGradient id="p" gradientUnits="userSpaceOnUse" x1="97.4375" y1="103.69" x2="97.4375" y2="107.485"><stop offset="0" stop-color="#FFF"/><stop offset=".1147" stop-color="#E9FAE9"/><stop offset=".3539" stop-color="#B0EDB0"/><stop offset=".6936" stop-color="#57D957"/><stop offset="1" stop-color="#00C500"/></linearGradient><path d="M97.551 107.045c1.24-.914 2.404-1.227 2.916-1.325-.49-1.109-1.601-1.881-2.891-1.881-1.749 0-3.167 1.416-3.167 3.165 0 .274.036.54.1.793.514.098 1.767.189 3.042-.752z" fill="url(#ag)"/></g><g transform="matrix(.88777 0 0 .8708 12.856 20.577)"><linearGradient id="q" gradientUnits="userSpaceOnUse" x1="55.388199" y1="68" x2="56.299099" y2="39.301102"><stop offset="0" stop-color="#FFF"/><stop offset=".1629" stop-color="#F0F0FF"/><stop offset="1" stop-color="#354C60"/></linearGradient><path d="M91.166 45.768c-.38-.563-.794-1.112-1.235-1.649l-1.656-31.49-2.656-2.654-15.233 22.657c-4.513-1.202-9.441-1.874-14.615-1.874-21.371 0-38.694 11.287-38.694 25.208 0 13.922 17.323 25.205 38.694 25.205 21.37 0 38.694-11.283 38.694-25.205 0-3.631-1.179-7.079-3.299-10.198z" fill="url(#ah)"/><linearGradient id="r" gradientUnits="userSpaceOnUse" x1="55.77" y1="114.116" x2="55.77" y2="43.820801"><stop offset="0" stop-color="#FFF"/><stop offset=".764" stop-color="#C2CFDC"/><stop offset="1" stop-color="#B8C2D4"/></linearGradient><path d="M88.522 45.753c-.352-.522-.733-1.028-1.144-1.529l-1.53-29.136-2.457-2.457-14.097 20.967c-4.174-1.109-8.736-1.734-13.523-1.734-19.776 0-35.806 10.443-35.806 23.326 0 12.881 16.03 23.324 35.806 23.324 19.775 0 35.805-10.443 35.805-23.324-.001-3.359-1.091-6.552-3.054-9.437z" fill="url(#ai)"/><linearGradient id="s" gradientUnits="userSpaceOnUse" x1="55.1758" y1="61.0811" x2="55.4198" y2="53.391602"><stop offset="0" stop-color="#FFF"/><stop offset=".1629" stop-color="#F0F0FF"/><stop offset="1" stop-color="#354C60"/></linearGradient><path d="M71.444 54.947c0 5.338-7.197 9.666-16.073 9.666-8.877 0-16.073-4.328-16.073-9.666 0-5.335 7.196-9.664 16.073-9.664 8.876 0 16.073 4.329 16.073 9.664z" fill="url(#aj)"/><linearGradient id="t" gradientUnits="userSpaceOnUse" x1="55.371101" y1="72.431602" x2="55.371101" y2="54.5005"><stop offset="0" stop-color="#FFF"/><stop offset=".764" stop-color="#C2CFDC"/><stop offset="1" stop-color="#B8C2D4"/></linearGradient><path d="M69.344 54.947c0 4.643-6.256 8.403-13.973 8.403-7.717 0-13.973-3.761-13.973-8.403 0-4.641 6.256-8.402 13.973-8.402 7.717 0 13.973 3.762 13.973 8.402z" fill="url(#ak)"/></g><g transform="matrix(.88777 0 0 .8708 12.856 20.577)"><linearGradient id="u" gradientUnits="userSpaceOnUse" x1="41.1436" y1="25.6182" x2="41.343399" y2="19.3225"><stop offset="0" stop-color="#FFF"/><stop offset=".1629" stop-color="#F0F0FF"/><stop offset="1" stop-color="#354C60"/></linearGradient><path d="M65.492 15.311c-.103-1.058-.861-1.92-1.92-1.92H19.77c-1.061 0-1.809.846-1.921 1.92l-1.14 11.217c.249.731.933 1.257 1.747 1.257h45.231c1.023 0 1.853-.83 1.853-1.852v-1.107l-.048-9.515z" fill="url(#al)"/><linearGradient id="v" gradientUnits="userSpaceOnUse" x1="41.125" y1="33.374001" x2="41.125" y2="20.2621"><stop offset="0" stop-color="#FFF"/><stop offset=".764" stop-color="#C2CFDC"/><stop offset="1" stop-color="#B8C2D4"/></linearGradient><path d="M63.923 16.083c-.097-.905-.805-1.639-1.796-1.639H21.146c-.994 0-1.694.721-1.798 1.639l-1.065 9.576c.232.623.873 1.074 1.634 1.074h42.318c.958 0 1.734-.71 1.734-1.583v-.945l-.046-8.122z" fill="url(#am)"/><path d="M61.194 16.5c-.085-.729-.708-1.321-1.58-1.321h-36.08c-.874 0-1.49.582-1.582 1.321l-.939 7.722c.206.501.77.864 1.439.864h37.255c.843 0 1.528-.571 1.528-1.276v-.76l-.041-6.55z" fill="#fff"/><path d="M61.194 16.288c-.085-.612-.708-1.109-1.58-1.109h-36.08c-.874 0-1.49.489-1.582 1.109l-.939 6.478c.206.422.77.726 1.439.726h37.255c.843 0 1.528-.479 1.528-1.07v-.639l-.041-5.495z"/></g><path d="M94.6216 22.054609H32.589675c-2.341932 0-3.915946 1.762492-4.240869 4.081423L21.19073 99.981318h84.82893l-7.158966-73.845286c-.432344-2.265813-1.897161-4.081423-4.239094-4.081423z" opacity=".85" fill="url(#an)"/><g transform="matrix(.88777 0 0 .8708 12.856 20.577)"><linearGradient id="x" gradientUnits="userSpaceOnUse" x1="14.5322" y1="86.126999" x2="14.4474" y2="81.227402"><stop offset="0" stop-color="#FFF"/><stop offset=".3483" stop-color="#F0F0FF"/><stop offset="1" stop-color="#8D99A9"/></linearGradient><path d="M18.229 81.667c0 1.632-1.689 2.954-3.774 2.954-2.083 0-3.774-1.322-3.774-2.954 0-1.631 1.691-2.955 3.774-2.955 2.085 0 3.774 1.324 3.774 2.955z" fill="url(#ao)"/><linearGradient id="y" gradientUnits="userSpaceOnUse" x1="14.3501" y1="78.496101" x2="14.3501" y2="81.652702"><stop offset="0" stop-color="#FFF"/><stop offset="1"/></linearGradient><path d="M14.47 81.644c1.314-.759 2.549-1.019 3.091-1.1-.521-.922-1.697-1.564-3.068-1.564-1.852 0-3.354 1.178-3.354 2.63 0 .226.039.448.106.657.546.08 1.873.157 3.225-.623z" fill="url(#ap)"/><linearGradient id="z" gradientUnits="userSpaceOnUse" x1="14.4546" y1="84.905296" x2="14.4546" y2="83.749802"><stop offset="0" stop-color="#9E9EAC"/><stop offset="1" stop-color="#42425B"/></linearGradient><path d="M10.501 81.667c0 1.707 1.773 3.097 3.953 3.097 2.18 0 3.953-1.39 3.953-3.097s-1.773-3.096-3.953-3.096c-2.18 0-3.953 1.389-3.953 3.096zm.359 0c0-1.552 1.612-2.814 3.595-2.814 1.982 0 3.594 1.263 3.594 2.814 0 1.551-1.612 2.813-3.594 2.813-1.983-.001-3.595-1.261-3.595-2.813z" fill="url(#aq)"/><path d="M11.307 83.327l6.437-2.896-.182-.247-6.438 2.894.183.249z" fill="#eee"/><linearGradient id="A" gradientUnits="userSpaceOnUse" x1="14.3066" y1="83.222702" x2="14.3066" y2="82.636101"><stop offset="0" stop-color="#9E9EAC"/><stop offset="1" stop-color="#42425B"/></linearGradient><path d="M11.18 83.15l6.435-2.896-.182-.248-6.434 2.895.181.249z" fill="url(#ar)"/></g><g transform="matrix(.88777 0 0 .8708 12.856 20.577)"><linearGradient id="B" gradientUnits="userSpaceOnUse" x1="98.617203" y1="86.126999" x2="98.532303" y2="81.227402"><stop offset="0" stop-color="#FFF"/><stop offset=".3483" stop-color="#F0F0FF"/><stop offset="1" stop-color="#8D99A9"/></linearGradient><path d="M102.313 81.667c0 1.632-1.689 2.954-3.772 2.954-2.085 0-3.774-1.322-3.774-2.954 0-1.631 1.689-2.955 3.774-2.955 2.083 0 3.772 1.324 3.772 2.955z" fill="url(#as)"/><linearGradient id="C" gradientUnits="userSpaceOnUse" x1="98.436501" y1="78.496101" x2="98.436501" y2="81.652702"><stop offset="0" stop-color="#FFF"/><stop offset="1"/></linearGradient><path d="M98.557 81.644c1.313-.759 2.549-1.019 3.091-1.1-.521-.922-1.698-1.564-3.067-1.564-1.853 0-3.354 1.178-3.354 2.63 0 .226.036.448.106.657.542.08 1.871.157 3.224-.623z" fill="url(#at)"/><linearGradient id="D" gradientUnits="userSpaceOnUse" x1="98.540001" y1="84.905296" x2="98.540001" y2="83.749802"><stop offset="0" stop-color="#9E9EAC"/><stop offset="1" stop-color="#42425B"/></linearGradient><path d="M94.587 81.667c0 1.707 1.772 3.097 3.954 3.097 2.18 0 3.952-1.39 3.952-3.097s-1.772-3.096-3.952-3.096c-2.182 0-3.954 1.389-3.954 3.096zm.359 0c0-1.552 1.611-2.814 3.595-2.814 1.98 0 3.594 1.263 3.594 2.814 0 1.551-1.613 2.813-3.594 2.813-1.983-.001-3.595-1.261-3.595-2.813z" fill="url(#au)"/><path d="M95.394 83.327l6.435-2.896-.181-.247-6.436 2.894.182.249z" fill="#eee"/><linearGradient id="E" gradientUnits="userSpaceOnUse" x1="98.392601" y1="83.222702" x2="98.392601" y2="82.636101"><stop offset="0" stop-color="#9E9EAC"/><stop offset="1" stop-color="#42425B"/></linearGradient><path d="M95.266 83.15l6.435-2.896-.181-.248-6.436 2.895.182.249z" fill="url(#av)"/></g><g transform="matrix(.88777 0 0 .8708 12.856 20.577)"><linearGradient id="F" gradientUnits="userSpaceOnUse" x1="22.2334" y1="10.7407" x2="22.161501" y2="6.5903001"><stop offset="0" stop-color="#FFF"/><stop offset=".3483" stop-color="#F0F0FF"/><stop offset="1" stop-color="#8D99A9"/></linearGradient><path d="M25.31 6.962c0 1.383-1.407 2.503-3.142 2.503-1.735 0-3.142-1.12-3.142-2.503s1.407-2.502 3.142-2.502c1.735 0 3.142 1.119 3.142 2.502z" fill="url(#aw)"/><linearGradient id="G" gradientUnits="userSpaceOnUse" x1="22.081499" y1="4.2778001" x2="22.081499" y2="6.9491"><stop offset="0" stop-color="#FFF"/><stop offset="1"/></linearGradient><path d="M22.181 6.939c1.093-.643 2.122-.86 2.574-.93-.436-.778-1.414-1.322-2.554-1.322-1.543 0-2.792.995-2.792 2.223 0 .195.03.382.087.559.455.069 1.56.134 2.685-.53z" fill="url(#ax)"/><linearGradient id="H" gradientUnits="userSpaceOnUse" x1="22.1675" y1="9.7031002" x2="22.1675" y2="8.7248001"><stop offset="0" stop-color="#9E9EAC"/><stop offset="1" stop-color="#42425B"/></linearGradient><path d="M18.876 6.962c0 1.446 1.478 2.621 3.292 2.621 1.814 0 3.291-1.175 3.291-2.621S23.983 4.34 22.168 4.34s-3.292 1.176-3.292 2.622zm.299 0c0-1.314 1.344-2.385 2.993-2.385 1.648 0 2.991 1.071 2.991 2.385 0 1.314-1.343 2.383-2.991 2.383-1.649 0-2.993-1.069-2.993-2.383z" fill="url(#ay)"/><path d="M19.548 8.366l5.358-2.452-.151-.211-5.359 2.453.152.21z" fill="#eee"/><linearGradient id="I" gradientUnits="userSpaceOnUse" x1="22.043501" y1="8.2788" x2="22.043501" y2="7.7821999"><stop offset="0" stop-color="#9E9EAC"/><stop offset="1" stop-color="#42425B"/></linearGradient><path d="M19.44 8.218l5.357-2.453-.151-.208-5.356 2.452.15.209z" fill="url(#az)"/></g><g transform="matrix(.88777 0 0 .8708 12.856 20.577)"><linearGradient id="J" gradientUnits="userSpaceOnUse" x1="92.232399" y1="10.7402" x2="92.1605" y2="6.5906"><stop offset="0" stop-color="#FFF"/><stop offset=".3483" stop-color="#F0F0FF"/><stop offset="1" stop-color="#8D99A9"/></linearGradient><path d="M95.31 6.962c0 1.383-1.407 2.503-3.141 2.503-1.737 0-3.145-1.12-3.145-2.503s1.407-2.502 3.145-2.502c1.733 0 3.141 1.119 3.141 2.502z" fill="url(#aA)"/><linearGradient id="K" gradientUnits="userSpaceOnUse" x1="92.082001" y1="4.2778001" x2="92.082001" y2="6.9491"><stop offset="0" stop-color="#FFF"/><stop offset="1"/></linearGradient><path d="M92.183 6.939c1.092-.643 2.119-.86 2.572-.93-.436-.778-1.414-1.322-2.556-1.322-1.541 0-2.79.995-2.79 2.223 0 .195.03.382.086.559.455.069 1.562.134 2.688-.53z" fill="url(#aB)"/><linearGradient id="L" gradientUnits="userSpaceOnUse" x1="92.167999" y1="9.7031002" x2="92.167999" y2="8.7248001"><stop offset="0" stop-color="#9E9EAC"/><stop offset="1" stop-color="#42425B"/></linearGradient><path d="M88.876 6.962c0 1.446 1.478 2.621 3.293 2.621 1.813 0 3.29-1.175 3.29-2.621s-1.477-2.622-3.29-2.622c-1.815 0-3.293 1.176-3.293 2.622zm.3 0c0-1.314 1.341-2.385 2.993-2.385 1.648 0 2.991 1.071 2.991 2.385 0 1.314-1.343 2.383-2.991 2.383-1.652 0-2.993-1.069-2.993-2.383z" fill="url(#aC)"/><path d="M89.548 8.366l5.356-2.452-.148-.211-5.36 2.453.152.21z" fill="#eee"/><linearGradient id="M" gradientUnits="userSpaceOnUse" x1="92.0439" y1="8.2788" x2="92.0439" y2="7.7821999"><stop offset="0" stop-color="#9E9EAC"/><stop offset="1" stop-color="#42425B"/></linearGradient><path d="M89.441 8.218l5.355-2.453-.149-.208-5.356 2.453.15.208z" fill="url(#aD)"/></g><path d="M47.125 35.273336c-2.879715.00016-5.249712 1.327783-5.25 2.940937l-.125 13.707016-11.531.07003c-2.164196-.000401-4.019648.699636-4.844 1.82058-.824351 1.120944-.380701 2.350003 1.156 3.203664L60.063 75.71153c2.044861 1.137014 5.377507 1.128811 7.406-.01737l33.25-18.695967c1.51922-.85762 1.95455-2.088392 1.125-3.203663-.82955-1.115273-2.687173-1.803616-4.844-1.803218l-11.812-.070023-.125-13.707016c-.000288-1.613154-2.370285-2.940777-5.25-2.940937z" style="text-indent:0;text-align:start;line-height:normal;text-transform:none;block-progression:tb;-inkscape-font-specification:Sans" opacity=".1" color="#000" filter="url(#aE)"/><path style="text-indent:0;text-align:start;line-height:normal;text-transform:none;block-progression:tb;-inkscape-font-specification:Sans" d="M47.125.562c-2.879715.00028793-5.249712 2.3702854-5.25 5.25l-.125 24.469-11.531.125c-2.164196-.000714-4.019648 1.248953-4.844 3.25-.824351 2.001046-.380701 4.195093 1.156 5.719L60.063 72.75c2.044861 2.029734 5.377507 2.015093 7.406-.031l33.25-33.375c1.51922-1.530976 1.95455-3.728083 1.125-5.719-.82955-1.990918-2.687173-3.219708-4.844-3.219l-11.812-.125-.125-24.469c-.000288-2.8797146-2.370285-5.24971207-5.25-5.25z" color="#000" fill="url(#aF)" stroke="url(#aG)" stroke-width="1.5" stroke-linecap="round" stroke-linejoin="round"/><path style="text-indent:0;text-align:start;line-height:normal;text-transform:none;block-progression:tb;-inkscape-font-specification:Sans" d="M47.125 2.8125h32.6875c1.363514.0001363 2.999864 1.636486 3 3v26.84375h13.512182c-8.400883 13.215869-55.569273 16.14993-67.74767.546706 0 0 1.100921-.546885 1.641738-.546706H44.125V5.8125c.000136-1.363514 1.636486-2.9998637 3-3z" color="#000" fill="url(#aH)"/></svg>