<?xml version="1.0" encoding="UTF-8" standalone="no"?>
<svg xmlns="http://www.w3.org/2000/svg" xmlns:xlink="http://www.w3.org/1999/xlink" width="48" height="48" version="1.0">
  <defs>
    <linearGradient id="a">
      <stop offset="0" stop-color="#cccdbc"/>
      <stop offset="1" stop-color="#b9baa4"/>
    </linearGradient>
    <linearGradient xlink:href="#a" id="g" x1="24.588383" x2="24.588383" y1="1.8991361" y2="40.858932" gradientTransform="matrix(1 0 0 .99143 0 .167036)" gradientUnits="userSpaceOnUse"/>
    <linearGradient id="d">
      <stop offset="0" stop-color="#fffff3" stop-opacity=".54455447"/>
      <stop offset="1" stop-color="#fffff3" stop-opacity="0"/>
    </linearGradient>
    <linearGradient id="c">
      <stop offset="0" stop-color="#cfcfc4"/>
      <stop offset=".32673267" stop-color="#cfcfc4"/>
      <stop offset="1" stop-color="#cfcfc4" stop-opacity="0"/>
    </linearGradient>
    <linearGradient id="b">
      <stop offset="0" stop-color="#676756"/>
      <stop offset="1" stop-color="#90937c"/>
    </linearGradient>
    <linearGradient xlink:href="#b" id="e" x1="24.866016" x2="24.866016" y1="31.315151" y2="14.650744" gradientTransform="scale(1.06831 .93606)" gradientUnits="userSpaceOnUse"/>
    <linearGradient xlink:href="#c" id="f" x1="32.827568" x2="60.071049" y1="7.9206076" y2="7.8678756" gradientTransform="scale(.75046 1.33252)" gradientUnits="userSpaceOnUse"/>
    <linearGradient xlink:href="#d" id="h" x1="18.513338" x2="22.805771" y1="15.211389" y2="25.895836" gradientTransform="matrix(.80686 0 0 1.0881 -.176777 4.910471)" gradientUnits="userSpaceOnUse"/>
  </defs>
  <g fill-rule="evenodd" transform="matrix(.21608 0 0 .22639 -1.393233 -2.889517)">
    <path d="M32.706693 164.36026c-10.3875 0-18.75 8.3625-18.75 18.75s8.3625 18.75 18.75 18.75H205.20669c10.3875 0 18.75-8.3625 18.75-18.75s-8.3625-18.75-18.75-18.75H32.706693z" opacity=".04787233"/>
    <path d="M32.706693 165.61026c-9.695 0-17.5 7.805-17.5 17.5s7.805 17.5 17.5 17.5H205.20669c9.695 0 17.5-7.805 17.5-17.5s-7.805-17.5-17.5-17.5H32.706693z" opacity=".04787233"/>
    <path d="M32.706694 166.86026c-9.0025 0-16.25 7.2475-16.25 16.25 0 9.0025 7.2475 16.25 16.25 16.25H205.20669c9.0025 0 16.25-7.2475 16.25-16.25 0-9.0025-7.2475-16.25-16.25-16.25H32.706694z" opacity=".04787233"/>
    <path d="M32.706694 168.11026c-8.31 0-15 6.69-15 15 0 8.31 6.69 15 15 15H205.20669c8.31 0 15-6.69 15-15 0-8.31-6.69-15-15-15H32.706694z" opacity=".04787233"/>
    <path d="M32.707764 169.36026c-7.6175 0-13.75 6.1325-13.75 13.75s6.1325 13.75 13.75 13.75H205.20618c7.6175 0 13.75-6.1325 13.75-13.75s-6.1325-13.75-13.75-13.75H32.707764z" opacity=".04787233"/>
    <path d="M32.706694 170.61026c-6.925 0-12.5 5.575-12.5 12.5s5.575 12.5 12.5 12.5H205.20669c6.925 0 12.5-5.575 12.5-12.5s-5.575-12.5-12.5-12.5H32.706694z" opacity=".04787233"/>
    <path d="M32.706694 171.86026c-6.2325 0-11.25 5.0175-11.25 11.25s5.0175 11.25 11.25 11.25H205.20669c6.2325 0 11.25-5.0175 11.25-11.25s-5.0175-11.25-11.25-11.25H32.706694z" opacity=".04787233"/>
    <path d="M32.706694 173.11026c-5.54 0-10 4.46-10 10s4.46 10 10 10H205.20669c5.54 0 10-4.46 10-10s-4.46-10-10-10H32.706694z" opacity=".04787233"/>
  </g>
  <path fill="url(#e)" fill-rule="evenodd" stroke="#555753" d="M5.4186638 5.45611c-.4649766 0-.8151104.2352268-.8151104.726723v33.020961c0 .727146.487105 1.21156 1.149057 1.21156H43.489564c.665802 0 .930308-.452766.930308-1.08656V10.425912c0-.5429651-.400287-.836558-.899058-.836558H24.41149c-.337013 0-.69668-.198426-.894481-.471287l-2.602231-3.200009c-.217865-.300539-.642075-.461933-1.013278-.461933L5.4186638 5.45611z"/>
  <path fill="url(#f)" fill-rule="evenodd" d="M5.0625 7.90625v28.25l.96875-4.375.21875-22.625c0-.7504226.5114657-1.125 1.2369586-1.125H19.09375c1.561596 0 3.014848 3.1875 5.317667 3.1875 5.971619 0 19.338396.087588 19.338583 0V10.1875l-19.53125-.125c-1.856135-.011879-3.130426-3.15625-4.5625-3.15625H6.2838336c-.8153288 0-1.2213336.3541661-1.2213336 1z" color="#000" overflow="visible" style="marker:none"/>
  <path fill="url(#g)" fill-rule="evenodd" stroke="#555753" stroke-linejoin="round" stroke-width=".99999988" d="M4.9959 22.514836h9.902203c.738822 0 1.3626-.32487 1.680544-.75244.136206-.183169 1.263005-1.50364 1.352345-1.614968.297614-.370864.769882-.647433 1.336714-.647433h25.70178c1.00281 0 1.50548.551272 1.443474 1.231431l-1.6875 18.510483c-.098431 1.079706-.706289 1.258089-1.505974 1.258089H5.443473c-.799684 0-1.3682643-.552195-1.443473-1.23143L2.375 24.59267c-.1535062-1.386364.948339-2.077834 2.6209-2.077834z" color="#000" overflow="visible" style="marker:none"/>
  <path fill="url(#h)" fill-rule="evenodd" d="M19.152268 20c-1.325565 0-1.589693 2.989175-4.109375 3.051675-1.249616.030996-9.8768397 0-10.3768397 0-1.4117221 0-1.75.523925-1.75 1.536389 0 .548708 1.5741432 14.246954 1.5741432 14.246954.0729167.823066.1145833 1.179727.96875 1.179727 0 0-1.5428932-14.87797-1.5428932-15.426681 0-.37413.2994678-.658453.75-.658453H15.042893c3.677614 0 3.453522-3.051675 4.625-3.051675 1.216667 0 25.127602.054871 25.127602.054871l.132582-.877936S20.435601 20 19.152268 20z" color="#000" overflow="visible" style="marker:none"/>
  <rect width="1.25" height="1.25" x="5.5290294" y="7.3598347" fill="#fffffd" fill-rule="evenodd" color="#000" overflow="visible" rx="1.4434735" ry="1.25" style="marker:none"/>
</svg>