<?xml version="1.0" encoding="UTF-8" standalone="no"?>
<svg version="1.1" viewBox="-103 -103 206 206"
 xmlns="http://www.w3.org/2000/svg"
 xmlns:xlink="http://www.w3.org/1999/xlink">
 <title>Blue round icon with i</title>
 <defs>
  <linearGradient id="lg"
  gradientUnits="objectBoundingBox">
   <stop stop-color="#000079" offset="0"/>
   <stop stop-color="#787fc3" offset=".68852"/>
   <stop stop-color="#d0e1ff" offset="1"/>
  </linearGradient>
  <linearGradient id="lgb"
  gradientUnits="objectBoundingBox">
   <stop stop-color="#37e" offset="0"/>
   <stop stop-color="#27c" offset=".2"/>
    <stop stop-color="#000079" offset="1"/>
  </linearGradient>
  <radialGradient id="rg"
   gradientUnits="objectBoundingBox">
   <stop stop-color="#3b3bde" offset="0"/>
   <stop stop-color="#3c59de" offset=".7541"/>
   <stop stop-color="#1d6fff" stop-opacity="0" offset="1"/>
  </radialGradient>
  <path id="qst"
    d="m 31.685892,70.931356 c 0,0 -62.599741,0 -62.599741,0 0,0 0,-3.088165 0,-3.088165 0,0 4.632252,-0.19301 4.632252,-0.19301 3.731537,-0.386018 5.983326,-1.286731 6.755368,-2.702147 0.772042,-1.415407 1.158063,-4.503572 1.158063,-9.264494 0,0 0.19301,-8.878493 0.19301,-8.878493 0,0 0,-46.12950705 0,-46.12950705 0,0 -0.19301,-7.91342705 -0.19301,-7.91342705 -0.257348,-3.0881639 -0.643369,-5.4042939 -1.158063,-6.9483769 -0.514695,-1.544081 -2.830821,-2.509137 -6.948378,-2.895155 0,0 -5.211284,-0.386024 -5.211284,-0.386024 0,0 0,-3.088165 0,-3.088165 0,0 50.633087,0 50.633087,0 0,0 0,67.360655 0,67.360655 0,0 0.193011,8.878493 0.193011,8.878493 0,4.632244 0.386017,7.72041 1.158059,9.200154 0.772039,1.479757 3.023831,2.380469 6.755367,2.766487 0,0 4.632255,0.19301 4.632255,0.19301 0,0 0,3.088165 4e-6,3.088165 z M -18.625514,-52.788368 c 0,-5.018276 1.865768,-9.264504 5.532967,-12.80303 3.6671998,-3.538526 8.0421043,-5.339957 13.2533877,-5.339957 5.2756202,0 9.7148618,1.737095 13.3820613,5.146947 3.731536,3.409852 5.532968,7.720416 5.532968,12.99604 0,5.146949 -1.801432,9.521848 -5.532968,13.060376 -3.6671995,3.538526 -8.1064411,5.275617 -13.3820613,5.275617 -5.2112834,0 -9.5861879,-1.737091 -13.2533877,-5.275617 -3.667199,-3.538528 -5.532967,-7.913427 -5.532967,-13.060376 0,0 0,0 0,0" />

 </defs>
 <g transform="rotate(240)">
  <circle r="100"
  fill="url(#lg)" stroke="url(#lgb)" stroke-width="3"/>
  <circle r="100"
  fill="url(#rg)"/>

 </g>
  <use  xlink:href="#qst" fill="#eaffff" stroke="none"/>
</svg>