<?xml version="1.0" encoding="UTF-8" standalone="no"?>
<!-- Created with Inkscape (http://www.inkscape.org/) -->

<svg
   xmlns:dc="http://purl.org/dc/elements/1.1/"
   xmlns:cc="http://creativecommons.org/ns#"
   xmlns:rdf="http://www.w3.org/1999/02/22-rdf-syntax-ns#"
   xmlns:svg="http://www.w3.org/2000/svg"
   xmlns="http://www.w3.org/2000/svg"
   xmlns:xlink="http://www.w3.org/1999/xlink"
   xmlns:sodipodi="http://sodipodi.sourceforge.net/DTD/sodipodi-0.dtd"
   xmlns:inkscape="http://www.inkscape.org/namespaces/inkscape"
   height="128"
   id="svg11300"
   inkscape:export-filename="/home/atm/BZR-WORK/breathe-icon-set/source_svg/rendered/applications-system.png"
   inkscape:export-xdpi="90.000000"
   inkscape:export-ydpi="90.000000"
   inkscape:output_extension="org.inkscape.output.svg.inkscape"
   inkscape:version="0.46+devel r22260"
   sodipodi:docname="applications-system.svg"
   sodipodi:version="0.32"
   style="display:inline;enable-background:new"
   version="1.0"
   width="128">
  <sodipodi:namedview
     bordercolor="#666666"
     borderopacity="0.25490196"
     fill="#f57900"
     gridtolerance="12"
     guidetolerance="13"
     height="300px"
     id="base"
     inkscape:current-layer="layer6"
     inkscape:cx="-27.33908"
     inkscape:cy="25.715729"
     inkscape:document-units="px"
     inkscape:grid-bbox="true"
     inkscape:guide-bbox="true"
     inkscape:pageopacity="0.0"
     inkscape:pageshadow="2"
     inkscape:showpageshadow="false"
     inkscape:snap-bbox="true"
     inkscape:snap-nodes="false"
     inkscape:window-height="968"
     inkscape:window-maximized="0"
     inkscape:window-width="1280"
     inkscape:window-x="301"
     inkscape:window-y="51"
     inkscape:zoom="1"
     objecttolerance="7"
     pagecolor="#ffffff"
     showgrid="false"
     showguides="true"
     stroke="#ef2929"
     width="400px">
    <inkscape:grid
       empspacing="5"
       enabled="true"
       id="grid5883"
       spacingx="1px"
       spacingy="1px"
       type="xygrid"
       visible="true" />
  </sodipodi:namedview>
  <title
     id="title4119">Breathe Icon Theme computer</title>
  <defs
     id="defs3">
    <linearGradient
       id="linearGradient5126"
       inkscape:collect="always">
      <stop
         id="stop5128"
         offset="0"
         style="stop-color:#afafaf;stop-opacity:1" />
      <stop
         id="stop5130"
         offset="1"
         style="stop-color:#ffffff;stop-opacity:1" />
    </linearGradient>
    <linearGradient
       id="linearGradient5108">
      <stop
         id="stop5110"
         offset="0"
         style="stop-color:#ffffff;stop-opacity:1" />
      <stop
         id="stop5112"
         offset="1"
         style="stop-color:#7d7d7d;stop-opacity:1" />
    </linearGradient>
    <linearGradient
       id="linearGradient3944">
      <stop
         id="stop3946"
         offset="0"
         style="stop-color:#aeaeae;stop-opacity:1;" />
      <stop
         id="stop3948"
         offset="0.20022914"
         style="stop-color:#dedede;stop-opacity:1" />
      <stop
         id="stop3950"
         offset="0.35514116"
         style="stop-color:#c4c4c4;stop-opacity:1" />
      <stop
         id="stop3952"
         offset="0.52539963"
         style="stop-color:#ececec;stop-opacity:1" />
      <stop
         id="stop3954"
         offset="0.73511833"
         style="stop-color:#cdcdcd;stop-opacity:1" />
      <stop
         id="stop3956"
         offset="0.875"
         style="stop-color:#d8d8d8;stop-opacity:1" />
      <stop
         id="stop3958"
         offset="1"
         style="stop-color:#bebebe;stop-opacity:1" />
    </linearGradient>
    <linearGradient
       id="linearGradient3813"
       inkscape:collect="always">
      <stop
         id="stop3815"
         offset="0"
         style="stop-color:#4a4a4a;stop-opacity:0.65531915" />
      <stop
         id="stop3817"
         offset="1"
         style="stop-color:#8c8c8c;stop-opacity:0.15744681" />
    </linearGradient>
    <filter
       color-interpolation-filters="sRGB"
       id="filter3934"
       inkscape:collect="always">
      <feGaussianBlur
         id="feGaussianBlur3936"
         inkscape:collect="always"
         stdDeviation="2.5090312" />
    </filter>
    <filter
       color-interpolation-filters="sRGB"
       id="filter5118"
       inkscape:collect="always">
      <feGaussianBlur
         id="feGaussianBlur5120"
         inkscape:collect="always"
         stdDeviation="2.8703125" />
    </filter>
    <filter
       color-interpolation-filters="sRGB"
       id="filter5206"
       inkscape:collect="always">
      <feGaussianBlur
         id="feGaussianBlur5208"
         inkscape:collect="always"
         stdDeviation="3.0111215" />
    </filter>
    <linearGradient
       gradientTransform="matrix(0.7532788,0,0,0.7532788,67.001376,67.998493)"
       gradientUnits="userSpaceOnUse"
       id="linearGradient9484"
       inkscape:collect="always"
       x1="-66.340759"
       x2="66.340759"
       xlink:href="#linearGradient3944"
       y1="-9.4879265"
       y2="11.213007" />
    <linearGradient
       gradientUnits="userSpaceOnUse"
       id="linearGradient9486"
       inkscape:collect="always"
       x1="38.38298"
       x2="38.38298"
       xlink:href="#linearGradient3813"
       y1="56.07769"
       y2="99.204636" />
    <linearGradient
       gradientUnits="userSpaceOnUse"
       id="linearGradient9488"
       inkscape:collect="always"
       x1="65.65625"
       x2="65.65625"
       xlink:href="#linearGradient5108"
       y1="114.17202"
       y2="19.580246" />
    <linearGradient
       gradientUnits="userSpaceOnUse"
       id="linearGradient9490"
       inkscape:collect="always"
       x1="77.628502"
       x2="77.628502"
       xlink:href="#linearGradient5126"
       y1="44.746105"
       y2="104.81113" />
  </defs>
  <metadata
     id="metadata4">
    <rdf:RDF>
      <cc:Work
         rdf:about="">
        <dc:format>image/svg+xml</dc:format>
        <dc:type
           rdf:resource="http://purl.org/dc/dcmitype/StillImage" />
        <dc:creator>
          <cc:Agent>
            <dc:title>Breathe Icon Team</dc:title>
          </cc:Agent>
        </dc:creator>
        <dc:source />
        <cc:license
           rdf:resource="http://creativecommons.org/licenses/by-sa/3.0/" />
        <dc:title>Breathe Icon Theme template</dc:title>
        <dc:subject>
          <rdf:Bag />
        </dc:subject>
        <dc:date />
        <dc:rights>
          <cc:Agent>
            <dc:title />
          </cc:Agent>
        </dc:rights>
        <dc:publisher>
          <cc:Agent>
            <dc:title />
          </cc:Agent>
        </dc:publisher>
        <dc:identifier />
        <dc:relation />
        <dc:language />
        <dc:coverage />
        <dc:description>applications-system</dc:description>
        <dc:contributor>
          <cc:Agent>
            <dc:title>Jakub Steiner, Cory Kontros, Breathe icon team</dc:title>
          </cc:Agent>
        </dc:contributor>
      </cc:Work>
      <cc:License
         rdf:about="http://creativecommons.org/licenses/by-sa/3.0/">
        <cc:permits
           rdf:resource="http://creativecommons.org/ns#Reproduction" />
        <cc:permits
           rdf:resource="http://creativecommons.org/ns#Distribution" />
        <cc:requires
           rdf:resource="http://creativecommons.org/ns#Notice" />
        <cc:requires
           rdf:resource="http://creativecommons.org/ns#Attribution" />
        <cc:prohibits
           rdf:resource="http://creativecommons.org/ns#CommercialUse" />
        <cc:permits
           rdf:resource="http://creativecommons.org/ns#DerivativeWorks" />
        <cc:requires
           rdf:resource="http://creativecommons.org/ns#ShareAlike" />
      </cc:License>
    </rdf:RDF>
  </metadata>
  <g
     id="layer1"
     inkscape:groupmode="layer"
     inkscape:label="categories/applications-system"
     style="display:inline"
     transform="translate(-3,-4)">
    <rect
       height="256"
       id="256x256"
       inkscape:label="256x256"
       style="fill:#eeeeec;fill-opacity:1;fill-rule:nonzero;stroke:none;stroke-width:5;marker:none;visibility:visible;display:none;overflow:visible;enable-background:accumulate"
       width="256"
       x="26.5"
       y="32.823101" />
    <rect
       height="48"
       id="48x48"
       inkscape:label="48x48"
       style="fill:#eeeeec;fill-opacity:1;fill-rule:nonzero;stroke:none;stroke-width:5;marker:none;visibility:visible;display:none;overflow:visible;enable-background:accumulate"
       width="48"
       x="-35.5"
       y="32.823101" />
    <text
       id="text6091"
       sodipodi:linespacing="125%"
       style="font-size:56.11526489px;font-style:normal;font-variant:normal;font-weight:bold;font-stretch:normal;text-indent:0;text-align:start;text-decoration:none;line-height:125%;letter-spacing:normal;word-spacing:normal;text-transform:none;direction:ltr;block-progression:tb;writing-mode:lr-tb;text-anchor:start;fill:#2e3436;fill-opacity:1;fill-rule:nonzero;stroke:none;stroke-width:5;marker:none;visibility:visible;display:none;overflow:visible;enable-background:accumulate;font-family:Myriad"
       x="-418.41196"
       xml:space="preserve"
       y="34.084831"><tspan
         id="tspan6093"
         sodipodi:role="line"
         x="-418.41196"
         y="34.084831">audio-x-generic</tspan></text>
    <g
       id="layer6"
       inkscape:groupmode="layer"
       inkscape:label="plate"
       style="display:none" />
    <g
       id="Livello_1"
       transform="translate(387.11439,42.495045)" />
    <g
       id="g3290"
       transform="translate(443.11439,59.884345)" />
    <g
       id="g7148"
       transform="matrix(0.1956571,0,0,0.1956571,345.26471,19.402885)" />
    <g
       id="g7555"
       transform="matrix(0.1333333,0,0,0.1333333,319.90372,105.99052)" />
    <g
       id="g9283"
       transform="matrix(1.0666666,0,0,1.0666666,384.44667,40.470571)" />
    <g
       id="g9476"
       transform="matrix(0.976039,0,0,0.976039,1.6053866,1.6293474)">
      <path
         d="m 111.26752,73.759735 c 0,18.578317 -15.060701,33.639015 -33.639018,33.639015 -18.578317,0 -33.639019,-15.060698 -33.639019,-33.639015 0,-18.578317 15.060702,-33.639019 33.639019,-33.639019 18.578317,0 33.639018,15.060702 33.639018,33.639019 z"
         id="path5124"
         sodipodi:cx="77.628502"
         sodipodi:cy="73.759735"
         sodipodi:rx="33.639019"
         sodipodi:ry="33.639019"
         sodipodi:type="arc"
         style="fill:none;stroke:#000000;stroke-width:8;stroke-linecap:round;stroke-linejoin:round;stroke-miterlimit:4;stroke-opacity:1;stroke-dasharray:none;stroke-dashoffset:0;marker:none;visibility:visible;display:inline;overflow:visible;filter:url(#filter5206);enable-background:accumulate"
         transform="translate(-10.628502,-5.7597351)" />
      <path
         d="m 15.75,9.78125 -2.71875,6.5 -0.78125,4.6875 0.15625,1.75 L 5.375,23.625 5.0625,21.90625 3.125,17.59375 -1.1875,12 l -4.40625,1.1875 -0.9375,7 0.46875,4.6875 0.59375,1.65625 L -12,29.25 -12.78125,27.65625 -15.78125,24 -21.375,19.71875 -25.3125,22 l 0.875,7 1.6875,4.4375 1,1.4375 -5.625,4.3125 -1.125,-1.34375 -3.84375,-2.78125 -6.53125,-2.65625 -3.21875,3.21875 2.6875,6.53125 2.75,3.84375 1.34375,1.125 -4.3125,5.625 -1.4375,-1 -4.4375,-1.6875 -7,-0.875 -2.28125,3.9375 4.28125,5.59375 3.65625,3 1.59375,0.75 -2.6875,6.5625 -1.65625,-0.59375 -4.71875,-0.46875 -7,0.9375 -1.15625,4.40625 5.5625,4.3125 4.3125,1.9375 1.71875,0.3125 -0.90625,7.03125 -1.75,-0.15625 -4.6875,0.78125 -6.5,2.71875 0,4.53125 6.5,2.71875 4.6875,0.78125 1.75,-0.15625 0.90625,7.03125 -1.71875,0.3125 -4.3125,1.9375 -5.5625,4.3125 1.15625,4.40625 7,0.9375 4.71875,-0.46875 1.65625,-0.59375 2.6875,6.53125 -1.59375,0.78125 -3.65625,3 -4.28125,5.59375 2.28125,3.9375 7,-0.875 4.4375,-1.6875 1.4375,-1 4.3125,5.625 -1.34375,1.125 -2.75,3.84375 -2.6875,6.53125 3.21875,3.21875 6.53125,-2.6875 3.84375,-2.75 1.125,-1.34375 5.625,4.3125 -1,1.4375 -1.6875,4.4375 -0.875,7 3.9375,2.28125 5.59375,-4.28125 3,-3.65625 0.78125,-1.59375 6.53125,2.6875 -0.59375,1.65625 -0.46875,4.71875 0.9375,7 4.40625,1.15625 4.3125,-5.5625 1.9375,-4.3125 0.3125,-1.71875 7.03125,0.90625 -0.15625,1.75 0.78125,4.6875 2.71875,6.5 4.53125,0 2.71875,-6.5 0.78125,-4.6875 -0.15625,-1.75 7.03125,-0.90625 0.3125,1.71875 1.9375,4.3125 4.3125,5.5625 4.40625,-1.15625 0.9375,-7 -0.46875,-4.71875 -0.59375,-1.65625 6.5625,-2.6875 0.75,1.59375 3,3.65625 5.59375,4.28125 3.9375,-2.28125 -0.875,-7 -1.6875,-4.4375 -1,-1.4375 5.625,-4.3125 1.125,1.34375 3.84375,2.75 6.53125,2.6875 3.21875,-3.21875 -2.65625,-6.53125 -2.78125,-3.84375 -1.34375,-1.125 4.3125,-5.625 1.4375,1 4.4375,1.6875 7,0.875 2.28125,-3.9375 -4.28125,-5.59375 -3.65625,-3 -1.59375,-0.78125 L 84,116 l 1.65625,0.59375 4.6875,0.46875 7,-0.9375 1.1875,-4.40625 -5.59375,-4.3125 -4.3125,-1.9375 -1.71875,-0.3125 0.90625,-7.03125 1.75,0.15625 L 94.25,97.5 l 6.5,-2.71875 0,-4.53125 -6.5,-2.71875 -4.6875,-0.78125 -1.75,0.15625 -0.90625,-7.03125 1.71875,-0.3125 4.3125,-1.9375 5.59375,-4.3125 -1.1875,-4.40625 -7,-0.9375 -4.6875,0.46875 L 84,69.03125 l -2.71875,-6.5625 1.59375,-0.75 3.65625,-3 4.28125,-5.59375 -2.28125,-3.9375 -7,0.875 -4.4375,1.6875 -1.4375,1 -4.3125,-5.625 L 72.6875,46 75.46875,42.15625 78.125,35.625 74.90625,32.40625 68.375,35.0625 l -3.84375,2.78125 -1.125,1.34375 -5.625,-4.3125 1,-1.4375 1.6875,-4.4375 0.875,-7 -3.9375,-2.28125 L 51.8125,24 l -3,3.65625 L 48.0625,29.25 41.5,26.53125 42.09375,24.875 42.5625,20.1875 41.625,13.1875 37.21875,12 l -4.3125,5.59375 -1.9375,4.3125 -0.3125,1.71875 -7.03125,-0.90625 0.15625,-1.75 L 23,16.28125 l -2.71875,-6.5 -4.53125,0 z m 2.28125,33.125 C 45.408236,42.906251 67.625,65.123014 67.625,92.5 c 0,27.37698 -22.216764,49.625 -49.59375,49.625 -27.3769859,0 -49.625,-22.24801 -49.625,-49.625 0,-27.376989 22.2480139,-49.59375 49.625,-49.59375 z"
         id="path2795"
         style="fill:none;stroke:#000000;stroke-width:3.1860714;stroke-miterlimit:4;stroke-opacity:1;stroke-dasharray:none;filter:url(#filter3934)"
         transform="matrix(0.7532788,0,0,0.7532788,53.429212,-1.6900584)" />
      <path
         d="m 65.293352,5.6779501 -2.047976,4.8963119 -0.588499,3.530995 0.1177,1.318237 -5.296492,0.682659 -0.2354,-1.294698 -1.459477,-3.248514 -3.248516,-4.213654 -3.319134,0.8945193 -0.706198,5.2729517 0.353099,3.530994 0.447259,1.247618 -4.919852,2.047976 -0.588499,-1.200538 -2.259836,-2.754176 -4.213654,-3.224973 -2.966035,1.718416 0.659119,5.272951 1.271158,3.342675 0.753279,1.082838 -4.237194,3.248515 -0.847438,-1.012218 -2.895415,-2.095057 -4.919852,-2.000896 -2.424617,2.424616 2.024438,4.919852 2.071516,2.895415 1.012218,0.847438 -3.248514,4.237194 -1.082839,-0.753279 -3.342675,-1.271158 -5.272951,-0.659119 -1.718416,2.966036 3.224974,4.213653 2.754175,2.259836 1.200538,0.564959 -2.024436,4.943392 -1.247618,-0.447259 -3.554534,-0.353099 -5.2729514,0.706198 -0.870979,3.319135 4.1901134,3.248511 3.248515,1.459483 1.294697,0.235394 -0.682659,5.296499 -1.318238,-0.117702 -3.5309938,0.588499 -4.8963118,2.047972 0,3.413301 4.8963118,2.047972 3.5309938,0.588499 1.318238,-0.117702 0.682659,5.296499 -1.294697,0.235393 -3.248515,1.459484 -4.1901134,3.248506 0.870979,3.319136 5.2729514,0.7062 3.554534,-0.353095 1.247618,-0.447261 2.024436,4.919848 -1.200538,0.588498 -2.754175,2.25984 -3.224974,4.213656 1.718416,2.966027 5.272951,-0.659119 3.342675,-1.271148 1.082839,-0.753283 3.248514,4.23719 -1.012218,0.84744 -2.071516,2.89542 -2.024438,4.91984 2.424617,2.42462 4.919852,-2.02444 2.895415,-2.07152 0.847438,-1.01221 4.237194,3.24852 -0.753279,1.08283 -1.271158,3.34268 -0.659119,5.27295 2.966035,1.71842 4.213654,-3.22498 2.259836,-2.75418 0.588499,-1.20053 4.919852,2.02444 -0.447259,1.24761 -0.353099,3.55454 0.706198,5.27294 3.319134,0.87099 3.248516,-4.19012 1.459477,-3.24851 0.2354,-1.2947 5.296492,0.68266 -0.1177,1.31823 0.588499,3.531 2.047976,4.89632 3.413295,0 2.047976,-4.89632 0.5885,-3.531 -0.1177,-1.31823 5.296491,-0.68266 0.235399,1.2947 1.459478,3.24851 3.248515,4.19012 3.319135,-0.87099 0.706198,-5.27294 -0.353099,-3.55454 -0.447259,-1.24761 4.943392,-2.02444 0.564959,1.20053 2.259836,2.75418 4.213653,3.22498 2.966035,-1.71842 -0.659118,-5.27295 -1.271158,-3.34268 -0.75328,-1.08283 4.2372,-3.24852 0.84744,1.01221 2.89541,2.07152 4.91985,2.02444 2.42462,-2.42462 -2.0009,-4.91984 -2.09506,-2.89542 -1.01221,-0.84744 3.24851,-4.23719 1.08284,0.753283 3.34267,1.271148 5.27295,0.659119 1.71843,-2.966027 -3.22498,-4.213656 -2.75418,-2.25984 -1.20054,-0.588498 2.04798,-4.919848 1.24762,0.447261 3.53099,0.353095 5.27295,-0.7062 0.89452,-3.319136 -4.21365,-3.248506 -3.24852,-1.459484 -1.2947,-0.235393 0.68267,-5.296499 1.31823,0.117702 3.53099,-0.588499 4.89631,-2.047972 0,-3.413301 -4.89631,-2.047972 -3.53099,-0.588499 -1.31823,0.117702 -0.68267,-5.296499 1.2947,-0.235394 3.24852,-1.459483 4.21365,-3.248511 -0.89452,-3.319135 -5.27295,-0.706198 -3.53099,0.353099 -1.24762,0.447259 -2.04798,-4.943392 1.20054,-0.564959 2.75418,-2.259836 3.22498,-4.213653 -1.71843,-2.966036 -5.27295,0.659119 -3.34267,1.271158 -1.08284,0.753279 -3.24851,-4.237194 1.01221,-0.847438 2.09506,-2.895415 2.0009,-4.919852 -2.42462,-2.424616 -4.91985,2.000896 -2.89541,2.095057 -0.84744,1.012218 -4.2372,-3.248515 0.75328,-1.082838 1.271158,-3.342675 0.659118,-5.272951 -2.966035,-1.718416 -4.213653,3.224973 -2.259836,2.754176 -0.564959,1.200538 -4.943392,-2.047976 0.447259,-1.247618 0.353099,-3.530994 -0.706198,-5.2729517 -3.319135,-0.8945193 -3.248515,4.213654 -1.459478,3.248514 -0.235399,1.294698 -5.296491,-0.682659 0.1177,-1.318237 -0.5885,-3.530995 -2.047976,-4.8963119 -3.413295,0 z M 67.01177,30.63031 c 20.622502,10e-7 37.35792,16.735417 37.35792,37.357916 0,20.622499 -16.735418,37.381454 -37.35792,37.381454 -20.622503,0 -37.38146,-16.758945 -37.38146,-37.381454 0,-20.622501 16.758957,-37.357916 37.38146,-37.357916 z"
         id="path2901"
         style="fill:url(#linearGradient9484);fill-opacity:1;stroke:none" />
      <path
         d="m 87.97897,99.204636 c 0,27.391104 -22.204881,49.595984 -49.59599,49.595984 -27.391108,0 -49.595989,-22.20488 -49.595989,-49.595984 0,-27.391109 22.204881,-49.59599 49.595989,-49.59599 27.391109,0 49.59599,22.204881 49.59599,49.59599 z"
         id="path3811"
         sodipodi:cx="38.38298"
         sodipodi:cy="99.204636"
         sodipodi:rx="49.595989"
         sodipodi:ry="49.595989"
         sodipodi:type="arc"
         style="fill:none;stroke:url(#linearGradient9486);stroke-width:5;stroke-linecap:round;stroke-linejoin:round;stroke-miterlimit:4;stroke-opacity:1;stroke-dasharray:none;stroke-dashoffset:0;marker:none;visibility:visible;display:inline;overflow:visible;enable-background:accumulate"
         transform="matrix(0.7532788,0,0,0.7532788,38.088291,-6.7302493)" />
      <path
         d="m 65.65625,10.75 -0.0625,0.15625 -0.4375,2.53125 0.09375,0.96875 a 3.8792834,3.8792834 0 0 1 -3.375,4.1875 l -5.375,0.6875 a 3.8792834,3.8792834 0 0 1 -4.3125,-3.125 l -0.15625,-0.875 -1.125,-2.46875 -0.09375,-0.125 -0.03125,0.15625 0.28125,2.75 0.25,0.6875 a 3.8792834,3.8792834 0 0 1 -2.125,4.9375 l -5,2.09375 a 3.8792834,3.8792834 0 0 1 -5,-1.875 l -0.375,-0.78125 -1.75,-2.125 -0.125,-0.09375 0.03125,0.1875 0.96875,2.53125 0.5,0.75 a 3.8792834,3.8792834 0 0 1 -0.84375,5.25 L 33.3125,30.4375 a 3.8792834,3.8792834 0 0 1 -5.34375,-0.59375 l -0.53125,-0.625 -2.25,-1.625 -0.125,-0.0625 0.09375,0.21875 1.53125,2.15625 0.65625,0.5625 a 3.8792834,3.8792834 0 0 1 0.59375,5.34375 l -3.28125,4.28125 a 3.8792834,3.8792834 0 0 1 -5.25,0.84375 l -0.75,-0.5 -2.53125,-0.96875 -0.1875,-0.03125 0.1875,0.25 1.90625,1.53125 0.84375,0.40625 a 3.8792834,3.8792834 0 0 1 1.96875,5 l -2.0625,5.03125 a 3.8792834,3.8792834 0 0 1 -4.875,2.1875 l -0.84375,-0.3125 -2.625,-0.25 -0.28125,0.03125 0.21875,0.15625 2.34375,1.03125 0.9375,0.1875 A 3.8792834,3.8792834 0 0 1 16.78125,59 l -0.6875,5.375 a 3.8792834,3.8792834 0 0 1 -4.1875,3.375 L 10.9375,67.65625 8.40625,68.09375 8.25,68.15625 8.5,68.25 l 2.4375,0.40625 0.96875,-0.09375 a 3.8792834,3.8792834 0 0 1 4.1875,3.375 l 0.6875,5.40625 a 3.8792834,3.8792834 0 0 1 -3.21875,4.3125 l -0.75,0.125 -2.5,1.125 L 10.1875,83 10.34375,83.03125 13.125,82.75 13.8125,82.5 a 3.8792834,3.8792834 0 0 1 4.96875,2.15625 l 2.0625,5 A 3.8792834,3.8792834 0 0 1 18.9375,94.625 L 18.15625,95 l -2.0625,1.71875 -0.15625,0.1875 0.125,-0.03125 2.625,-1.03125 0.71875,-0.46875 a 3.8792834,3.8792834 0 0 1 5.25,0.875 l 3.28125,4.3125 a 3.8792834,3.8792834 0 0 1 -0.625,5.34375 l -0.65625,0.53125 -1.5,2.125 -0.09375,0.1875 0.1875,-0.0937 2.15625,-1.53125 0.5625,-0.65625 a 3.8792834,3.8792834 0 0 1 5.34375,-0.5625 l 4.28125,3.3125 a 3.8792834,3.8792834 0 0 1 0.8125,5.25 l -0.46875,0.6875 -0.96875,2.53125 -0.03125,0.1875 0.09375,-0.0625 1.78125,-2.15625 0.375,-0.78125 a 3.8792834,3.8792834 0 0 1 4.96875,-1.90625 l 5,2.0625 a 3.8792834,3.8792834 0 0 1 2.1875,4.9375 l -0.3125,0.8125 -0.25,2.71875 0.03125,0.125 0.09375,-0.125 1.125,-2.46875 0.15625,-0.875 a 3.8792834,3.8792834 0 0 1 4.3125,-3.125 l 5.375,0.6875 a 3.8792834,3.8792834 0 0 1 3.375,4.1875 l -0.09375,0.96875 0.4375,2.53125 0.0625,0.15625 0.09375,-0.25 0.40625,-2.4375 -0.09375,-0.96875 a 3.8792834,3.8792834 0 0 1 3.375,-4.1875 l 5.40625,-0.6875 a 3.8792834,3.8792834 0 0 1 4.3125,3.21875 l 0.125,0.75 1.125,2.5 0.09375,0.125 0.03125,-0.125 -0.25,-2.71875 -0.3125,-0.8125 a 3.8792834,3.8792834 0 0 1 2.1875,-4.9375 l 5.03125,-2.0625 a 3.8792834,3.8792834 0 0 1 5,1.96875 l 0.34375,0.78125 1.6875,2 0.1875,0.15625 -0.03125,-0.125 -1.03125,-2.625 -0.4375,-0.65625 a 3.8792834,3.8792834 0 0 1 0.8125,-5.25 l 4.3125,-3.3125 a 3.8792834,3.8792834 0 0 1 5.375,0.59375 l 0.53125,0.65625 2.125,1.5 0.21875,0.0937 -0.0625,-0.125 -1.59375,-2.21875 -0.625,-0.5 a 3.8792834,3.8792834 0 0 1 -0.59375,-5.375 l 3.3125,-4.3125 a 3.8792834,3.8792834 0 0 1 5.25,-0.8125 l 0.65625,0.4375 2.625,1.03125 0.125,0.03125 -0.15625,-0.1875 L 113.15625,95 112.375,94.625 a 3.8792834,3.8792834 0 0 1 -1.875,-5 l 2.09375,-5 a 3.8792834,3.8792834 0 0 1 4.9375,-2.125 l 0.6875,0.25 L 121,83.03125 121.09375,83 120.90625,82.875 118.5,81.78125 l -0.75,-0.125 a 3.8792834,3.8792834 0 0 1 -3.21875,-4.3125 l 0.6875,-5.40625 a 3.8792834,3.8792834 0 0 1 4.1875,-3.375 l 0.96875,0.09375 2.4375,-0.40625 0.25,-0.09375 -0.15625,-0.0625 -2.53125,-0.4375 -0.96875,0.09375 a 3.8792834,3.8792834 0 0 1 -4.1875,-3.375 L 114.53125,59 a 3.8792834,3.8792834 0 0 1 3.125,-4.3125 l 0.9375,-0.1875 2.375,-1.03125 0.1875,-0.15625 -0.25,-0.03125 -2.625,0.25 -0.84375,0.3125 a 3.8792834,3.8792834 0 0 1 -4.875,-2.15625 l -2.09375,-5.03125 A 3.8792834,3.8792834 0 0 1 112.4375,41.625 l 0.84375,-0.40625 1.90625,-1.53125 0.1875,-0.25 -0.1875,0.03125 -2.53125,0.96875 -0.6875,0.46875 a 3.8792834,3.8792834 0 0 1 -5.25,-0.8125 l -3.3125,-4.28125 a 3.8792834,3.8792834 0 0 1 0.5625,-5.34375 l 0.625,-0.53125 1.625,-2.25 0.0625,-0.15625 -0.15625,0.0625 -2.21875,1.59375 -0.5,0.625 a 3.8792834,3.8792834 0 0 1 -5.34375,0.625 L 93.75,27.15625 a 3.8792834,3.8792834 0 0 1 -0.875,-5.25 l 0.46875,-0.71875 1.03125,-2.625 0.03125,-0.15625 -0.15625,0.125 -1.71875,2.0625 -0.34375,0.78125 a 3.8792834,3.8792834 0 0 1 -5.03125,1.96875 L 82.125,21.25 A 3.8792834,3.8792834 0 0 1 80,16.28125 l 0.25,-0.6875 0.28125,-2.75 L 80.5,12.6875 l -0.09375,0.125 -1.125,2.5 -0.125,0.75 a 3.8792834,3.8792834 0 0 1 -4.3125,3.21875 l -5.40625,-0.6875 a 3.8792834,3.8792834 0 0 1 -3.375,-4.1875 L 66.15625,13.4375 65.75,11 65.65625,10.75 z m 0,15.5625 C 88.706813,26.3125 107.5,45.105691 107.5,68.15625 107.5,91.206811 88.706812,110 65.65625,110 42.60569,110 23.8125,91.206817 23.8125,68.15625 23.812501,45.105692 42.605688,26.3125 65.65625,26.3125 z"
         id="path3964"
         inkscape:original="M 63.9375 4.84375 L 61.84375 9.8125 L 61.25 13.40625 L 61.375 14.75 L 56 15.4375 L 55.75 14.125 L 54.25 10.8125 L 50.96875 6.5625 L 47.59375 7.46875 L 46.875 12.8125 L 47.21875 16.40625 L 47.6875 17.65625 L 42.6875 19.75 L 42.09375 18.53125 L 39.78125 15.71875 L 35.53125 12.46875 L 32.5 14.1875 L 33.1875 19.5625 L 34.46875 22.9375 L 35.21875 24.0625 L 30.9375 27.34375 L 30.0625 26.3125 L 27.125 24.1875 L 22.125 22.15625 L 19.65625 24.625 L 21.71875 29.625 L 23.8125 32.5625 L 24.84375 33.4375 L 21.5625 37.71875 L 20.4375 36.96875 L 17.0625 35.6875 L 11.6875 35 L 9.9375 38.03125 L 13.21875 42.3125 L 16.03125 44.59375 L 17.25 45.15625 L 15.1875 50.1875 L 13.9375 49.75 L 10.3125 49.375 L 4.96875 50.09375 L 4.0625 53.46875 L 8.3125 56.78125 L 11.625 58.25 L 12.9375 58.5 L 12.25 63.875 L 10.90625 63.75 L 7.3125 64.34375 L 2.34375 66.4375 L 2.34375 69.90625 L 7.3125 71.96875 L 10.90625 72.5625 L 12.25 72.4375 L 12.9375 77.84375 L 11.625 78.0625 L 8.3125 79.5625 L 4.0625 82.84375 L 4.96875 86.21875 L 10.3125 86.9375 L 13.9375 86.59375 L 15.1875 86.125 L 17.25 91.125 L 16.03125 91.71875 L 13.21875 94.03125 L 9.9375 98.3125 L 11.6875 101.3125 L 17.0625 100.65625 L 20.4375 99.34375 L 21.5625 98.59375 L 24.84375 102.90625 L 23.8125 103.75 L 21.71875 106.6875 L 19.65625 111.6875 L 22.125 114.15625 L 27.125 112.09375 L 30.0625 110 L 30.9375 108.96875 L 35.21875 112.28125 L 34.46875 113.375 L 33.1875 116.75 L 32.5 122.125 L 35.53125 123.875 L 39.78125 120.59375 L 42.09375 117.78125 L 42.6875 116.5625 L 47.6875 118.625 L 47.21875 119.90625 L 46.875 123.5 L 47.59375 128.875 L 50.96875 129.75 L 54.25 125.5 L 55.75 122.1875 L 56 120.875 L 61.375 121.5625 L 61.25 122.90625 L 61.84375 126.5 L 63.9375 131.46875 L 67.40625 131.46875 L 69.46875 126.5 L 70.0625 122.90625 L 69.9375 121.5625 L 75.34375 120.875 L 75.5625 122.1875 L 77.0625 125.5 L 80.34375 129.75 L 83.71875 128.875 L 84.4375 123.5 L 84.09375 119.90625 L 83.625 118.625 L 88.65625 116.5625 L 89.21875 117.78125 L 91.53125 120.59375 L 95.8125 123.875 L 98.8125 122.125 L 98.15625 116.75 L 96.84375 113.375 L 96.09375 112.28125 L 100.40625 108.96875 L 101.25 110 L 104.1875 112.09375 L 109.1875 114.15625 L 111.65625 111.6875 L 109.625 106.6875 L 107.5 103.75 L 106.46875 102.90625 L 109.78125 98.59375 L 110.875 99.34375 L 114.25 100.65625 L 119.625 101.3125 L 121.375 98.3125 L 118.09375 94.03125 L 115.28125 91.71875 L 114.0625 91.125 L 116.15625 86.125 L 117.40625 86.59375 L 121 86.9375 L 126.375 86.21875 L 127.28125 82.84375 L 123 79.5625 L 119.6875 78.0625 L 118.375 77.84375 L 119.0625 72.4375 L 120.40625 72.5625 L 124 71.96875 L 128.96875 69.90625 L 128.96875 66.4375 L 124 64.34375 L 120.40625 63.75 L 119.0625 63.875 L 118.375 58.5 L 119.6875 58.25 L 123 56.78125 L 127.28125 53.46875 L 126.375 50.09375 L 121 49.375 L 117.40625 49.75 L 116.15625 50.1875 L 114.0625 45.15625 L 115.28125 44.59375 L 118.09375 42.3125 L 121.375 38.03125 L 119.625 35 L 114.25 35.6875 L 110.875 36.96875 L 109.78125 37.71875 L 106.46875 33.4375 L 107.5 32.5625 L 109.625 29.625 L 111.65625 24.625 L 109.1875 22.15625 L 104.1875 24.1875 L 101.25 26.3125 L 100.40625 27.34375 L 96.09375 24.0625 L 96.84375 22.9375 L 98.15625 19.5625 L 98.8125 14.1875 L 95.8125 12.46875 L 91.53125 15.71875 L 89.21875 18.53125 L 88.65625 19.75 L 83.625 17.65625 L 84.09375 16.40625 L 84.4375 12.8125 L 83.71875 7.46875 L 80.34375 6.5625 L 77.0625 10.8125 L 75.5625 14.125 L 75.34375 15.4375 L 69.9375 14.75 L 70.0625 13.40625 L 69.46875 9.8125 L 67.40625 4.84375 L 63.9375 4.84375 z M 65.65625 30.1875 C 86.606095 30.1875 103.625 47.206409 103.625 68.15625 C 103.625 89.106093 86.606094 106.125 65.65625 106.125 C 44.706407 106.125 27.6875 89.1061 27.6875 68.15625 C 27.687501 47.20641 44.706406 30.1875 65.65625 30.1875 z "
         inkscape:radius="-3.8788955"
         sodipodi:type="inkscape:offset"
         style="opacity:0.26267281;fill:url(#linearGradient9488);fill-opacity:1;stroke:none;display:inline;filter:url(#filter5118);enable-background:new"
         transform="matrix(0.984375,0,0,0.984375,2.3666397,0.9044925)" />
      <path
         d="m 111.26752,73.759735 c 0,18.578317 -15.060701,33.639015 -33.639018,33.639015 -18.578317,0 -33.639019,-15.060698 -33.639019,-33.639015 0,-18.578317 15.060702,-33.639019 33.639019,-33.639019 18.578317,0 33.639018,15.060702 33.639018,33.639019 z"
         id="path5134"
         sodipodi:cx="77.628502"
         sodipodi:cy="73.759735"
         sodipodi:rx="33.639019"
         sodipodi:ry="33.639019"
         sodipodi:type="arc"
         style="fill:none;stroke:url(#linearGradient9490);stroke-width:8;stroke-linecap:round;stroke-linejoin:round;stroke-miterlimit:4;stroke-opacity:1;stroke-dasharray:none;stroke-dashoffset:0;marker:none;visibility:visible;display:inline;overflow:visible;enable-background:accumulate"
         transform="translate(-10.628502,-5.7597351)" />
    </g>
    <g
       id="g6374"
       transform="matrix(0.9912878,0,0,0.9903288,1.30683,0.6866552)" />
    <g
       id="g6448"
       transform="matrix(1,0,0,0.9999698,0,0.00338459)" />
    <g
       id="g9492"
       style="display:inline;enable-background:new"
       transform="matrix(0.362079,0,0,0.362079,133.74071,3.3786252)" />
  </g>
</svg>
