<?xml version="1.0" encoding="UTF-8"?>
<!DOCTYPE svg PUBLIC "-//W3C//DTD SVG 1.1//EN" "http://www.w3.org/Graphics/SVG/1.1/DTD/svg11.dtd">
<!-- Creator: CorelDRAW -->
<svg xmlns="http://www.w3.org/2000/svg" xml:space="preserve" width="160mm" height="190mm" style="shape-rendering:geometricPrecision; text-rendering:geometricPrecision; image-rendering:optimizeQuality; fill-rule:evenodd; clip-rule:evenodd"
viewBox="0 0 160 190"
 xmlns:xlink="http://www.w3.org/1999/xlink"
 xmlns:svg="http://www.w3.org/2000/svg"
 version="1.0">
 <defs>
  <style type="text/css">
   <![CDATA[
    .str0 {stroke:#1F1A17;stroke-width:0.0762}
    .fil0 {fill:#605D5C}
   ]]>
  </style>
 </defs>
 <g id="Layer_x0020_1">
  <metadata id="CorelCorpID_0Corel-Layer"/>
  <path class="fil0 str0" d="M157.22 32.87l-5.9918 0 0 -21.8489 5.9918 0 0 21.8489zm-7.1613 9.6456l-11.2531 0 0 -41.5418 11.2531 0 0 41.5418zm-128.973 0l-11.253 0 0 -41.5418 11.253 0 0 41.5418zm-12.4225 -9.6456l-5.8822 0 0 -21.8489 5.8822 0 0 21.8489zm128.974 -8.8783l-8.3303 0c-0.8768,1.5712 -12.057,20.9353 -33.6137,58.1295l0 99.5251c0,4.9324 -2.3381,7.3801 -6.9783,7.3801 -4.6403,0 -6.9421,-2.4477 -6.9421,-7.3801l0 -63.5733 -3.6533 0 0 63.5733c0,4.9324 -2.3018,7.3801 -6.9421,7.3801 -4.6402,0 -6.9783,-2.4477 -6.9783,-7.3801l0 -99.5251 -33.6137 -58.1295 -8.3303 0 0 -4.2748 6.8324 0c0,-1.8633 1.0232,-3.3612 2.9961,-4.4939 1.0961,-0.6577 2.1189,-0.9865 3.1053,-0.9865 1.8634,0 3.6905,1.4978 5.4805,4.494l0.5118 0.9864 77.5299 0 0.5118 -0.9864c1.79,-2.9962 3.6171,-4.494 5.4804,-4.494 0.9865,0 2.0093,0.3288 3.1054,0.9865 1.9729,1.1327 2.9961,2.6306 2.9961,4.4939l6.8324 0 0 4.2748zm-21.6297 0l-72.1228 0 18.3048 30.6176c3.069,5.042 6.0652,7.5993 8.9879,7.5993l17.5375 0c2.9227,0 5.9189,-2.5573 8.9879,-7.5993l18.3047 -30.6176zm-23.8581 20.3144c0,4.1651 -1.2057,7.8551 -3.6537,11.1434 -2.4114,3.2883 -5.298,4.9324 -8.6592,4.9324 -3.3612,0 -6.2477,-1.6441 -8.6591,-4.9324 -2.4481,-3.2883 -3.6538,-6.9783 -3.6538,-11.1434 0,-4.0556 1.2057,-7.5268 3.5809,-10.4129 2.4114,-2.8865 5.2975,-4.3481 8.732,-4.3481 3.3612,0 6.2478,1.4616 8.6592,4.3481 2.448,2.8861 3.6537,6.3573 3.6537,10.4129z"/>
 </g>
</svg>
