<?xml version="1.0"?>
<svg viewBox="0 0 48 48" width="48" height="48" xmlns="http://www.w3.org/2000/svg" xmlns:xlink="http://www.w3.org/1999/xlink">
<linearGradient id="a">
<stop offset="0"/>
<stop offset="1" stop-opacity="0"/>
</linearGradient>
<radialGradient id="b" cx="30.43" cy="52.3" gradientTransform="matrix(.953 0 0 .119 7.59 11.6)" gradientUnits="userSpaceOnUse" r="13.64" xlink:href="#a"/>
<linearGradient id="c" gradientUnits="userSpaceOnUse" x1="32.44" x2="39.91" y1="-.3" y2="27.6">
<stop offset="0" stop-color="#f57900"/>
<stop offset="1" stop-color="#be5d00"/>
</linearGradient>
<linearGradient id="d" gradientTransform="translate(0 -32.5)" gradientUnits="userSpaceOnUse" x2="0" y1="47.53" y2="29.88">
<stop offset="0" stop-color="#b45000"/>
<stop offset="1" stop-color="#f57900"/>
</linearGradient>
<radialGradient id="e" cx="-341.5" cy="303.3" gradientTransform="matrix(2.847 0 0 2.683 1009 -814.1)" gradientUnits="userSpaceOnUse" r="8.8">
<stop offset="0" stop-color="#fed496"/>
<stop offset="1" stop-color="#fcaf3e"/>
</radialGradient>
<linearGradient id="f" x1="24.85" x2="42.85" xlink:href="#g" y1="-5.14" y2="19.9"/>
<linearGradient id="g" gradientUnits="userSpaceOnUse" x1="24.85" x2="42.85" y1="27.36" y2="52.4">
<stop offset="0" stop-color="#fff"/>
<stop offset="1" stop-color="#fff" stop-opacity=".23"/>
</linearGradient>
<linearGradient id="h" gradientTransform="matrix(.658 0 -.003 .683 -173.6 -761.4)" x1="311.1" x2="336.2" xlink:href="#i" y1="1113" y2="1157"/>
<linearGradient id="i" gradientUnits="userSpaceOnUse" x1="30.91" x2="32.91" y1="10.33" y2="8.45">
<stop offset="0" stop-color="#fff"/>
<stop offset="1" stop-color="#fff" stop-opacity="0"/>
</linearGradient>
<radialGradient id="j" cx="1203" cy="2355" gradientTransform="matrix(.332 0 0 .32 -364.4 -757.9)" r="50.66" xlink:href="#i"/>
<linearGradient id="k" x1="24.85" x2="0" xlink:href="#g" y1="15.9" y2="14.1"/>
<filter id="l" height="2.56" width="1.13" x="0" y="-.78">
<feGaussianBlur stdDeviation="1.105"/>
</filter>
<linearGradient id="m" xlink:href="#a"/>
<linearGradient id="n" gradientTransform="matrix(2.774 0 0 1.97 -1892 -872.9)" gradientUnits="userSpaceOnUse" x1="302.9" x2="302.9" y1="366.6" y2="609.5">
<stop offset="0" stop-opacity="0"/>
<stop offset=".5"/>
<stop offset="1" stop-opacity="0"/>
</linearGradient>
<radialGradient id="o" cx="605.7" cy="486.6" gradientTransform="matrix(2.774 0 0 1.97 -1892 -872.9)" gradientUnits="userSpaceOnUse" r="117.1" xlink:href="#m"/>
<radialGradient id="p" cx="605.7" cy="486.6" gradientTransform="matrix(-2.774 0 0 1.97 112.8 -872.9)" gradientUnits="userSpaceOnUse" r="117.1" xlink:href="#m"/>
<g transform="matrix(1.517 0 0 1.517 -31.42 17.04)">
<g transform="matrix(.0156 0 0 .0144 50.39 15.28)">
<path d="m-1559-150.7h1340v478.4h-1340z" fill="url(#n)" opacity=".4"/>
<path d="m-219.6-150.7v478.3c142.9.9 345.4-107.2 345.4-239.2s-159.4-239.1-345.4-239.1z" fill="url(#o)" opacity=".4"/>
<path d="m-1559-150.7v478.3c-142.9.9-345.4-107.2-345.4-239.2s159.4-239.1 345.4-239.1z" fill="url(#p)" opacity=".4"/></g>
<ellipse cx="36.6" cy="17.9" fill="url(#b)" opacity=".3" rx="13" ry="1.63"/>
<path d="m38.25-8.54c-.35-.64-.98-.99-1.69-.99s-1.34.42-1.7 1.06l-12.1 22.86c-.29.56-.29 1.34.06 1.9s.91.85 1.62.85h24.3c.7 0 1.34-.35 1.63-.92.35-.56.36-1.27.09-1.91z" fill="url(#c)" stroke="url(#d)"/>
<path d="m28.01 13.6h17.2c.3 0 .49-.24.31-.55l-8.64-16.1c-.18-.3-.42-.3-.55 0l-8.61 16.1c-.19.3 0 .55.29.55z" fill="url(#e)" stroke="url(#f)" stroke-width=".77"/>
<path d="m37.91-7.55c-.48-.92-.66-1.21-1.4-1.21-.63 0-.97.43-1.42 1.3l-11.27 21.34c-.65 1.2-.72 1.51-.41 2.04.32.53.72.5 2.21.53h22.1c1.39.02 1.7-.09 1.96-.62.32-.53.18-.95-.41-2z" fill="none" opacity=".9" stroke="url(#h)"/>
<path d="m36.54 11.8c-.74 0-1.31-.58-1.31-1.34 0-.81.52-1.34 1.31-1.34.8 0 1.26.52 1.32 1.34 0 .76-.51 1.34-1.32 1.34zm-1.15-10.12h2.29l-.73 6.75-.84-.95z" fill="#121312"/>
<path d="m25.4 9.8l19.74-4.71-7.11-13.37c-.71-1.34-2.41-1.27-3.12.08z" fill="url(#j)" opacity=".47"/>
<path d="m48.74 14.02h-24.28c-.32 0-.54-.09-.71-.27-.72 1.26-.26 2.66.7 2.66h24.28c1.09 0 1.47-1.08 1-2.13-.42-1.19-.22-.39-.99-.26z" fill="url(#k)" filter="url(#l)" opacity=".4"/>
</g></svg>
