<?xml version="1.0" encoding="UTF-8"?>
<!-- Generator: Adobe Illustrator 19.1.0, SVG Export Plug-In . SVG Version: 6.00 Build 0)  -->
<svg xmlns="http://www.w3.org/2000/svg" xmlns:xlink="http://www.w3.org/1999/xlink" xmlns:dc="http://purl.org/dc/elements/1.1/" xmlns:cc="http://creativecommons.org/ns#" xmlns:rdf="http://www.w3.org/1999/02/22-rdf-syntax-ns#" version="1.1" id="DESIGNS" x="0px" y="0px" width="32px" height="32px" viewBox="0 0 32 32" style="enable-background:new 0 0 32 32;" xml:space="preserve">
<title property="dc:title">to fill</title><desc property="dc:description">An icon for "fill" from the Feather series on to [icon]. Downloaded from http://www.toicon.com/icons/feather_fill by 127.0.0.1 on 2017-07-10. Licensed CC-BY, see http://toicon.com/license/ for details.</desc>
<path class="feather_een" d="M28.879,15.879L21,8l0-2.822c0-2.088-1.523-3.956-3.601-4.158C15.014,0.788,13,2.663,13,5v3l-1,1H8.5  C4.91,9,2,11.91,2,15.5l0,12.387c0,0.997,0.678,1.923,1.661,2.085C4.913,30.179,6,29.214,6,28V17l10.879,10.879  c1.172,1.172,3.071,1.172,4.243,0l7.757-7.757C30.05,18.95,30.05,17.05,28.879,15.879z M14,5c0-1.85,1.683-3.314,3.598-2.942  C19.022,2.335,20,3.668,20,5.118L20,7l-0.879-0.879c-1.172-1.172-3.071-1.172-4.243,0L14,7V5z M13.5,16c0.276,0,0.5-0.224,0.5-0.5  v-1.408c0.581,0.207,1,0.757,1,1.408c0,0.827-0.673,1.5-1.5,1.5S12,16.327,12,15.5c0-0.651,0.419-1.201,1-1.408V15.5  C13,15.776,13.224,16,13.5,16z M5,16v12c0,0.551-0.448,1-1,1s-1-0.449-1-1V15.5C3,12.467,5.468,10,8.5,10H11L5,16z M28.172,19.414  l-7.757,7.757c-0.781,0.781-2.047,0.781-2.828,0L6.414,16L13,9.414v3.636c-1.376,0.279-2.341,1.687-1.886,3.216  c0.235,0.789,0.891,1.423,1.686,1.639C14.481,18.362,16,17.108,16,15.5c0-1.209-0.859-2.218-2-2.45V8.414l1.586-1.586  c0.781-0.781,2.047-0.781,2.828,0l9.757,9.757C28.953,17.367,28.953,18.633,28.172,19.414z" style="fill: #0B1719;"/>
<metadata><work rdf:about=""><format>image/svg+xml</format><type rdf:resource="http://purl.org/dc/dcmitype/StillImage"/><license rdf:resource="http://creativecommons.org/licenses/by/4.0/"/><attributionname>Shannon E Thomas</attributionname><attributionurl>http://www.toicon.com/icons/feather_fill</attributionurl></work></metadata></svg>
