<?xml version="1.0" encoding="UTF-8"?>
<svg width="447.674706px" height="423.379504px" viewBox="0 0 447.674706 423.379504" version="1.1" xmlns="http://www.w3.org/2000/svg" xmlns:xlink="http://www.w3.org/1999/xlink">
    <title>Blasen 2</title>
    <defs>
        <linearGradient x1="100%" y1="23.0678868%" x2="15.6011285%" y2="80.9010063%" id="linearGradient-1">
            <stop stop-color="#004B70" offset="0%"></stop>
            <stop stop-color="#007FA5" offset="23.9084326%"></stop>
            <stop stop-color="#005277" offset="78.6339021%"></stop>
            <stop stop-color="#004B6F" offset="100%"></stop>
        </linearGradient>
        <linearGradient x1="100%" y1="23.0678868%" x2="15.6011285%" y2="80.9010063%" id="linearGradient-2">
            <stop stop-color="#004B70" offset="0%"></stop>
            <stop stop-color="#007FA5" offset="59.9933304%"></stop>
            <stop stop-color="#005277" offset="78.6339021%"></stop>
            <stop stop-color="#004B6F" offset="100%"></stop>
        </linearGradient>
    </defs>
    <g id="Blasen-2" stroke="none" stroke-width="1" fill="none" fill-rule="evenodd">
        <g id="Group-3" opacity="0.79505814" style="mix-blend-mode: multiply;" transform="translate(194.325424, 229.276251) rotate(193.000000) translate(-194.325424, -229.276251) translate(27.325424, 88.776251)" fill="url(#linearGradient-1)">
            <path d="M327.705614,137.914309 C324.292133,125.914757 315.555947,91.3152745 267.339333,48.986697 C227.91283,14.3737612 181.565613,-0.0060168289 149.336851,0 C124.482054,0.00425039494 91.2237845,9.03622099 44.1766009,69.2853526 C4.16009639,120.530129 -8.44987119,202.605608 5.45006457,235.422842 C29.0779816,291.206793 83.3955104,291.169619 147.052973,256.824693 C210.71114,222.479413 242.977614,204.745793 296.455254,200.458342 C337.22706,197.189471 338.39508,175.496243 327.705614,137.914309" id="Fill-1"></path>
        </g>
        <g id="Group-3" opacity="0.797102108" style="mix-blend-mode: multiply;" transform="translate(248.183982, 211.668938) rotate(244.000000) translate(-248.183982, -211.668938) translate(81.474922, 71.468208)" fill="url(#linearGradient-2)">
            <path d="M327.705614,137.914309 C324.292133,125.914757 315.555947,91.3152745 267.339333,48.986697 C227.91283,14.3737612 181.565613,-0.0060168289 149.336851,0 C124.482054,0.00425039494 91.2237845,9.03622099 44.1766009,69.2853526 C4.16009639,120.530129 -8.44987119,202.605608 5.45006457,235.422842 C29.0779816,291.206793 83.3955104,291.169619 147.052973,256.824693 C210.71114,222.479413 242.977614,204.745793 296.455254,200.458342 C337.22706,197.189471 338.39508,175.496243 327.705614,137.914309" id="Fill-1"></path>
        </g>
    </g>
</svg>