<?xml version="1.0" encoding="utf-8"?>
<!-- Generator: Adobe Illustrator 24.1.2, SVG Export Plug-In . SVG Version: 6.00 Build 0)  -->
<svg version="1.1"
	 id="svg4946" inkscape:export-filename="/Users/ericpeukert/Desktop/scads_logo_associated.png" inkscape:export-xdpi="110.65923" inkscape:export-ydpi="110.65923" inkscape:version="0.91 r13725" sodipodi:docname="scads_ai_logo_v1.svg" xmlns:cc="http://creativecommons.org/ns#" xmlns:dc="http://purl.org/dc/elements/1.1/" xmlns:inkscape="http://www.inkscape.org/namespaces/inkscape" xmlns:rdf="http://www.w3.org/1999/02/22-rdf-syntax-ns#" xmlns:sodipodi="http://sodipodi.sourceforge.net/DTD/sodipodi-0.dtd" xmlns:svg="http://www.w3.org/2000/svg"
	 xmlns="http://www.w3.org/2000/svg" xmlns:xlink="http://www.w3.org/1999/xlink" x="0px" y="0px" viewBox="0 0 595.275 841.89"
	 enable-background="new 0 0 595.275 841.89" xml:space="preserve">
<sodipodi:namedview  bordercolor="#666666" borderopacity="1.0" id="base" inkscape:current-layer="layer1" inkscape:cx="414.49925" inkscape:cy="1031.3003" inkscape:document-units="px" inkscape:guide-bbox="true" inkscape:pageopacity="0.0" inkscape:pageshadow="2" inkscape:window-height="962" inkscape:window-maximized="0" inkscape:window-width="1680" inkscape:window-x="1518" inkscape:window-y="0" inkscape:zoom="0.98994949" pagecolor="#ffffff" showgrid="false" showguides="true">
	<sodipodi:guide  id="guide4198" orientation="0,1" position="555.17858,855.71431"></sodipodi:guide>
</sodipodi:namedview>
<g id="layer1" inkscape:groupmode="layer" inkscape:label="Ebene 1">
	<g id="g42" transform="matrix(0.85113699,0,0,-0.85113699,-1291.0563,2748.6512)">
		<g>
			<defs>
				<rect id="SVGID_1_" x="445.324" y="846.568" width="1623.246" height="2294.934"/>
			</defs>
			<clipPath id="SVGID_2_">
				<use xlink:href="#SVGID_1_"  overflow="visible"/>
			</clipPath>
			<g id="g44" clip-path="url(#SVGID_2_)">
				<g id="g50" transform="translate(1695.9314,3108.2119)">
					<path id="path52" inkscape:connector-curvature="0" fill="#7A7B7A" d="M-35.814,24.235l-1.669-14.751
						c-5.899,2.566-11.974,3.849-18.216,3.849c-3.766,0-6.887-0.857-9.366-2.566c-3.164-2.14-4.745-5.434-4.745-9.879
						c0-4.02,3.376-7.485,10.134-10.393c10.861-4.533,17.189-7.397,18.987-8.594c6.753-4.707,10.135-11.375,10.135-20.013
						c0-9.239-3.336-16.209-10.007-20.912c-5.902-4.106-13.771-6.158-23.605-6.158c-5.902,0-13.557,1.152-22.963,3.462l1.667,16.167
						c6.757-3.678,13.513-5.518,20.269-5.518c3.935,0,7.441,0.898,10.521,2.693c3.592,2.224,5.387,5.176,5.387,8.853
						c0,4.533-3.38,8.294-10.134,11.288c-11.718,5.215-18.046,8.126-18.987,8.724C-85.165-14.893-88.541-8.35-88.541,0.117
						c0,9.322,3.248,16.376,9.748,21.168c5.56,4.105,12.745,6.158,21.555,6.158C-49.371,27.443-42.229,26.372-35.814,24.235"/>
				</g>
				<g id="g54" transform="translate(1777.2346,3080.1484)">
					<path id="path56" inkscape:connector-curvature="0" fill="#7A7B7A" d="M-52.075,29.848l-1.541-13.596
						c-3.506,1.622-7.396,2.438-11.674,2.438c-5.303,0-9.536-1.926-12.7-5.774c-3.164-3.848-4.747-8.897-4.747-15.141
						c0-6.411,1.453-11.543,4.363-15.393c3.162-4.105,7.653-6.156,13.468-6.156c4.107,0,8.509,1.024,13.215,3.078l0.772-14.239
						c-4.706-1.453-10.439-2.182-17.192-2.182c-10.518,0-18.646,3.289-24.376,9.879c-5.473,6.242-8.209,14.578-8.209,25.014
						c0,9.922,2.735,18.005,8.209,24.248c5.816,6.67,13.728,10.007,23.734,10.007C-62.51,32.03-56.95,31.303-52.075,29.848"/>
				</g>
				<g id="g58" transform="translate(1803.8513,3058.1792)">
					<path id="path60" inkscape:connector-curvature="0" fill="#7A7B7A" d="M-57.398,34.242l-0.515,14.753
						c7.269,3.337,14.924,5.004,22.966,5.004c10.006,0,17.255-2.204,21.743-6.608c4.491-4.405,6.735-11.48,6.735-21.23v-8.468
						c0-4.45,0.084-9.965,0.256-16.549c0.086-4.619,0.342-9.538,0.77-14.753h-15.138c-0.172,0.854-0.428,4.148-0.77,9.878h-0.256
						c-1.967-3.509-4.834-6.285-8.596-8.339c-3.763-2.051-7.697-3.078-11.802-3.078c-6.244,0-11.545,1.708-15.909,5.132
						c-4.789,3.676-7.182,8.508-7.182,14.497c0,8.894,3.763,15.18,11.289,18.859c5.215,2.566,12.615,3.845,22.192,3.845h9.494
						c0,5.218-1.178,8.897-3.529,11.037c-2.352,2.134-6.138,3.206-11.353,3.206C-44.272,41.427-51.07,39.03-57.398,34.242
						 M-48.674,5.505c0-5.387,3.634-8.081,10.902-8.081c6.843,0,11.548,3.164,14.114,9.492c1.024,2.649,1.539,5.988,1.539,10.006
						h-7.44C-42.305,16.922-48.674,13.118-48.674,5.505"/>
				</g>
				<g id="g62" transform="translate(1890.925,2998.3652)">
					<path id="path64" inkscape:connector-curvature="0" fill="#7A7B7A" d="M-74.813,46.204v89.547h24.504
						c34.464,0,51.697-14.927,51.697-44.776c0-29.847-17.233-44.771-51.697-44.771H-74.813z M-56.854,121.638V60.315h10.007
						c7.953,0,14.751,2.694,20.4,8.081c6.072,5.733,9.108,13.257,9.108,22.58c0,9.324-3.036,16.893-9.108,22.709
						c-5.649,5.301-12.447,7.954-20.4,7.954H-56.854z"/>
				</g>
				<g id="g66" transform="translate(2066.5164,3108.2119)">
					<path id="path68" inkscape:connector-curvature="0" fill="#7A7B7A" d="M-109.931,24.235l-1.667-14.751
						c-5.902,2.566-11.976,3.849-18.218,3.849c-3.766,0-6.884-0.857-9.364-2.566c-3.167-2.14-4.748-5.434-4.748-9.879
						c0-4.02,3.379-7.485,10.135-10.393c10.861-4.533,17.191-7.397,18.986-8.594c6.756-4.707,10.135-11.375,10.135-20.013
						c0-9.239-3.337-16.209-10.007-20.912c-5.902-4.106-13.771-6.158-23.605-6.158c-5.9,0-13.555,1.152-22.963,3.462l1.667,16.167
						c6.757-3.678,13.513-5.518,20.272-5.518c3.932,0,7.438,0.898,10.519,2.693c3.592,2.224,5.387,5.176,5.387,8.853
						c0,4.533-3.379,8.294-10.135,11.288c-11.717,5.215-18.046,8.126-18.986,8.724c-6.756,4.619-10.133,11.162-10.133,19.629
						c0,9.322,3.249,16.376,9.75,21.168c5.557,4.105,12.743,6.158,21.552,6.158C-123.489,27.443-116.346,26.372-109.931,24.235"/>
				</g>
				<g id="g70" transform="translate(1632.1365,2930.2693)">
					<path id="path72" inkscape:connector-curvature="0" fill="#0074AC" d="M-23.055,59.824v30.79h8.426
						c11.851,0,17.777-5.131,17.777-15.394c0-10.266-5.926-15.396-17.777-15.396H-23.055z M-16.879,85.759V64.675h3.441
						c2.736,0,5.074,0.925,7.013,2.78c2.087,1.97,3.133,4.556,3.133,7.765c0,3.203-1.046,5.805-3.133,7.807
						c-1.938,1.823-4.277,2.732-7.013,2.732H-16.879z"/>
				</g>
				<g id="g74" transform="translate(1671.2842,2930.2693)">
					<path id="path76" inkscape:connector-curvature="0" fill="#0074AC" d="M-30.885,59.824v30.79h6.662
						c4.734,0,7.984-0.324,9.748-0.972c3.175-1.144,4.763-3.6,4.763-7.368c0-1.85-0.572-3.438-1.719-4.76
						c-1.147-1.325-2.691-2.119-4.632-2.383v-0.088c1.353-0.121,2.44-1.176,3.263-3.178l4.941-12.042h-6.879l-3.707,9.618
						c-0.47,1.204-0.97,2.011-1.5,2.424c-0.616,0.501-1.544,0.75-2.777,0.75h-1.987V59.824H-30.885z M-24.709,85.759v-8.293h2.03
						c4.351,0,6.527,1.427,6.527,4.28c0,1.645-0.706,2.78-2.116,3.396c-0.941,0.413-2.412,0.617-4.41,0.617H-24.709z"/>
				</g>
			</g>
		</g>
	</g>
	<g id="g78" transform="matrix(0.85113699,0,0,-0.85113699,160.67489,254.59056)">
		<path id="path80" inkscape:connector-curvature="0" fill="#0074AC" d="M-37.755,59.824v30.79h18.174v-4.854h-12v-7.587h10.984
			v-4.849h-10.984v-8.648h12.089v-4.852H-37.755z"/>
	</g>
	<g id="g82" transform="matrix(0.85113699,0,0,-0.85113699,-1291.0563,2748.6512)">
		<g>
			<defs>
				<rect id="SVGID_3_" x="445.324" y="846.568" width="1623.246" height="2294.934"/>
			</defs>
			<clipPath id="SVGID_4_">
				<use xlink:href="#SVGID_3_"  overflow="visible"/>
			</clipPath>
			<g id="g84" clip-path="url(#SVGID_4_)">
				<g id="g90" transform="translate(1757.6885,2968.0388)">
					<path id="path92" inkscape:connector-curvature="0" fill="#0074AC" d="M-48.166,52.269l-0.575-5.074
						c-2.03,0.883-4.117,1.324-6.262,1.324c-1.295,0-2.37-0.294-3.221-0.88c-1.088-0.737-1.634-1.87-1.634-3.396
						c0-1.384,1.163-2.576,3.486-3.575c3.736-1.559,5.913-2.544,6.528-2.957c2.323-1.615,3.486-3.909,3.486-6.879
						c0-3.177-1.147-5.573-3.44-7.191c-2.031-1.414-4.735-2.119-8.118-2.119c-2.027,0-4.661,0.397-7.895,1.191l0.575,5.56
						c2.322-1.265,4.645-1.897,6.968-1.897c1.353,0,2.56,0.308,3.618,0.925c1.233,0.763,1.853,1.779,1.853,3.043
						c0,1.56-1.163,2.85-3.486,3.882c-4.029,1.795-6.205,2.794-6.529,2.999c-2.323,1.586-3.486,3.839-3.486,6.749
						c0,3.206,1.119,5.634,3.356,7.279c1.91,1.41,4.381,2.116,7.41,2.116C-52.83,53.372-50.374,53.007-48.166,52.269"/>
				</g>
				<g id="g94" transform="translate(1766.9504,2930.2693)">
					<path id="path96" inkscape:connector-curvature="0" fill="#0074AC" d="M-50.018,59.824v30.79h8.426
						c11.849,0,17.777-5.131,17.777-15.394c0-10.266-5.928-15.396-17.777-15.396H-50.018z M-43.844,85.759V64.675h3.442
						c2.735,0,5.074,0.925,7.014,2.78c2.087,1.97,3.133,4.556,3.133,7.765c0,3.203-1.046,5.805-3.133,7.807
						c-1.941,1.823-4.279,2.732-7.014,2.732H-43.844z"/>
				</g>
			</g>
		</g>
	</g>
	<g id="g98" transform="matrix(0.85113699,0,0,-0.85113699,246.74486,254.59056)">
		<path id="path100" inkscape:connector-curvature="0" fill="#0074AC" d="M-57.98,59.824v30.79h18.174v-4.854h-12v-7.587h10.984
			v-4.849h-10.984v-8.648h12.089v-4.852H-57.98z"/>
	</g>
	<g id="g102" transform="matrix(0.85113699,0,0,-0.85113699,272.5098,254.59056)">
		<path id="path104" inkscape:connector-curvature="0" fill="#0074AC" d="M-64.034,59.824v30.79h7.621l11.786-23.028v23.028h5.912
			v-30.79h-7.58l-11.83,23.025V59.824H-64.034z"/>
	</g>
	<g id="g106" transform="matrix(0.85113699,0,0,-0.85113699,318.12442,254.59056)">
		<path id="path108" inkscape:connector-curvature="0" fill="#50AE2F" d="M-74.753,59.824v30.79h6.173V64.675h11.956v-4.852H-74.753
			z"/>
	</g>
	<g id="g110" transform="matrix(0.85113699,0,0,-0.85113699,341.35399,254.59056)">
		<path id="path112" inkscape:connector-curvature="0" fill="#50AE2F" d="M-80.212,59.824v30.79h18.177v-4.854h-12.003v-7.587
			h10.984v-4.849h-10.984v-8.648h12.086v-4.852H-80.212z"/>
	</g>
	<path id="path114" inkscape:connector-curvature="0" fill="#50AE2F" d="M293.695,177.466h5.256v26.207h-5.256V177.466z"/>
	<g id="g116" transform="matrix(0.85113699,0,0,-0.85113699,-1291.0563,2748.6512)">
		<g>
			<defs>
				<rect id="SVGID_5_" x="445.324" y="846.568" width="1623.246" height="2294.934"/>
			</defs>
			<clipPath id="SVGID_6_">
				<use xlink:href="#SVGID_5_"  overflow="visible"/>
			</clipPath>
			<g id="g118" clip-path="url(#SVGID_6_)">
				<g id="g124" transform="translate(1963.7927,2930.2693)">
					<path id="path126" inkscape:connector-curvature="0" fill="#50AE2F" d="M-89.386,59.824v30.79h7.807
						c8.559,0,12.836-3.104,12.836-9.308c0-3.381-1.146-5.91-3.439-7.585c-2.03-1.474-4.838-2.208-8.425-2.208h-2.602V59.824
						H-89.386z M-83.21,85.759v-9.395h2.16c3.911,0,5.865,1.531,5.865,4.588c0,3.206-1.954,4.807-5.865,4.807H-83.21z"/>
				</g>
			</g>
		</g>
	</g>
	<g id="g128" transform="matrix(0.85113699,0,0,-0.85113699,403.77168,254.59056)">
		<path id="path130" inkscape:connector-curvature="0" fill="#50AE2F" d="M-94.878,59.824v5.029l14.468,20.906h-13.897v4.854h20.468
			v-5.03l-14.599-20.909h14.908v-4.852H-94.878z"/>
	</g>
	<path id="path132" inkscape:connector-curvature="0" fill="#50AE2F" d="M345.319,177.466h5.257v26.207h-5.257V177.466z"/>
	<g id="g134" transform="matrix(0.85113699,0,0,-0.85113699,-1291.0563,2748.6512)">
		<g>
			<defs>
				<rect id="SVGID_7_" x="445.324" y="846.568" width="1623.246" height="2294.934"/>
			</defs>
			<clipPath id="SVGID_8_">
				<use xlink:href="#SVGID_7_"  overflow="visible"/>
			</clipPath>
			<g id="g136" clip-path="url(#SVGID_8_)">
				<g id="g142" transform="translate(2070.873,2967.8169)">
					<path id="path144" inkscape:connector-curvature="0" fill="#50AE2F" d="M-110.802,52.314l-0.397-5.205
						c-2.354,1.088-5.001,1.633-7.94,1.633c-3.502,0-6.266-1.073-8.293-3.221c-1.913-2.028-2.868-4.674-2.868-7.937
						c0-3.208,0.941-5.839,2.824-7.896c1.882-2.058,4.427-3.087,7.632-3.087c1.527,0,2.881,0.146,4.057,0.438v8.029h-6.53v4.852
						h12.44V23.334c-3.911-1.058-7.232-1.588-9.967-1.588c-5.176,0-9.236,1.264-12.176,3.793c-3.147,2.676-4.72,6.543-4.72,11.601
						c0,5.236,1.498,9.286,4.501,12.155c2.999,2.869,7.13,4.3,12.395,4.3C-116.671,53.594-113.656,53.168-110.802,52.314"/>
				</g>
			</g>
		</g>
	</g>
	<g id="g146" transform="matrix(0.85113699,0,0,-0.85113699,647.59668,47.490634)">
		<path id="path148" inkscape:connector-curvature="0" fill="#0074AC" d="M-148.648,11.159v-140.181h16.842V28.003h-157.03V11.159
			H-148.648z"/>
	</g>
	<g id="g150" transform="matrix(0.85113699,0,0,-0.85113699,611.74999,83.328954)">
		<path id="path152" inkscape:connector-curvature="0" fill="#0074AC" d="M-140.224,19.581V-86.915h16.846V36.422H-246.72V19.581
			H-140.224z"/>
	</g>
	<rect id="rect4213" x="465.787" y="79.946" fill="#0074AC" width="14.344" height="77.352"/>
	<g>
		<path fill="#0074AC" d="M420.435,135.61l-5.926,21.774h-12.977l22.069-76.835h16.042l22.375,76.835H448.43l-6.232-21.774H420.435z
			 M440.153,125.008l-5.415-18.924c-1.327-4.674-2.451-9.918-3.475-14.364h-0.204c-1.021,4.446-2.146,9.804-3.27,14.364
			l-5.312,18.924H440.153z"/>
	</g>
	<rect x="376.138" y="76.445" fill="none" width="24" height="87"/>
	<text transform="matrix(1 0 0 1 376.1377 157.3838)" fill="#7A7B7A" font-family="'MyriadPro-Regular'" font-size="114px">.</text>
</g>
</svg>
