<?xml version="1.0" encoding="UTF-8" standalone="no"?>
<svg
   xmlns:dc="http://purl.org/dc/elements/1.1/"
   xmlns:cc="http://creativecommons.org/ns#"
   xmlns:rdf="http://www.w3.org/1999/02/22-rdf-syntax-ns#"
   xmlns:svg="http://www.w3.org/2000/svg"
   xmlns="http://www.w3.org/2000/svg"
   viewBox="0 0 3456 3456"
   height="3456"
   width="3456"
   xml:space="preserve"
   id="svg2"
   version="1.1"><metadata
     id="metadata8"><rdf:RDF><cc:Work
         rdf:about=""><dc:format>image/svg+xml</dc:format><dc:type
           rdf:resource="http://purl.org/dc/dcmitype/StillImage" /></cc:Work></rdf:RDF></metadata><defs
     id="defs6"><clipPath
       id="clipPath18"
       clipPathUnits="userSpaceOnUse"><path
         style="clip-rule:evenodd"
         id="path16"
         d="M 0,7.3242e-4 H 2592 V 2592.0007 H 0 Z" /></clipPath><linearGradient
       id="linearGradient30"
       spreadMethod="pad"
       gradientUnits="userSpaceOnUse"
       y2="1639.08"
       x2="2450.6399"
       y1="1639.08"
       x1="159.60001"><stop
         id="stop24"
         offset="0"
         style="stop-opacity:1;stop-color:#ffffff" /><stop
         id="stop26"
         offset="0.7"
         style="stop-opacity:1;stop-color:#ff7800" /><stop
         id="stop28"
         offset="1"
         style="stop-opacity:1;stop-color:#ff7800" /></linearGradient><linearGradient
       id="linearGradient44"
       spreadMethod="pad"
       gradientUnits="userSpaceOnUse"
       y2="1639.08"
       x2="2450.6399"
       y1="1639.08"
       x1="159.60001"><stop
         id="stop38"
         offset="0"
         style="stop-opacity:1;stop-color:#ffffff" /><stop
         id="stop40"
         offset="0.7"
         style="stop-opacity:1;stop-color:#ff7800" /><stop
         id="stop42"
         offset="1"
         style="stop-opacity:1;stop-color:#ff7800" /></linearGradient><linearGradient
       id="linearGradient58"
       spreadMethod="pad"
       gradientUnits="userSpaceOnUse"
       y2="1639.08"
       x2="2450.6399"
       y1="1639.08"
       x1="159.60001"><stop
         id="stop52"
         offset="0"
         style="stop-opacity:1;stop-color:#ffffff" /><stop
         id="stop54"
         offset="0.7"
         style="stop-opacity:1;stop-color:#ff7800" /><stop
         id="stop56"
         offset="1"
         style="stop-opacity:1;stop-color:#ff7800" /></linearGradient><linearGradient
       id="linearGradient72"
       spreadMethod="pad"
       gradientUnits="userSpaceOnUse"
       y2="1639.08"
       x2="2450.6399"
       y1="1639.08"
       x1="159.60001"><stop
         id="stop66"
         offset="0"
         style="stop-opacity:1;stop-color:#ffffff" /><stop
         id="stop68"
         offset="0.7"
         style="stop-opacity:1;stop-color:#ff7800" /><stop
         id="stop70"
         offset="1"
         style="stop-opacity:1;stop-color:#ff7800" /></linearGradient><linearGradient
       id="linearGradient86"
       spreadMethod="pad"
       gradientUnits="userSpaceOnUse"
       y2="1639.08"
       x2="2450.6399"
       y1="1639.08"
       x1="159.60001"><stop
         id="stop80"
         offset="0"
         style="stop-opacity:1;stop-color:#ffffff" /><stop
         id="stop82"
         offset="0.7"
         style="stop-opacity:1;stop-color:#ff7800" /><stop
         id="stop84"
         offset="1"
         style="stop-opacity:1;stop-color:#ff7800" /></linearGradient><linearGradient
       id="linearGradient100"
       spreadMethod="pad"
       gradientUnits="userSpaceOnUse"
       y2="1639.08"
       x2="2450.6399"
       y1="1639.08"
       x1="159.60001"><stop
         id="stop94"
         offset="0"
         style="stop-opacity:1;stop-color:#ffffff" /><stop
         id="stop96"
         offset="0.7"
         style="stop-opacity:1;stop-color:#ff7800" /><stop
         id="stop98"
         offset="1"
         style="stop-opacity:1;stop-color:#ff7800" /></linearGradient><linearGradient
       id="linearGradient114"
       spreadMethod="pad"
       gradientUnits="userSpaceOnUse"
       y2="1639.08"
       x2="2450.6399"
       y1="1639.08"
       x1="159.60001"><stop
         id="stop108"
         offset="0"
         style="stop-opacity:1;stop-color:#ffffff" /><stop
         id="stop110"
         offset="0.7"
         style="stop-opacity:1;stop-color:#ff7800" /><stop
         id="stop112"
         offset="1"
         style="stop-opacity:1;stop-color:#ff7800" /></linearGradient><linearGradient
       id="linearGradient128"
       spreadMethod="pad"
       gradientUnits="userSpaceOnUse"
       y2="1639.08"
       x2="2450.6399"
       y1="1639.08"
       x1="159.60001"><stop
         id="stop122"
         offset="0"
         style="stop-opacity:1;stop-color:#ffffff" /><stop
         id="stop124"
         offset="0.7"
         style="stop-opacity:1;stop-color:#ff7800" /><stop
         id="stop126"
         offset="1"
         style="stop-opacity:1;stop-color:#ff7800" /></linearGradient><linearGradient
       id="linearGradient142"
       spreadMethod="pad"
       gradientUnits="userSpaceOnUse"
       y2="1639.08"
       x2="2450.6399"
       y1="1639.08"
       x1="159.60001"><stop
         id="stop136"
         offset="0"
         style="stop-opacity:1;stop-color:#ffffff" /><stop
         id="stop138"
         offset="0.7"
         style="stop-opacity:1;stop-color:#ff7800" /><stop
         id="stop140"
         offset="1"
         style="stop-opacity:1;stop-color:#ff7800" /></linearGradient><linearGradient
       id="linearGradient160"
       spreadMethod="pad"
       gradientUnits="userSpaceOnUse"
       y2="1639.08"
       x2="2450.6399"
       y1="1639.08"
       x1="-2131.4399"><stop
         id="stop150"
         offset="0"
         style="stop-opacity:1;stop-color:#ff7800" /><stop
         id="stop152"
         offset="0.15"
         style="stop-opacity:1;stop-color:#ff7800" /><stop
         id="stop154"
         offset="0.5"
         style="stop-opacity:1;stop-color:#ffffff" /><stop
         id="stop156"
         offset="0.85"
         style="stop-opacity:1;stop-color:#ff7800" /><stop
         id="stop158"
         offset="1"
         style="stop-opacity:1;stop-color:#ff7800" /></linearGradient><linearGradient
       id="linearGradient174"
       spreadMethod="pad"
       gradientUnits="userSpaceOnUse"
       y2="1639.08"
       x2="2450.6399"
       y1="1639.08"
       x1="159.60001"><stop
         id="stop168"
         offset="0"
         style="stop-opacity:1;stop-color:#ffffff" /><stop
         id="stop170"
         offset="0.7"
         style="stop-opacity:1;stop-color:#ff7800" /><stop
         id="stop172"
         offset="1"
         style="stop-opacity:1;stop-color:#ff7800" /></linearGradient><linearGradient
       id="linearGradient188"
       spreadMethod="pad"
       gradientUnits="userSpaceOnUse"
       y2="1639.08"
       x2="2450.6399"
       y1="1639.08"
       x1="159.60001"><stop
         id="stop182"
         offset="0"
         style="stop-opacity:1;stop-color:#ffffff" /><stop
         id="stop184"
         offset="0.7"
         style="stop-opacity:1;stop-color:#ff7800" /><stop
         id="stop186"
         offset="1"
         style="stop-opacity:1;stop-color:#ff7800" /></linearGradient><linearGradient
       id="linearGradient202"
       spreadMethod="pad"
       gradientUnits="userSpaceOnUse"
       y2="1639.08"
       x2="2450.6399"
       y1="1639.08"
       x1="159.60001"><stop
         id="stop196"
         offset="0"
         style="stop-opacity:1;stop-color:#ffffff" /><stop
         id="stop198"
         offset="0.7"
         style="stop-opacity:1;stop-color:#ff7800" /><stop
         id="stop200"
         offset="1"
         style="stop-opacity:1;stop-color:#ff7800" /></linearGradient><linearGradient
       id="linearGradient216"
       spreadMethod="pad"
       gradientUnits="userSpaceOnUse"
       y2="1639.08"
       x2="2450.6399"
       y1="1639.08"
       x1="159.60001"><stop
         id="stop210"
         offset="0"
         style="stop-opacity:1;stop-color:#ffffff" /><stop
         id="stop212"
         offset="0.7"
         style="stop-opacity:1;stop-color:#ff7800" /><stop
         id="stop214"
         offset="1"
         style="stop-opacity:1;stop-color:#ff7800" /></linearGradient><linearGradient
       id="linearGradient258"
       spreadMethod="pad"
       gradientUnits="userSpaceOnUse"
       y2="1639.08"
       x2="2450.6399"
       y1="1639.08"
       x1="159.60001"><stop
         id="stop252"
         offset="0"
         style="stop-opacity:1;stop-color:#ffffff" /><stop
         id="stop254"
         offset="0.7"
         style="stop-opacity:1;stop-color:#ff7800" /><stop
         id="stop256"
         offset="1"
         style="stop-opacity:1;stop-color:#ff7800" /></linearGradient></defs><g
     transform="matrix(1.3333333,0,0,-1.3333333,0,3456)"
     id="g10"><g
       id="g12"><g
         clip-path="url(#clipPath18)"
         id="g14"><path
           id="path20"
           style="fill:#ffffff;fill-opacity:1;fill-rule:evenodd;stroke:none"
           d="M 0,2.4414e-4 H 2592 V 2592.0002 H 0 Z" /></g></g><g
       id="g22"><path
         id="path32"
         style="fill:url(#linearGradient30);fill-opacity:1;fill-rule:evenodd;stroke:none"
         d="m 418.08,1337.4 c 0,92.65 75.11,167.76 167.76,167.76 92.65,0 167.76,-75.11 167.76,-167.76 0,-92.65 -75.11,-167.76 -167.76,-167.76 -92.65,0 -167.76,75.11 -167.76,167.76 z" /></g><path
       id="path34"
       style="fill:none;stroke:#ff7800;stroke-width:0.95999998;stroke-linecap:butt;stroke-linejoin:miter;stroke-miterlimit:10;stroke-dasharray:none;stroke-opacity:1"
       d="m 418.08,1337.4 c 0,92.65 75.11,167.76 167.76,167.76 92.65,0 167.76,-75.11 167.76,-167.76 0,-92.65 -75.11,-167.76 -167.76,-167.76 -92.65,0 -167.76,75.11 -167.76,167.76 z" /><g
       id="g36"><path
         id="path46"
         style="fill:url(#linearGradient44);fill-opacity:1;fill-rule:evenodd;stroke:none"
         d="m 1346.16,1188.54 c 0,74.13 60.09,134.22 134.22,134.22 74.13,0 134.22,-60.09 134.22,-134.22 0,-74.13 -60.09,-134.22 -134.22,-134.22 -74.13,0 -134.22,60.09 -134.22,134.22 z" /></g><path
       id="path48"
       style="fill:none;stroke:#ff7800;stroke-width:0.95999998;stroke-linecap:butt;stroke-linejoin:miter;stroke-miterlimit:10;stroke-dasharray:none;stroke-opacity:1"
       d="m 1346.16,1188.54 c 0,74.13 60.09,134.22 134.22,134.22 74.13,0 134.22,-60.09 134.22,-134.22 0,-74.13 -60.09,-134.22 -134.22,-134.22 -74.13,0 -134.22,60.09 -134.22,134.22 z" /><g
       id="g50"><path
         id="path60"
         style="fill:url(#linearGradient58);fill-opacity:1;fill-rule:evenodd;stroke:none"
         d="m 2275.2,1914.48 c 0,48.45 39.27,87.72 87.72,87.72 48.45,0 87.72,-39.27 87.72,-87.72 0,-48.45 -39.27,-87.72 -87.72,-87.72 -48.45,0 -87.72,39.27 -87.72,87.72 z" /></g><path
       id="path62"
       style="fill:none;stroke:#ff7800;stroke-width:0.95999998;stroke-linecap:butt;stroke-linejoin:miter;stroke-miterlimit:10;stroke-dasharray:none;stroke-opacity:1"
       d="m 2275.2,1914.48 c 0,48.45 39.27,87.72 87.72,87.72 48.45,0 87.72,-39.27 87.72,-87.72 0,-48.45 -39.27,-87.72 -87.72,-87.72 -48.45,0 -87.72,39.27 -87.72,87.72 z" /><g
       id="g64"><path
         id="path74"
         style="fill:url(#linearGradient72);fill-opacity:1;fill-rule:evenodd;stroke:none"
         d="m 895.32,1719.96 c 0,44.01 35.67,79.68 79.68,79.68 44.01,0 79.68,-35.67 79.68,-79.68 0,-44.01 -35.67,-79.68 -79.68,-79.68 -44.01,0 -79.68,35.67 -79.68,79.68 z" /></g><path
       id="path76"
       style="fill:none;stroke:#ff7800;stroke-width:0.95999998;stroke-linecap:butt;stroke-linejoin:miter;stroke-miterlimit:10;stroke-dasharray:none;stroke-opacity:1"
       d="m 895.32,1719.96 c 0,44.01 35.67,79.68 79.68,79.68 44.01,0 79.68,-35.67 79.68,-79.68 0,-44.01 -35.67,-79.68 -79.68,-79.68 -44.01,0 -79.68,35.67 -79.68,79.68 z" /><g
       id="g78"><path
         id="path88"
         style="fill:url(#linearGradient86);fill-opacity:1;fill-rule:evenodd;stroke:none"
         d="m 870,2282.46 c 0,63.72 51.66,115.38 115.38,115.38 63.72,0 115.38,-51.66 115.38,-115.38 0,-63.72 -51.66,-115.38 -115.38,-115.38 -63.72,0 -115.38,51.66 -115.38,115.38 z" /></g><path
       id="path90"
       style="fill:none;stroke:#ff7800;stroke-width:0.95999998;stroke-linecap:butt;stroke-linejoin:miter;stroke-miterlimit:10;stroke-dasharray:none;stroke-opacity:1"
       d="m 870,2282.46 c 0,63.72 51.66,115.38 115.38,115.38 63.72,0 115.38,-51.66 115.38,-115.38 0,-63.72 -51.66,-115.38 -115.38,-115.38 -63.72,0 -115.38,51.66 -115.38,115.38 z" /><g
       id="g92"><path
         id="path102"
         style="fill:url(#linearGradient100);fill-opacity:1;fill-rule:evenodd;stroke:none"
         d="m 1327.92,1776.6 c 0,85.49 69.33,154.8 154.86,154.8 85.53,0 154.86,-69.31 154.86,-154.8 0,-85.49 -69.33,-154.8 -154.86,-154.8 -85.53,0 -154.86,69.31 -154.86,154.8 z" /></g><path
       id="path104"
       style="fill:none;stroke:#ff7800;stroke-width:0.95999998;stroke-linecap:butt;stroke-linejoin:miter;stroke-miterlimit:10;stroke-dasharray:none;stroke-opacity:1"
       d="m 1327.92,1776.6 c 0,85.49 69.33,154.8 154.86,154.8 85.53,0 154.86,-69.31 154.86,-154.8 0,-85.49 -69.33,-154.8 -154.86,-154.8 -85.53,0 -154.86,69.31 -154.86,154.8 z" /><g
       id="g106"><path
         id="path116"
         style="fill:url(#linearGradient114);fill-opacity:1;fill-rule:evenodd;stroke:none"
         d="m 2157.24,1071 c 0,63.69 51.66,115.32 115.38,115.32 63.72,0 115.38,-51.63 115.38,-115.32 0,-63.69 -51.66,-115.32 -115.38,-115.32 -63.72,0 -115.38,51.63 -115.38,115.32 z" /></g><path
       id="path118"
       style="fill:none;stroke:#ff7800;stroke-width:0.95999998;stroke-linecap:butt;stroke-linejoin:miter;stroke-miterlimit:10;stroke-dasharray:none;stroke-opacity:1"
       d="m 2157.24,1071 c 0,63.69 51.66,115.32 115.38,115.32 63.72,0 115.38,-51.63 115.38,-115.32 0,-63.69 -51.66,-115.32 -115.38,-115.32 -63.72,0 -115.38,51.63 -115.38,115.32 z" /><g
       id="g120"><path
         id="path130"
         style="fill:url(#linearGradient128);fill-opacity:1;fill-rule:evenodd;stroke:none"
         d="m 1885.8,1422.48 c 0,43.81 35.51,79.32 79.32,79.32 43.81,0 79.32,-35.51 79.32,-79.32 0,-43.81 -35.51,-79.32 -79.32,-79.32 -43.81,0 -79.32,35.51 -79.32,79.32 z" /></g><path
       id="path132"
       style="fill:none;stroke:#ff7800;stroke-width:0.95999998;stroke-linecap:butt;stroke-linejoin:miter;stroke-miterlimit:10;stroke-dasharray:none;stroke-opacity:1"
       d="m 1885.8,1422.48 c 0,43.81 35.51,79.32 79.32,79.32 43.81,0 79.32,-35.51 79.32,-79.32 0,-43.81 -35.51,-79.32 -79.32,-79.32 -43.81,0 -79.32,35.51 -79.32,79.32 z" /><g
       id="g134"><path
         id="path144"
         style="fill:url(#linearGradient142);fill-opacity:1;fill-rule:evenodd;stroke:none"
         d="m 2013.24,2226.6 c 0,30.88 25.04,55.92 55.92,55.92 30.88,0 55.92,-25.04 55.92,-55.92 0,-30.88 -25.04,-55.92 -55.92,-55.92 -30.88,0 -55.92,25.04 -55.92,55.92 z" /></g><path
       id="path146"
       style="fill:none;stroke:#ff7800;stroke-width:0.95999998;stroke-linecap:butt;stroke-linejoin:miter;stroke-miterlimit:10;stroke-dasharray:none;stroke-opacity:1"
       d="m 2013.24,2226.6 c 0,30.88 25.04,55.92 55.92,55.92 30.88,0 55.92,-25.04 55.92,-55.92 0,-30.88 -25.04,-55.92 -55.92,-55.92 -30.88,0 -55.92,25.04 -55.92,55.92 z" /><g
       id="g148"><path
         id="path162"
         style="fill:url(#linearGradient160);fill-opacity:1;fill-rule:evenodd;stroke:none"
         d="m 159.6,1748.28 c 0,15.64 12.65,28.32 28.26,28.32 15.61,0 28.26,-12.68 28.26,-28.32 0,-15.64 -12.65,-28.32 -28.26,-28.32 -15.61,0 -28.26,12.68 -28.26,28.32 z" /></g><path
       id="path164"
       style="fill:none;stroke:#ff7800;stroke-width:0.95999998;stroke-linecap:butt;stroke-linejoin:miter;stroke-miterlimit:10;stroke-dasharray:none;stroke-opacity:1"
       d="m 159.6,1748.28 c 0,15.64 12.65,28.32 28.26,28.32 15.61,0 28.26,-12.68 28.26,-28.32 0,-15.64 -12.65,-28.32 -28.26,-28.32 -15.61,0 -28.26,12.68 -28.26,28.32 z" /><g
       id="g166"><path
         id="path176"
         style="fill:url(#linearGradient174);fill-opacity:1;fill-rule:evenodd;stroke:none"
         d="m 255.6,1054.32 c 0,24.52 19.85,44.4 44.34,44.4 24.49,0 44.34,-19.88 44.34,-44.4 0,-24.52 -19.85,-44.4 -44.34,-44.4 -24.49,0 -44.34,19.88 -44.34,44.4 z" /></g><path
       id="path178"
       style="fill:none;stroke:#ff7800;stroke-width:0.95999998;stroke-linecap:butt;stroke-linejoin:miter;stroke-miterlimit:10;stroke-dasharray:none;stroke-opacity:1"
       d="m 255.6,1054.32 c 0,24.52 19.85,44.4 44.34,44.4 24.49,0 44.34,-19.88 44.34,-44.4 0,-24.52 -19.85,-44.4 -44.34,-44.4 -24.49,0 -44.34,19.88 -44.34,44.4 z" /><g
       id="g180"><path
         id="path190"
         style="fill:url(#linearGradient188);fill-opacity:1;fill-rule:evenodd;stroke:none"
         d="m 527.28,2072.64 c 0,15.64 12.68,28.32 28.32,28.32 15.64,0 28.32,-12.68 28.32,-28.32 0,-15.64 -12.68,-28.32 -28.32,-28.32 -15.64,0 -28.32,12.68 -28.32,28.32 z" /></g><path
       id="path192"
       style="fill:none;stroke:#ff7800;stroke-width:0.95999998;stroke-linecap:butt;stroke-linejoin:miter;stroke-miterlimit:10;stroke-dasharray:none;stroke-opacity:1"
       d="m 527.28,2072.64 c 0,15.64 12.68,28.32 28.32,28.32 15.64,0 28.32,-12.68 28.32,-28.32 0,-15.64 -12.68,-28.32 -28.32,-28.32 -15.64,0 -28.32,12.68 -28.32,28.32 z" /><g
       id="g194"><path
         id="path204"
         style="fill:url(#linearGradient202);fill-opacity:1;fill-rule:evenodd;stroke:none"
         d="m 1191.84,908.64 c 0,15.64 12.65,28.32 28.26,28.32 15.61,0 28.26,-12.68 28.26,-28.32 0,-15.64 -12.65,-28.32 -28.26,-28.32 -15.61,0 -28.26,12.68 -28.26,28.32 z" /></g><path
       id="path206"
       style="fill:none;stroke:#ff7800;stroke-width:0.95999998;stroke-linecap:butt;stroke-linejoin:miter;stroke-miterlimit:10;stroke-dasharray:none;stroke-opacity:1"
       d="m 1191.84,908.64 c 0,15.64 12.65,28.32 28.26,28.32 15.61,0 28.26,-12.68 28.26,-28.32 0,-15.64 -12.65,-28.32 -28.26,-28.32 -15.61,0 -28.26,12.68 -28.26,28.32 z" /><g
       id="g208"><path
         id="path218"
         style="fill:url(#linearGradient216);fill-opacity:1;fill-rule:evenodd;stroke:none"
         d="m 1662.36,2229 c 0,15.64 12.68,28.32 28.32,28.32 15.64,0 28.32,-12.68 28.32,-28.32 0,-15.64 -12.68,-28.32 -28.32,-28.32 -15.64,0 -28.32,12.68 -28.32,28.32 z" /></g><path
       id="path220"
       style="fill:none;stroke:#ff7800;stroke-width:0.95999998;stroke-linecap:butt;stroke-linejoin:miter;stroke-miterlimit:10;stroke-dasharray:none;stroke-opacity:1"
       d="m 1662.36,2229 c 0,15.64 12.68,28.32 28.32,28.32 15.64,0 28.32,-12.68 28.32,-28.32 0,-15.64 -12.68,-28.32 -28.32,-28.32 -15.64,0 -28.32,12.68 -28.32,28.32 z" /><path
       id="path222"
       style="fill:none;stroke:#ff7800;stroke-width:3;stroke-linecap:butt;stroke-linejoin:miter;stroke-miterlimit:10;stroke-dasharray:none;stroke-opacity:1"
       d="m 331.38,1085.57 135.91,133.09" /><path
       id="path224"
       style="fill:none;stroke:#ff7800;stroke-width:3;stroke-linecap:butt;stroke-linejoin:miter;stroke-miterlimit:10;stroke-dasharray:none;stroke-opacity:1"
       d="M 467.26,1455.94 207.9,1728.18" /><path
       id="path226"
       style="fill:none;stroke:#ff7800;stroke-width:6;stroke-linecap:butt;stroke-linejoin:miter;stroke-miterlimit:10;stroke-dasharray:none;stroke-opacity:1"
       d="m 704.52,1455.96 214.15,207.6" /><path
       id="path228"
       style="fill:none;stroke:#ff7800;stroke-width:6;stroke-linecap:butt;stroke-linejoin:miter;stroke-miterlimit:10;stroke-dasharray:none;stroke-opacity:1"
       d="m 975,1799.6 10.36,367.48" /><path
       id="path230"
       style="fill:none;stroke:#ff7800;stroke-width:6;stroke-linecap:butt;stroke-linejoin:miter;stroke-miterlimit:10;stroke-dasharray:none;stroke-opacity:1"
       d="m 1066.92,2200.92 306.36,-314.85" /><path
       id="path232"
       style="fill:none;stroke:#ff7800;stroke-width:6;stroke-linecap:butt;stroke-linejoin:miter;stroke-miterlimit:10;stroke-dasharray:none;stroke-opacity:1"
       d="m 1482.74,1621.8 -2.42,-299.04" /><path
       id="path234"
       style="fill:none;stroke:#ff7800;stroke-width:3;stroke-linecap:butt;stroke-linejoin:miter;stroke-miterlimit:10;stroke-dasharray:none;stroke-opacity:1"
       d="M 918.72,1776.3 575.7,2052.66" /><path
       id="path236"
       style="fill:none;stroke:#ff7800;stroke-width:3;stroke-linecap:butt;stroke-linejoin:miter;stroke-miterlimit:10;stroke-dasharray:none;stroke-opacity:1"
       d="m 1240.14,928.6 145.32,164.9" /><path
       id="path238"
       style="fill:none;stroke:#ff7800;stroke-width:6;stroke-linecap:butt;stroke-linejoin:miter;stroke-miterlimit:10;stroke-dasharray:none;stroke-opacity:1"
       d="m 1327.92,1776.6 -273.24,-56.62" /><path
       id="path240"
       style="fill:none;stroke:#ff7800;stroke-width:6;stroke-linecap:butt;stroke-linejoin:miter;stroke-miterlimit:10;stroke-dasharray:none;stroke-opacity:1"
       d="m 2108.76,2187 192.11,-210.48" /><path
       id="path242"
       style="fill:none;stroke:#ff7800;stroke-width:6;stroke-linecap:butt;stroke-linejoin:miter;stroke-miterlimit:10;stroke-dasharray:none;stroke-opacity:1"
       d="m 2021.16,1478.56 279.65,373.88" /><path
       id="path244"
       style="fill:none;stroke:#ff7800;stroke-width:6;stroke-linecap:butt;stroke-linejoin:miter;stroke-miterlimit:10;stroke-dasharray:none;stroke-opacity:1"
       d="m 2021.16,1366.32 169.86,-213.79" /><path
       id="path246"
       style="fill:none;stroke:#ff7800;stroke-width:0.47999999;stroke-linecap:butt;stroke-linejoin:miter;stroke-miterlimit:10;stroke-dasharray:none;stroke-opacity:1"
       d="m 1719,2229 294.29,-2.45" /><path
       id="path248"
       style="fill:none;stroke:#ff7800;stroke-width:3;stroke-linecap:butt;stroke-linejoin:miter;stroke-miterlimit:10;stroke-dasharray:none;stroke-opacity:1"
       d="M 1592.34,1666.98 1909.1,1478.46" /><g
       id="g250"><path
         id="path260"
         style="fill:url(#linearGradient258);fill-opacity:1;fill-rule:evenodd;stroke:none"
         d="m 895.32,987.6 c 0,44.01 35.67,79.68 79.68,79.68 44.01,0 79.68,-35.67 79.68,-79.68 0,-44.01 -35.67,-79.68 -79.68,-79.68 -44.01,0 -79.68,35.67 -79.68,79.68 z" /></g><path
       id="path262"
       style="fill:none;stroke:#ff7800;stroke-width:0.95999998;stroke-linecap:butt;stroke-linejoin:miter;stroke-miterlimit:10;stroke-dasharray:none;stroke-opacity:1"
       d="m 895.32,987.6 c 0,44.01 35.67,79.68 79.68,79.68 44.01,0 79.68,-35.67 79.68,-79.68 0,-44.01 -35.67,-79.68 -79.68,-79.68 -44.01,0 -79.68,35.67 -79.68,79.68 z" /><path
       id="path264"
       style="fill:none;stroke:#ff7800;stroke-width:3;stroke-linecap:butt;stroke-linejoin:miter;stroke-miterlimit:10;stroke-dasharray:none;stroke-opacity:1"
       d="M 704.58,1218.66 918.73,1043.88" /><path
       id="path266"
       style="fill:none;stroke:#ff7800;stroke-width:3;stroke-linecap:butt;stroke-linejoin:miter;stroke-miterlimit:10;stroke-dasharray:none;stroke-opacity:1"
       d="m 1031.46,1043.86 341.93,623.12" /><path
       id="path268"
       style="fill:#595959;fill-opacity:1;fill-rule:nonzero;stroke:none"
       d="m 368.16,579.07 -107.95,10.51 c 5.12,40.97 22.57,72.5 52.36,94.6 29.78,22.1 67.31,33.15 112.59,33.15 38.28,0 69,-7.34 92.18,-22.03 23.18,-14.69 37.8,-31.74 43.87,-51.14 6.06,-19.41 9.1,-49.46 9.1,-90.16 V 391.07 c 0,-50.67 2.29,-80.86 6.87,-90.57 H 471.27 c -3.78,11.06 -5.68,31.94 -5.68,62.67 -25.02,-47.44 -62.28,-71.16 -111.78,-71.16 -31.75,0 -57.57,9.51 -77.48,28.51 -19.91,19 -29.87,46.69 -29.87,83.08 0,45.55 15.07,80.79 45.2,105.72 30.12,24.94 85,39.83 164.63,44.68 v 15.36 c 0,27.22 -2.75,46.09 -8.25,56.6 -5.5,10.52 -16.16,15.77 -31.99,15.77 -28.98,0 -44.94,-20.89 -47.89,-62.66 z m 88.13,-83.69 c -33.15,-3.76 -56.8,-11.09 -70.95,-21.97 -14.15,-10.88 -21.23,-29.22 -21.23,-55.01 0,-34.4 12.67,-51.59 38.01,-51.59 13.74,0 26.21,7.72 37.4,23.17 11.18,15.45 16.77,43.87 16.77,85.24 z M 923.3,610.6 842.03,586.34 c -10.78,36.93 -30.72,55.39 -59.83,55.39 -23.72,0 -35.58,-11.86 -35.58,-35.58 0,-13.47 4.45,-23.72 13.34,-30.72 8.9,-7.01 27.23,-15.37 54.99,-25.07 31.26,-11.05 54.17,-20.75 68.73,-29.11 14.55,-8.35 26.82,-20.96 36.79,-37.8 9.97,-16.85 14.96,-36.19 14.96,-58.02 0,-37.73 -13.61,-69.4 -40.84,-95.01 -27.22,-25.6 -65.22,-38.41 -114.01,-38.41 -91.91,0 -142.85,40.57 -152.82,121.7 l 90.56,14.55 c 7.55,-40.7 28.97,-61.05 64.28,-61.05 30.19,0 45.28,12.67 45.28,38.01 0,13.47 -4.44,23.72 -13.34,30.72 -8.89,7.01 -26.14,14.56 -51.75,22.64 -46.9,15.1 -79.1,33.29 -96.62,54.59 -17.52,21.29 -26.28,45.95 -26.28,73.98 0,39.35 13.81,70.89 41.44,94.61 27.62,23.72 62.19,35.57 103.7,35.57 72.5,0 118.59,-35.57 138.27,-106.73 z m 178.3,-31.53 -107.95,10.51 c 5.12,40.97 22.57,72.5 52.36,94.6 29.78,22.1 67.31,33.15 112.59,33.15 38.28,0 69,-7.34 92.18,-22.03 23.18,-14.69 37.8,-31.74 43.87,-51.14 6.06,-19.41 9.1,-49.46 9.1,-90.16 V 391.07 c 0,-50.67 2.29,-80.86 6.87,-90.57 h -105.91 c -3.78,11.06 -5.68,31.94 -5.68,62.67 -25.02,-47.44 -62.28,-71.16 -111.78,-71.16 -31.75,0 -57.57,9.51 -77.48,28.51 -19.91,19 -29.87,46.69 -29.87,83.08 0,45.55 15.07,80.79 45.2,105.72 30.12,24.94 85,39.83 164.63,44.68 v 15.36 c 0,27.22 -2.75,46.09 -8.25,56.6 -5.5,10.52 -16.16,15.77 -31.99,15.77 -28.98,0 -44.94,-20.89 -47.89,-62.66 z m 88.13,-83.69 c -33.15,-3.76 -56.8,-11.09 -70.95,-21.97 -14.15,-10.88 -21.23,-29.22 -21.23,-55.01 0,-34.4 12.67,-51.59 38.01,-51.59 13.74,0 26.21,7.72 37.4,23.17 11.18,15.45 16.77,43.87 16.77,85.24 z m 197.75,213.46 h 107.94 v -55.79 c 18.87,42.59 52.97,63.88 102.29,63.88 26.68,0 48.72,-6 66.1,-17.99 17.39,-11.99 28.51,-27.29 33.36,-45.89 4.85,-18.6 7.28,-46.9 7.28,-84.9 V 300.5 h -114.02 v 267.65 c 0,27.49 -3.5,44.47 -10.51,50.94 -7.01,6.47 -16.44,9.7 -28.3,9.7 -20.48,0 -33.96,-6.26 -40.43,-18.8 -6.47,-12.53 -9.7,-35.91 -9.7,-70.14 V 300.5 h -114.01 z m 502.58,143.53 h 122.1 L 2169.83,300.5 h -124.04 l -27.53,114.02 H 1862.81 L 1835.74,300.5 H 1724.3 Z m 105.38,-343.25 -55.77,226.1 -53.5,-226.1 z m 220.42,343.25 h 121.29 V 300.5 h -121.29 z" /></g></svg>