<?xml version="1.0" encoding="UTF-8" standalone="no"?>
<svg
   xmlns:dc="http://purl.org/dc/elements/1.1/"
   xmlns:cc="http://creativecommons.org/ns#"
   xmlns:rdf="http://www.w3.org/1999/02/22-rdf-syntax-ns#"
   xmlns:svg="http://www.w3.org/2000/svg"
   xmlns="http://www.w3.org/2000/svg"
   viewBox="0 0 3456 3456"
   height="3456"
   width="3456"
   xml:space="preserve"
   id="svg2"
   version="1.1"><metadata
     id="metadata8"><rdf:RDF><cc:Work
         rdf:about=""><dc:format>image/svg+xml</dc:format><dc:type
           rdf:resource="http://purl.org/dc/dcmitype/StillImage" /></cc:Work></rdf:RDF></metadata><defs
     id="defs6"><clipPath
       id="clipPath18"
       clipPathUnits="userSpaceOnUse"><path
         style="clip-rule:evenodd"
         id="path16"
         d="M 0,7.3242e-4 H 2592 V 2592.0007 H 0 Z" /></clipPath><linearGradient
       id="linearGradient32"
       spreadMethod="pad"
       gradientUnits="userSpaceOnUse"
       y2="1639.6801"
       x2="2452.4399"
       y1="1639.6801"
       x1="161.39999"><stop
         id="stop26"
         offset="0"
         style="stop-opacity:1;stop-color:#ffffff" /><stop
         id="stop28"
         offset="0.7"
         style="stop-opacity:1;stop-color:#ff7800" /><stop
         id="stop30"
         offset="1"
         style="stop-opacity:1;stop-color:#ff7800" /></linearGradient><linearGradient
       id="linearGradient46"
       spreadMethod="pad"
       gradientUnits="userSpaceOnUse"
       y2="1639.6801"
       x2="2452.4399"
       y1="1639.6801"
       x1="161.39999"><stop
         id="stop40"
         offset="0"
         style="stop-opacity:1;stop-color:#ffffff" /><stop
         id="stop42"
         offset="0.7"
         style="stop-opacity:1;stop-color:#ff7800" /><stop
         id="stop44"
         offset="1"
         style="stop-opacity:1;stop-color:#ff7800" /></linearGradient><linearGradient
       id="linearGradient60"
       spreadMethod="pad"
       gradientUnits="userSpaceOnUse"
       y2="1639.6801"
       x2="2452.4399"
       y1="1639.6801"
       x1="161.39999"><stop
         id="stop54"
         offset="0"
         style="stop-opacity:1;stop-color:#ffffff" /><stop
         id="stop56"
         offset="0.7"
         style="stop-opacity:1;stop-color:#ff7800" /><stop
         id="stop58"
         offset="1"
         style="stop-opacity:1;stop-color:#ff7800" /></linearGradient><linearGradient
       id="linearGradient74"
       spreadMethod="pad"
       gradientUnits="userSpaceOnUse"
       y2="1639.6801"
       x2="2452.4399"
       y1="1639.6801"
       x1="161.39999"><stop
         id="stop68"
         offset="0"
         style="stop-opacity:1;stop-color:#ffffff" /><stop
         id="stop70"
         offset="0.7"
         style="stop-opacity:1;stop-color:#ff7800" /><stop
         id="stop72"
         offset="1"
         style="stop-opacity:1;stop-color:#ff7800" /></linearGradient><linearGradient
       id="linearGradient88"
       spreadMethod="pad"
       gradientUnits="userSpaceOnUse"
       y2="1639.6801"
       x2="2452.4399"
       y1="1639.6801"
       x1="161.39999"><stop
         id="stop82"
         offset="0"
         style="stop-opacity:1;stop-color:#ffffff" /><stop
         id="stop84"
         offset="0.7"
         style="stop-opacity:1;stop-color:#ff7800" /><stop
         id="stop86"
         offset="1"
         style="stop-opacity:1;stop-color:#ff7800" /></linearGradient><linearGradient
       id="linearGradient102"
       spreadMethod="pad"
       gradientUnits="userSpaceOnUse"
       y2="1639.6801"
       x2="2452.4399"
       y1="1639.6801"
       x1="161.39999"><stop
         id="stop96"
         offset="0"
         style="stop-opacity:1;stop-color:#ffffff" /><stop
         id="stop98"
         offset="0.7"
         style="stop-opacity:1;stop-color:#ff7800" /><stop
         id="stop100"
         offset="1"
         style="stop-opacity:1;stop-color:#ff7800" /></linearGradient><linearGradient
       id="linearGradient116"
       spreadMethod="pad"
       gradientUnits="userSpaceOnUse"
       y2="1639.6801"
       x2="2452.4399"
       y1="1639.6801"
       x1="161.39999"><stop
         id="stop110"
         offset="0"
         style="stop-opacity:1;stop-color:#ffffff" /><stop
         id="stop112"
         offset="0.7"
         style="stop-opacity:1;stop-color:#ff7800" /><stop
         id="stop114"
         offset="1"
         style="stop-opacity:1;stop-color:#ff7800" /></linearGradient><linearGradient
       id="linearGradient130"
       spreadMethod="pad"
       gradientUnits="userSpaceOnUse"
       y2="1639.6801"
       x2="2452.4399"
       y1="1639.6801"
       x1="161.39999"><stop
         id="stop124"
         offset="0"
         style="stop-opacity:1;stop-color:#ffffff" /><stop
         id="stop126"
         offset="0.7"
         style="stop-opacity:1;stop-color:#ff7800" /><stop
         id="stop128"
         offset="1"
         style="stop-opacity:1;stop-color:#ff7800" /></linearGradient><linearGradient
       id="linearGradient144"
       spreadMethod="pad"
       gradientUnits="userSpaceOnUse"
       y2="1639.6801"
       x2="2452.4399"
       y1="1639.6801"
       x1="161.39999"><stop
         id="stop138"
         offset="0"
         style="stop-opacity:1;stop-color:#ffffff" /><stop
         id="stop140"
         offset="0.7"
         style="stop-opacity:1;stop-color:#ff7800" /><stop
         id="stop142"
         offset="1"
         style="stop-opacity:1;stop-color:#ff7800" /></linearGradient><linearGradient
       id="linearGradient162"
       spreadMethod="pad"
       gradientUnits="userSpaceOnUse"
       y2="1639.6801"
       x2="2452.4399"
       y1="1639.6801"
       x1="-2129.6399"><stop
         id="stop152"
         offset="0"
         style="stop-opacity:1;stop-color:#ff7800" /><stop
         id="stop154"
         offset="0.15"
         style="stop-opacity:1;stop-color:#ff7800" /><stop
         id="stop156"
         offset="0.5"
         style="stop-opacity:1;stop-color:#ffffff" /><stop
         id="stop158"
         offset="0.85"
         style="stop-opacity:1;stop-color:#ff7800" /><stop
         id="stop160"
         offset="1"
         style="stop-opacity:1;stop-color:#ff7800" /></linearGradient><linearGradient
       id="linearGradient176"
       spreadMethod="pad"
       gradientUnits="userSpaceOnUse"
       y2="1639.6801"
       x2="2452.4399"
       y1="1639.6801"
       x1="161.39999"><stop
         id="stop170"
         offset="0"
         style="stop-opacity:1;stop-color:#ffffff" /><stop
         id="stop172"
         offset="0.7"
         style="stop-opacity:1;stop-color:#ff7800" /><stop
         id="stop174"
         offset="1"
         style="stop-opacity:1;stop-color:#ff7800" /></linearGradient><linearGradient
       id="linearGradient190"
       spreadMethod="pad"
       gradientUnits="userSpaceOnUse"
       y2="1639.6801"
       x2="2452.4399"
       y1="1639.6801"
       x1="161.39999"><stop
         id="stop184"
         offset="0"
         style="stop-opacity:1;stop-color:#ffffff" /><stop
         id="stop186"
         offset="0.7"
         style="stop-opacity:1;stop-color:#ff7800" /><stop
         id="stop188"
         offset="1"
         style="stop-opacity:1;stop-color:#ff7800" /></linearGradient><linearGradient
       id="linearGradient204"
       spreadMethod="pad"
       gradientUnits="userSpaceOnUse"
       y2="1639.6801"
       x2="2452.4399"
       y1="1639.6801"
       x1="161.39999"><stop
         id="stop198"
         offset="0"
         style="stop-opacity:1;stop-color:#ffffff" /><stop
         id="stop200"
         offset="0.7"
         style="stop-opacity:1;stop-color:#ff7800" /><stop
         id="stop202"
         offset="1"
         style="stop-opacity:1;stop-color:#ff7800" /></linearGradient><linearGradient
       id="linearGradient218"
       spreadMethod="pad"
       gradientUnits="userSpaceOnUse"
       y2="1639.6801"
       x2="2452.4399"
       y1="1639.6801"
       x1="161.39999"><stop
         id="stop212"
         offset="0"
         style="stop-opacity:1;stop-color:#ffffff" /><stop
         id="stop214"
         offset="0.7"
         style="stop-opacity:1;stop-color:#ff7800" /><stop
         id="stop216"
         offset="1"
         style="stop-opacity:1;stop-color:#ff7800" /></linearGradient><linearGradient
       id="linearGradient260"
       spreadMethod="pad"
       gradientUnits="userSpaceOnUse"
       y2="1639.6801"
       x2="2452.4399"
       y1="1639.6801"
       x1="161.39999"><stop
         id="stop254"
         offset="0"
         style="stop-opacity:1;stop-color:#ffffff" /><stop
         id="stop256"
         offset="0.7"
         style="stop-opacity:1;stop-color:#ff7800" /><stop
         id="stop258"
         offset="1"
         style="stop-opacity:1;stop-color:#ff7800" /></linearGradient></defs><g
     transform="matrix(1.3333333,0,0,-1.3333333,0,3456)"
     id="g10"><g
       id="g12"><g
         clip-path="url(#clipPath18)"
         id="g14"><path
           id="path20"
           style="fill:#ffffff;fill-opacity:0;fill-rule:evenodd;stroke:none"
           d="M 0,2.4414e-4 H 2592 V 2592.0002 H 0 Z" /></g></g><path
       id="path22"
       style="fill:#595959;fill-opacity:1;fill-rule:nonzero;stroke:none"
       d="m 368.16,579.07 -107.95,10.51 c 5.12,40.97 22.57,72.5 52.36,94.6 29.78,22.1 67.31,33.15 112.59,33.15 38.28,0 69,-7.34 92.18,-22.03 23.18,-14.69 37.8,-31.74 43.87,-51.14 6.06,-19.41 9.1,-49.46 9.1,-90.16 V 391.07 c 0,-50.67 2.29,-80.86 6.87,-90.57 H 471.27 c -3.78,11.06 -5.68,31.94 -5.68,62.67 -25.02,-47.44 -62.28,-71.16 -111.78,-71.16 -31.75,0 -57.57,9.51 -77.48,28.51 -19.91,19 -29.87,46.69 -29.87,83.08 0,45.55 15.07,80.79 45.2,105.72 30.12,24.94 85,39.83 164.63,44.68 v 15.36 c 0,27.22 -2.75,46.09 -8.25,56.6 -5.5,10.52 -16.16,15.77 -31.99,15.77 -28.98,0 -44.94,-20.89 -47.89,-62.66 z m 88.13,-83.69 c -33.15,-3.76 -56.8,-11.09 -70.95,-21.97 -14.15,-10.88 -21.23,-29.22 -21.23,-55.01 0,-34.4 12.67,-51.59 38.01,-51.59 13.74,0 26.21,7.72 37.4,23.17 11.18,15.45 16.77,43.87 16.77,85.24 z M 923.3,610.6 842.03,586.34 c -10.78,36.93 -30.72,55.39 -59.83,55.39 -23.72,0 -35.58,-11.86 -35.58,-35.58 0,-13.47 4.45,-23.72 13.34,-30.72 8.9,-7.01 27.23,-15.37 54.99,-25.07 31.26,-11.05 54.17,-20.75 68.73,-29.11 14.55,-8.35 26.82,-20.96 36.79,-37.8 9.97,-16.85 14.96,-36.19 14.96,-58.02 0,-37.73 -13.61,-69.4 -40.84,-95.01 -27.22,-25.6 -65.22,-38.41 -114.01,-38.41 -91.91,0 -142.85,40.57 -152.82,121.7 l 90.56,14.55 c 7.55,-40.7 28.97,-61.05 64.28,-61.05 30.19,0 45.28,12.67 45.28,38.01 0,13.47 -4.44,23.72 -13.34,30.72 -8.89,7.01 -26.14,14.56 -51.75,22.64 -46.9,15.1 -79.1,33.29 -96.62,54.59 -17.52,21.29 -26.28,45.95 -26.28,73.98 0,39.35 13.81,70.89 41.44,94.61 27.62,23.72 62.19,35.57 103.7,35.57 72.5,0 118.59,-35.57 138.27,-106.73 z m 178.3,-31.53 -107.95,10.51 c 5.12,40.97 22.57,72.5 52.36,94.6 29.78,22.1 67.31,33.15 112.59,33.15 38.28,0 69,-7.34 92.18,-22.03 23.18,-14.69 37.8,-31.74 43.87,-51.14 6.06,-19.41 9.1,-49.46 9.1,-90.16 V 391.07 c 0,-50.67 2.29,-80.86 6.87,-90.57 h -105.91 c -3.78,11.06 -5.68,31.94 -5.68,62.67 -25.02,-47.44 -62.28,-71.16 -111.78,-71.16 -31.75,0 -57.57,9.51 -77.48,28.51 -19.91,19 -29.87,46.69 -29.87,83.08 0,45.55 15.07,80.79 45.2,105.72 30.12,24.94 85,39.83 164.63,44.68 v 15.36 c 0,27.22 -2.75,46.09 -8.25,56.6 -5.5,10.52 -16.16,15.77 -31.99,15.77 -28.98,0 -44.94,-20.89 -47.89,-62.66 z m 88.13,-83.69 c -33.15,-3.76 -56.8,-11.09 -70.95,-21.97 -14.15,-10.88 -21.23,-29.22 -21.23,-55.01 0,-34.4 12.67,-51.59 38.01,-51.59 13.74,0 26.21,7.72 37.4,23.17 11.18,15.45 16.77,43.87 16.77,85.24 z m 197.75,213.46 h 107.94 v -55.79 c 18.87,42.59 52.97,63.88 102.29,63.88 26.68,0 48.72,-6 66.1,-17.99 17.39,-11.99 28.51,-27.29 33.36,-45.89 4.85,-18.6 7.28,-46.9 7.28,-84.9 V 300.5 h -114.02 v 267.65 c 0,27.49 -3.5,44.47 -10.51,50.94 -7.01,6.47 -16.44,9.7 -28.3,9.7 -20.48,0 -33.96,-6.26 -40.43,-18.8 -6.47,-12.53 -9.7,-35.91 -9.7,-70.14 V 300.5 h -114.01 z m 502.58,143.53 h 122.1 L 2169.83,300.5 h -124.04 l -27.53,114.02 H 1862.81 L 1835.74,300.5 H 1724.3 Z m 105.38,-343.25 -55.77,226.1 -53.5,-226.1 z m 220.42,343.25 h 121.29 V 300.5 h -121.29 z" /><g
       id="g24"><path
         id="path34"
         style="fill:url(#linearGradient32);fill-opacity:1;fill-rule:evenodd;stroke:none"
         d="m 420,1338 c 0,92.65 75.11,167.76 167.76,167.76 92.65,0 167.76,-75.11 167.76,-167.76 0,-92.65 -75.11,-167.76 -167.76,-167.76 -92.65,0 -167.76,75.11 -167.76,167.76 z" /></g><path
       id="path36"
       style="fill:none;stroke:#ff7800;stroke-width:0.95999998;stroke-linecap:butt;stroke-linejoin:miter;stroke-miterlimit:10;stroke-dasharray:none;stroke-opacity:0.18039"
       d="m 420,1338 c 0,92.65 75.11,167.76 167.76,167.76 92.65,0 167.76,-75.11 167.76,-167.76 0,-92.65 -75.11,-167.76 -167.76,-167.76 -92.65,0 -167.76,75.11 -167.76,167.76 z" /><g
       id="g38"><path
         id="path48"
         style="fill:url(#linearGradient46);fill-opacity:1;fill-rule:evenodd;stroke:none"
         d="m 1347.96,1189.08 c 0,74.09 60.09,134.16 134.22,134.16 74.13,0 134.22,-60.07 134.22,-134.16 0,-74.09 -60.09,-134.16 -134.22,-134.16 -74.13,0 -134.22,60.07 -134.22,134.16 z" /></g><path
       id="path50"
       style="fill:none;stroke:#ff7800;stroke-width:0.95999998;stroke-linecap:butt;stroke-linejoin:miter;stroke-miterlimit:10;stroke-dasharray:none;stroke-opacity:0.18039"
       d="m 1347.96,1189.08 c 0,74.09 60.09,134.16 134.22,134.16 74.13,0 134.22,-60.07 134.22,-134.16 0,-74.09 -60.09,-134.16 -134.22,-134.16 -74.13,0 -134.22,60.07 -134.22,134.16 z" /><g
       id="g52"><path
         id="path62"
         style="fill:url(#linearGradient60);fill-opacity:1;fill-rule:evenodd;stroke:none"
         d="m 2277,1915.08 c 0,48.45 39.27,87.72 87.72,87.72 48.45,0 87.72,-39.27 87.72,-87.72 0,-48.45 -39.27,-87.72 -87.72,-87.72 -48.45,0 -87.72,39.27 -87.72,87.72 z" /></g><path
       id="path64"
       style="fill:none;stroke:#ff7800;stroke-width:0.95999998;stroke-linecap:butt;stroke-linejoin:miter;stroke-miterlimit:10;stroke-dasharray:none;stroke-opacity:0.18039"
       d="m 2277,1915.08 c 0,48.45 39.27,87.72 87.72,87.72 48.45,0 87.72,-39.27 87.72,-87.72 0,-48.45 -39.27,-87.72 -87.72,-87.72 -48.45,0 -87.72,39.27 -87.72,87.72 z" /><g
       id="g66"><path
         id="path76"
         style="fill:url(#linearGradient74);fill-opacity:1;fill-rule:evenodd;stroke:none"
         d="m 897.12,1720.56 c 0,44.01 35.7,79.68 79.74,79.68 44.04,0 79.74,-35.67 79.74,-79.68 0,-44.01 -35.7,-79.68 -79.74,-79.68 -44.04,0 -79.74,35.67 -79.74,79.68 z" /></g><path
       id="path78"
       style="fill:none;stroke:#ff7800;stroke-width:0.95999998;stroke-linecap:butt;stroke-linejoin:miter;stroke-miterlimit:10;stroke-dasharray:none;stroke-opacity:0.18039"
       d="m 897.12,1720.56 c 0,44.01 35.7,79.68 79.74,79.68 44.04,0 79.74,-35.67 79.74,-79.68 0,-44.01 -35.7,-79.68 -79.74,-79.68 -44.04,0 -79.74,35.67 -79.74,79.68 z" /><g
       id="g80"><path
         id="path90"
         style="fill:url(#linearGradient88);fill-opacity:1;fill-rule:evenodd;stroke:none"
         d="m 871.92,2283.06 c 0,63.72 51.63,115.38 115.32,115.38 63.69,0 115.32,-51.66 115.32,-115.38 0,-63.72 -51.63,-115.38 -115.32,-115.38 -63.69,0 -115.32,51.66 -115.32,115.38 z" /></g><path
       id="path92"
       style="fill:none;stroke:#ff7800;stroke-width:0.95999998;stroke-linecap:butt;stroke-linejoin:miter;stroke-miterlimit:10;stroke-dasharray:none;stroke-opacity:0.18039"
       d="m 871.92,2283.06 c 0,63.72 51.63,115.38 115.32,115.38 63.69,0 115.32,-51.66 115.32,-115.38 0,-63.72 -51.63,-115.38 -115.32,-115.38 -63.69,0 -115.32,51.66 -115.32,115.38 z" /><g
       id="g94"><path
         id="path104"
         style="fill:url(#linearGradient102);fill-opacity:1;fill-rule:evenodd;stroke:none"
         d="m 1329.84,1777.14 c 0,85.53 69.31,154.86 154.8,154.86 85.49,0 154.8,-69.33 154.8,-154.86 0,-85.53 -69.31,-154.86 -154.8,-154.86 -85.49,0 -154.8,69.33 -154.8,154.86 z" /></g><path
       id="path106"
       style="fill:none;stroke:#ff7800;stroke-width:0.95999998;stroke-linecap:butt;stroke-linejoin:miter;stroke-miterlimit:10;stroke-dasharray:none;stroke-opacity:0.18039"
       d="m 1329.84,1777.14 c 0,85.53 69.31,154.86 154.8,154.86 85.49,0 154.8,-69.33 154.8,-154.86 0,-85.53 -69.31,-154.86 -154.8,-154.86 -85.49,0 -154.8,69.33 -154.8,154.86 z" /><g
       id="g108"><path
         id="path118"
         style="fill:url(#linearGradient116);fill-opacity:1;fill-rule:evenodd;stroke:none"
         d="m 2159.16,1071.6 c 0,63.69 51.63,115.32 115.32,115.32 63.69,0 115.32,-51.63 115.32,-115.32 0,-63.69 -51.63,-115.32 -115.32,-115.32 -63.69,0 -115.32,51.63 -115.32,115.32 z" /></g><path
       id="path120"
       style="fill:none;stroke:#ff7800;stroke-width:0.95999998;stroke-linecap:butt;stroke-linejoin:miter;stroke-miterlimit:10;stroke-dasharray:none;stroke-opacity:0.18039"
       d="m 2159.16,1071.6 c 0,63.69 51.63,115.32 115.32,115.32 63.69,0 115.32,-51.63 115.32,-115.32 0,-63.69 -51.63,-115.32 -115.32,-115.32 -63.69,0 -115.32,51.63 -115.32,115.32 z" /><g
       id="g122"><path
         id="path132"
         style="fill:url(#linearGradient130);fill-opacity:1;fill-rule:evenodd;stroke:none"
         d="m 1887.6,1423.08 c 0,43.81 35.54,79.32 79.38,79.32 43.84,0 79.38,-35.51 79.38,-79.32 0,-43.81 -35.54,-79.32 -79.38,-79.32 -43.84,0 -79.38,35.51 -79.38,79.32 z" /></g><path
       id="path134"
       style="fill:none;stroke:#ff7800;stroke-width:0.95999998;stroke-linecap:butt;stroke-linejoin:miter;stroke-miterlimit:10;stroke-dasharray:none;stroke-opacity:0.18039"
       d="m 1887.6,1423.08 c 0,43.81 35.54,79.32 79.38,79.32 43.84,0 79.38,-35.51 79.38,-79.32 0,-43.81 -35.54,-79.32 -79.38,-79.32 -43.84,0 -79.38,35.51 -79.38,79.32 z" /><g
       id="g136"><path
         id="path146"
         style="fill:url(#linearGradient144);fill-opacity:1;fill-rule:evenodd;stroke:none"
         d="m 2015.16,2227.08 c 0,30.88 25.04,55.92 55.92,55.92 30.88,0 55.92,-25.04 55.92,-55.92 0,-30.88 -25.04,-55.92 -55.92,-55.92 -30.88,0 -55.92,25.04 -55.92,55.92 z" /></g><path
       id="path148"
       style="fill:none;stroke:#ff7800;stroke-width:0.95999998;stroke-linecap:butt;stroke-linejoin:miter;stroke-miterlimit:10;stroke-dasharray:none;stroke-opacity:0.18039"
       d="m 2015.16,2227.08 c 0,30.88 25.04,55.92 55.92,55.92 30.88,0 55.92,-25.04 55.92,-55.92 0,-30.88 -25.04,-55.92 -55.92,-55.92 -30.88,0 -55.92,25.04 -55.92,55.92 z" /><g
       id="g150"><path
         id="path164"
         style="fill:url(#linearGradient162);fill-opacity:1;fill-rule:evenodd;stroke:none"
         d="m 161.4,1748.88 c 0,15.64 12.68,28.32 28.32,28.32 15.64,0 28.32,-12.68 28.32,-28.32 0,-15.64 -12.68,-28.32 -28.32,-28.32 -15.64,0 -28.32,12.68 -28.32,28.32 z" /></g><path
       id="path166"
       style="fill:none;stroke:#ff7800;stroke-width:0.95999998;stroke-linecap:butt;stroke-linejoin:miter;stroke-miterlimit:10;stroke-dasharray:none;stroke-opacity:0.18039"
       d="m 161.4,1748.88 c 0,15.64 12.68,28.32 28.32,28.32 15.64,0 28.32,-12.68 28.32,-28.32 0,-15.64 -12.68,-28.32 -28.32,-28.32 -15.64,0 -28.32,12.68 -28.32,28.32 z" /><g
       id="g168"><path
         id="path178"
         style="fill:url(#linearGradient176);fill-opacity:1;fill-rule:evenodd;stroke:none"
         d="m 257.4,1054.86 c 0,24.49 19.88,44.34 44.4,44.34 24.52,0 44.4,-19.85 44.4,-44.34 0,-24.49 -19.88,-44.34 -44.4,-44.34 -24.52,0 -44.4,19.85 -44.4,44.34 z" /></g><path
       id="path180"
       style="fill:none;stroke:#ff7800;stroke-width:0.95999998;stroke-linecap:butt;stroke-linejoin:miter;stroke-miterlimit:10;stroke-dasharray:none;stroke-opacity:0.18039"
       d="m 257.4,1054.86 c 0,24.49 19.88,44.34 44.4,44.34 24.52,0 44.4,-19.85 44.4,-44.34 0,-24.49 -19.88,-44.34 -44.4,-44.34 -24.52,0 -44.4,19.85 -44.4,44.34 z" /><g
       id="g182"><path
         id="path192"
         style="fill:url(#linearGradient190);fill-opacity:1;fill-rule:evenodd;stroke:none"
         d="m 529.2,2073.24 c 0,15.64 12.68,28.32 28.32,28.32 15.64,0 28.32,-12.68 28.32,-28.32 0,-15.64 -12.68,-28.32 -28.32,-28.32 -15.64,0 -28.32,12.68 -28.32,28.32 z" /></g><path
       id="path194"
       style="fill:none;stroke:#ff7800;stroke-width:0.95999998;stroke-linecap:butt;stroke-linejoin:miter;stroke-miterlimit:10;stroke-dasharray:none;stroke-opacity:0.18039"
       d="m 529.2,2073.24 c 0,15.64 12.68,28.32 28.32,28.32 15.64,0 28.32,-12.68 28.32,-28.32 0,-15.64 -12.68,-28.32 -28.32,-28.32 -15.64,0 -28.32,12.68 -28.32,28.32 z" /><g
       id="g196"><path
         id="path206"
         style="fill:url(#linearGradient204);fill-opacity:1;fill-rule:evenodd;stroke:none"
         d="m 1193.64,909.24 c 0,15.64 12.68,28.32 28.32,28.32 15.64,0 28.32,-12.68 28.32,-28.32 0,-15.64 -12.68,-28.32 -28.32,-28.32 -15.64,0 -28.32,12.68 -28.32,28.32 z" /></g><path
       id="path208"
       style="fill:none;stroke:#ff7800;stroke-width:0.95999998;stroke-linecap:butt;stroke-linejoin:miter;stroke-miterlimit:10;stroke-dasharray:none;stroke-opacity:0.18039"
       d="m 1193.64,909.24 c 0,15.64 12.68,28.32 28.32,28.32 15.64,0 28.32,-12.68 28.32,-28.32 0,-15.64 -12.68,-28.32 -28.32,-28.32 -15.64,0 -28.32,12.68 -28.32,28.32 z" /><g
       id="g210"><path
         id="path220"
         style="fill:url(#linearGradient218);fill-opacity:1;fill-rule:evenodd;stroke:none"
         d="m 1664.28,2229.6 c 0,15.64 12.68,28.32 28.32,28.32 15.64,0 28.32,-12.68 28.32,-28.32 0,-15.64 -12.68,-28.32 -28.32,-28.32 -15.64,0 -28.32,12.68 -28.32,28.32 z" /></g><path
       id="path222"
       style="fill:none;stroke:#ff7800;stroke-width:0.95999998;stroke-linecap:butt;stroke-linejoin:miter;stroke-miterlimit:10;stroke-dasharray:none;stroke-opacity:0.18039"
       d="m 1664.28,2229.6 c 0,15.64 12.68,28.32 28.32,28.32 15.64,0 28.32,-12.68 28.32,-28.32 0,-15.64 -12.68,-28.32 -28.32,-28.32 -15.64,0 -28.32,12.68 -28.32,28.32 z" /><path
       id="path224"
       style="fill:none;stroke:#ff7800;stroke-width:3;stroke-linecap:butt;stroke-linejoin:miter;stroke-miterlimit:10;stroke-dasharray:none;stroke-opacity:0.18039"
       d="m 333.3,1086.17 135.91,133.09" /><path
       id="path226"
       style="fill:none;stroke:#ff7800;stroke-width:3;stroke-linecap:butt;stroke-linejoin:miter;stroke-miterlimit:10;stroke-dasharray:none;stroke-opacity:0.18039"
       d="M 469.18,1456.54 209.82,1728.78" /><path
       id="path228"
       style="fill:none;stroke:#ff7800;stroke-width:6;stroke-linecap:butt;stroke-linejoin:miter;stroke-miterlimit:10;stroke-dasharray:none;stroke-opacity:0.18039"
       d="m 706.32,1456.56 214.15,207.6" /><path
       id="path230"
       style="fill:none;stroke:#ff7800;stroke-width:6;stroke-linecap:butt;stroke-linejoin:miter;stroke-miterlimit:10;stroke-dasharray:none;stroke-opacity:0.18039"
       d="m 976.92,1800.2 10.36,367.48" /><path
       id="path232"
       style="fill:none;stroke:#ff7800;stroke-width:6;stroke-linecap:butt;stroke-linejoin:miter;stroke-miterlimit:10;stroke-dasharray:none;stroke-opacity:0.18039"
       d="M 1068.84,2201.52 1375.2,1886.67" /><path
       id="path234"
       style="fill:none;stroke:#ff7800;stroke-width:6;stroke-linecap:butt;stroke-linejoin:miter;stroke-miterlimit:10;stroke-dasharray:none;stroke-opacity:0.18039"
       d="m 1484.66,1622.28 -2.42,-299.04" /><path
       id="path236"
       style="fill:none;stroke:#ff7800;stroke-width:3;stroke-linecap:butt;stroke-linejoin:miter;stroke-miterlimit:10;stroke-dasharray:none;stroke-opacity:0.18039"
       d="M 920.52,1776.78 577.5,2053.14" /><path
       id="path238"
       style="fill:none;stroke:#ff7800;stroke-width:3;stroke-linecap:butt;stroke-linejoin:miter;stroke-miterlimit:10;stroke-dasharray:none;stroke-opacity:0.18039"
       d="m 1242.06,929.2 145.32,164.9" /><path
       id="path240"
       style="fill:none;stroke:#ff7800;stroke-width:6;stroke-linecap:butt;stroke-linejoin:miter;stroke-miterlimit:10;stroke-dasharray:none;stroke-opacity:0.18039"
       d="M 1329.84,1777.2 1056.6,1720.58" /><path
       id="path242"
       style="fill:none;stroke:#ff7800;stroke-width:6;stroke-linecap:butt;stroke-linejoin:miter;stroke-miterlimit:10;stroke-dasharray:none;stroke-opacity:0.18039"
       d="m 2110.68,2187.6 192.11,-210.48" /><path
       id="path244"
       style="fill:none;stroke:#ff7800;stroke-width:6;stroke-linecap:butt;stroke-linejoin:miter;stroke-miterlimit:10;stroke-dasharray:none;stroke-opacity:0.18039"
       d="m 2023.08,1479.16 279.65,373.88" /><path
       id="path246"
       style="fill:none;stroke:#ff7800;stroke-width:6;stroke-linecap:butt;stroke-linejoin:miter;stroke-miterlimit:10;stroke-dasharray:none;stroke-opacity:0.18039"
       d="m 2023.08,1366.92 169.86,-213.79" /><path
       id="path248"
       style="fill:none;stroke:#ff7800;stroke-width:0.47999999;stroke-linecap:butt;stroke-linejoin:miter;stroke-miterlimit:10;stroke-dasharray:none;stroke-opacity:0.18039"
       d="m 1720.92,2229.6 294.29,-2.45" /><path
       id="path250"
       style="fill:none;stroke:#ff7800;stroke-width:3;stroke-linecap:butt;stroke-linejoin:miter;stroke-miterlimit:10;stroke-dasharray:none;stroke-opacity:0.18039"
       d="M 1594.14,1667.58 1910.9,1479.06" /><g
       id="g252"><path
         id="path262"
         style="fill:url(#linearGradient260);fill-opacity:1;fill-rule:evenodd;stroke:none"
         d="m 897.12,988.2 c 0,44.01 35.7,79.68 79.74,79.68 44.04,0 79.74,-35.67 79.74,-79.68 0,-44.01 -35.7,-79.68 -79.74,-79.68 -44.04,0 -79.74,35.67 -79.74,79.68 z" /></g><path
       id="path264"
       style="fill:none;stroke:#ff7800;stroke-width:0.95999998;stroke-linecap:butt;stroke-linejoin:miter;stroke-miterlimit:10;stroke-dasharray:none;stroke-opacity:0.18039"
       d="m 897.12,988.2 c 0,44.01 35.7,79.68 79.74,79.68 44.04,0 79.74,-35.67 79.74,-79.68 0,-44.01 -35.7,-79.68 -79.74,-79.68 -44.04,0 -79.74,35.67 -79.74,79.68 z" /><path
       id="path266"
       style="fill:none;stroke:#ff7800;stroke-width:3;stroke-linecap:butt;stroke-linejoin:miter;stroke-miterlimit:10;stroke-dasharray:none;stroke-opacity:0.18039"
       d="M 706.38,1219.26 920.53,1044.48" /><path
       id="path268"
       style="fill:none;stroke:#ff7800;stroke-width:3;stroke-linecap:butt;stroke-linejoin:miter;stroke-miterlimit:10;stroke-dasharray:none;stroke-opacity:0.18039"
       d="m 1033.26,1044.46 341.93,623.12" /></g></svg>
