<?xml version="1.0" encoding="UTF-8" standalone="no"?>
<!-- Created with Inkscape (http://www.inkscape.org/) -->

<svg
   width="121.27405mm"
   height="47.749138mm"
   viewBox="0 0 121.27405 47.749138"
   version="1.1"
   id="svg1589"
   xmlns:inkscape="http://www.inkscape.org/namespaces/inkscape"
   xmlns:sodipodi="http://sodipodi.sourceforge.net/DTD/sodipodi-0.dtd"
   xmlns:xlink="http://www.w3.org/1999/xlink"
   xmlns="http://www.w3.org/2000/svg"
   xmlns:svg="http://www.w3.org/2000/svg">
  <sodipodi:namedview
     id="namedview1591"
     pagecolor="#ffffff"
     bordercolor="#666666"
     borderopacity="1.0"
     inkscape:showpageshadow="2"
     inkscape:pageopacity="0.0"
     inkscape:pagecheckerboard="0"
     inkscape:deskcolor="#d1d1d1"
     inkscape:document-units="mm"
     showgrid="false" />
  <defs
     id="defs1586">
    <clipPath
       id="SVGID_2_">
				<use
   xlink:href="#SVGID_1_"
   overflow="visible"
   id="use7" />

			</clipPath>
    <clipPath
       id="SVGID_4_">
				<use
   xlink:href="#SVGID_3_"
   overflow="visible"
   id="use33" />

			</clipPath>
    <clipPath
       id="SVGID_6_">
				<use
   xlink:href="#SVGID_5_"
   overflow="visible"
   id="use56" />

			</clipPath>
    <clipPath
       id="SVGID_8_">
				<use
   xlink:href="#SVGID_7_"
   overflow="visible"
   id="use72" />

			</clipPath>
    <rect
       id="SVGID_1_"
       x="445.32401"
       y="846.56799"
       width="1623.246"
       height="2294.9341" />
    <rect
       id="SVGID_3_"
       x="445.32401"
       y="846.56799"
       width="1623.246"
       height="2294.9341" />
    <rect
       id="SVGID_5_"
       x="445.32401"
       y="846.56799"
       width="1623.246"
       height="2294.9341" />
    <rect
       id="SVGID_7_"
       x="445.32401"
       y="846.56799"
       width="1623.246"
       height="2294.9341" />
  </defs>
  <g
     inkscape:label="Ebene 1"
     inkscape:groupmode="layer"
     id="layer1"
     transform="translate(-1.2560393,-0.65163771)">
    <g
       id="g42"
       transform="matrix(0.22519666,0,0,-0.22519666,-360.72291,721.63988)">
		<g
   id="g25">
			<defs
   id="defs5" />

			<clipPath
   id="clipPath1339">
				<use
   xlink:href="#SVGID_1_"
   overflow="visible"
   id="use1337" />

			</clipPath>

			<g
   id="g44"
   clip-path="url(#SVGID_2_)">
				<g
   id="g50"
   transform="translate(1695.9314,3108.2119)">
					<path
   id="path52"
   inkscape:connector-curvature="0"
   fill="#7a7b7a"
   d="M -35.814,24.235 -37.483,9.484 c -5.899,2.566 -11.974,3.849 -18.216,3.849 -3.766,0 -6.887,-0.857 -9.366,-2.566 -3.164,-2.14 -4.745,-5.434 -4.745,-9.879 0,-4.02 3.376,-7.485 10.134,-10.393 10.861,-4.533 17.189,-7.397 18.987,-8.594 6.753,-4.707 10.135,-11.375 10.135,-20.013 0,-9.239 -3.336,-16.209 -10.007,-20.912 -5.902,-4.106 -13.771,-6.158 -23.605,-6.158 -5.902,0 -13.557,1.152 -22.963,3.462 l 1.667,16.167 c 6.757,-3.678 13.513,-5.518 20.269,-5.518 3.935,0 7.441,0.898 10.521,2.693 3.592,2.224 5.387,5.176 5.387,8.853 0,4.533 -3.38,8.294 -10.134,11.288 -11.718,5.215 -18.046,8.126 -18.987,8.724 -6.759,4.62 -10.135,11.163 -10.135,19.63 0,9.322 3.248,16.376 9.748,21.168 5.56,4.105 12.745,6.158 21.555,6.158 7.867,0 15.009,-1.071 21.424,-3.208" />

				</g>

				<g
   id="g54"
   transform="translate(1777.2346,3080.1484)">
					<path
   id="path56"
   inkscape:connector-curvature="0"
   fill="#7a7b7a"
   d="m -52.075,29.848 -1.541,-13.596 c -3.506,1.622 -7.396,2.438 -11.674,2.438 -5.303,0 -9.536,-1.926 -12.7,-5.774 -3.164,-3.848 -4.747,-8.897 -4.747,-15.141 0,-6.411 1.453,-11.543 4.363,-15.393 3.162,-4.105 7.653,-6.156 13.468,-6.156 4.107,0 8.509,1.024 13.215,3.078 l 0.772,-14.239 c -4.706,-1.453 -10.439,-2.182 -17.192,-2.182 -10.518,0 -18.646,3.289 -24.376,9.879 -5.473,6.242 -8.209,14.578 -8.209,25.014 0,9.922 2.735,18.005 8.209,24.248 5.816,6.67 13.728,10.007 23.734,10.007 6.243,-10e-4 11.803,-0.728 16.678,-2.183" />

				</g>

				<g
   id="g58"
   transform="translate(1803.8513,3058.1792)">
					<path
   id="path60"
   inkscape:connector-curvature="0"
   fill="#7a7b7a"
   d="m -57.398,34.242 -0.515,14.753 c 7.269,3.337 14.924,5.004 22.966,5.004 10.006,0 17.255,-2.204 21.743,-6.608 4.491,-4.405 6.735,-11.48 6.735,-21.23 v -8.468 c 0,-4.45 0.084,-9.965 0.256,-16.549 0.086,-4.619 0.342,-9.538 0.77,-14.753 h -15.138 c -0.172,0.854 -0.428,4.148 -0.77,9.878 h -0.256 c -1.967,-3.509 -4.834,-6.285 -8.596,-8.339 -3.763,-2.051 -7.697,-3.078 -11.802,-3.078 -6.244,0 -11.545,1.708 -15.909,5.132 -4.789,3.676 -7.182,8.508 -7.182,14.497 0,8.894 3.763,15.18 11.289,18.859 5.215,2.566 12.615,3.845 22.192,3.845 h 9.494 c 0,5.218 -1.178,8.897 -3.529,11.037 -2.352,2.134 -6.138,3.206 -11.353,3.206 -7.269,-10e-4 -14.067,-2.398 -20.395,-7.186 m 8.724,-28.737 c 0,-5.387 3.634,-8.081 10.902,-8.081 6.843,0 11.548,3.164 14.114,9.492 1.024,2.649 1.539,5.988 1.539,10.006 h -7.44 c -12.746,0 -19.115,-3.804 -19.115,-11.417" />

				</g>

				<g
   id="g62"
   transform="translate(1890.925,2998.3652)">
					<path
   id="path64"
   inkscape:connector-curvature="0"
   fill="#7a7b7a"
   d="m -74.813,46.204 v 89.547 h 24.504 c 34.464,0 51.697,-14.927 51.697,-44.776 0,-29.847 -17.233,-44.771 -51.697,-44.771 z m 17.959,75.434 V 60.315 h 10.007 c 7.953,0 14.751,2.694 20.4,8.081 6.072,5.733 9.108,13.257 9.108,22.58 0,9.324 -3.036,16.893 -9.108,22.709 -5.649,5.301 -12.447,7.954 -20.4,7.954 h -10.007 z" />

				</g>

				<g
   id="g66"
   transform="translate(2066.5164,3108.2119)">
					<path
   id="path68"
   inkscape:connector-curvature="0"
   fill="#7a7b7a"
   d="m -109.931,24.235 -1.667,-14.751 c -5.902,2.566 -11.976,3.849 -18.218,3.849 -3.766,0 -6.884,-0.857 -9.364,-2.566 -3.167,-2.14 -4.748,-5.434 -4.748,-9.879 0,-4.02 3.379,-7.485 10.135,-10.393 10.861,-4.533 17.191,-7.397 18.986,-8.594 6.756,-4.707 10.135,-11.375 10.135,-20.013 0,-9.239 -3.337,-16.209 -10.007,-20.912 -5.902,-4.106 -13.771,-6.158 -23.605,-6.158 -5.9,0 -13.555,1.152 -22.963,3.462 l 1.667,16.167 c 6.757,-3.678 13.513,-5.518 20.272,-5.518 3.932,0 7.438,0.898 10.519,2.693 3.592,2.224 5.387,5.176 5.387,8.853 0,4.533 -3.379,8.294 -10.135,11.288 -11.717,5.215 -18.046,8.126 -18.986,8.724 -6.756,4.619 -10.133,11.162 -10.133,19.629 0,9.322 3.249,16.376 9.75,21.168 5.557,4.105 12.743,6.158 21.552,6.158 7.865,0.001 15.008,-1.07 21.423,-3.207" />

				</g>

				<g
   id="g70"
   transform="translate(1632.1365,2930.2693)">
					<path
   id="path72"
   inkscape:connector-curvature="0"
   fill="#0074ac"
   d="m -23.055,59.824 v 30.79 h 8.426 c 11.851,0 17.777,-5.131 17.777,-15.394 0,-10.266 -5.926,-15.396 -17.777,-15.396 z m 6.176,25.935 V 64.675 h 3.441 c 2.736,0 5.074,0.925 7.013,2.78 2.087,1.97 3.133,4.556 3.133,7.765 0,3.203 -1.046,5.805 -3.133,7.807 -1.938,1.823 -4.277,2.732 -7.013,2.732 z" />

				</g>

				<g
   id="g74"
   transform="translate(1671.2842,2930.2693)">
					<path
   id="path76"
   inkscape:connector-curvature="0"
   fill="#0074ac"
   d="m -30.885,59.824 v 30.79 h 6.662 c 4.734,0 7.984,-0.324 9.748,-0.972 3.175,-1.144 4.763,-3.6 4.763,-7.368 0,-1.85 -0.572,-3.438 -1.719,-4.76 -1.147,-1.325 -2.691,-2.119 -4.632,-2.383 v -0.088 c 1.353,-0.121 2.44,-1.176 3.263,-3.178 l 4.941,-12.042 h -6.879 l -3.707,9.618 c -0.47,1.204 -0.97,2.011 -1.5,2.424 -0.616,0.501 -1.544,0.75 -2.777,0.75 h -1.987 V 59.824 Z m 6.176,25.935 v -8.293 h 2.03 c 4.351,0 6.527,1.427 6.527,4.28 0,1.645 -0.706,2.78 -2.116,3.396 -0.941,0.413 -2.412,0.617 -4.41,0.617 z" />

				</g>

			</g>

		</g>

	</g>
    <g
       id="g78"
       transform="matrix(0.22519666,0,0,-0.22519666,23.380968,61.75301)">
		<path
   id="path80"
   inkscape:connector-curvature="0"
   fill="#0074ac"
   d="m -37.755,59.824 v 30.79 h 18.174 V 85.76 h -12 v -7.587 h 10.984 v -4.849 h -10.984 v -8.648 h 12.089 v -4.852 z" />

	</g>
    <g
       id="g82"
       transform="matrix(0.22519666,0,0,-0.22519666,-360.72291,721.63988)">
		<g
   id="g41">
			<defs
   id="defs31" />

			<clipPath
   id="clipPath1364">
				<use
   xlink:href="#SVGID_3_"
   overflow="visible"
   id="use1362" />

			</clipPath>

			<g
   id="g84"
   clip-path="url(#SVGID_4_)">
				<g
   id="g90"
   transform="translate(1757.6885,2968.0388)">
					<path
   id="path92"
   inkscape:connector-curvature="0"
   fill="#0074ac"
   d="m -48.166,52.269 -0.575,-5.074 c -2.03,0.883 -4.117,1.324 -6.262,1.324 -1.295,0 -2.37,-0.294 -3.221,-0.88 -1.088,-0.737 -1.634,-1.87 -1.634,-3.396 0,-1.384 1.163,-2.576 3.486,-3.575 3.736,-1.559 5.913,-2.544 6.528,-2.957 2.323,-1.615 3.486,-3.909 3.486,-6.879 0,-3.177 -1.147,-5.573 -3.44,-7.191 -2.031,-1.414 -4.735,-2.119 -8.118,-2.119 -2.027,0 -4.661,0.397 -7.895,1.191 l 0.575,5.56 c 2.322,-1.265 4.645,-1.897 6.968,-1.897 1.353,0 2.56,0.308 3.618,0.925 1.233,0.763 1.853,1.779 1.853,3.043 0,1.56 -1.163,2.85 -3.486,3.882 -4.029,1.795 -6.205,2.794 -6.529,2.999 -2.323,1.586 -3.486,3.839 -3.486,6.749 0,3.206 1.119,5.634 3.356,7.279 1.91,1.41 4.381,2.116 7.41,2.116 2.702,0.003 5.158,-0.362 7.366,-1.1" />

				</g>

				<g
   id="g94"
   transform="translate(1766.9504,2930.2693)">
					<path
   id="path96"
   inkscape:connector-curvature="0"
   fill="#0074ac"
   d="m -50.018,59.824 v 30.79 h 8.426 c 11.849,0 17.777,-5.131 17.777,-15.394 0,-10.266 -5.928,-15.396 -17.777,-15.396 z m 6.174,25.935 V 64.675 h 3.442 c 2.735,0 5.074,0.925 7.014,2.78 2.087,1.97 3.133,4.556 3.133,7.765 0,3.203 -1.046,5.805 -3.133,7.807 -1.941,1.823 -4.279,2.732 -7.014,2.732 z" />

				</g>

			</g>

		</g>

	</g>
    <g
       id="g98"
       transform="matrix(0.22519666,0,0,-0.22519666,46.153648,61.75301)">
		<path
   id="path100"
   inkscape:connector-curvature="0"
   fill="#0074ac"
   d="m -57.98,59.824 v 30.79 h 18.174 V 85.76 h -12 v -7.587 h 10.984 v -4.849 h -10.984 v -8.648 h 12.089 v -4.852 z" />

	</g>
    <g
       id="g102"
       transform="matrix(0.22519666,0,0,-0.22519666,52.970618,61.75301)">
		<path
   id="path104"
   inkscape:connector-curvature="0"
   fill="#0074ac"
   d="m -64.034,59.824 v 30.79 h 7.621 l 11.786,-23.028 v 23.028 h 5.912 v -30.79 h -7.58 l -11.83,23.025 V 59.824 Z" />

	</g>
    <g
       id="g106"
       transform="matrix(0.22519666,0,0,-0.22519666,65.039488,61.75301)">
		<path
   id="path108"
   inkscape:connector-curvature="0"
   fill="#50ae2f"
   d="m -74.753,59.824 v 30.79 h 6.173 V 64.675 h 11.956 v -4.852 h -18.129 z" />

	</g>
    <g
       id="g110"
       transform="matrix(0.22519666,0,0,-0.22519666,71.185648,61.75301)">
		<path
   id="path112"
   inkscape:connector-curvature="0"
   fill="#50ae2f"
   d="m -80.212,59.824 v 30.79 h 18.177 V 85.76 h -12.003 v -7.587 h 10.984 v -4.849 h -10.984 v -8.648 h 12.086 v -4.852 z" />

	</g>
    <path
       id="path114"
       inkscape:connector-curvature="0"
       fill="#50ae2f"
       d="m 58.575868,41.34714 h 1.39065 v 6.93393 h -1.39065 z"
       style="stroke-width:0.264583" />
    <g
       id="g116"
       transform="matrix(0.22519666,0,0,-0.22519666,-360.72291,721.63988)">
		<g
   id="g63">
			<defs
   id="defs54" />

			<clipPath
   id="clipPath1386">
				<use
   xlink:href="#SVGID_5_"
   overflow="visible"
   id="use1384" />

			</clipPath>

			<g
   id="g118"
   clip-path="url(#SVGID_6_)">
				<g
   id="g124"
   transform="translate(1963.7927,2930.2693)">
					<path
   id="path126"
   inkscape:connector-curvature="0"
   fill="#50ae2f"
   d="m -89.386,59.824 v 30.79 h 7.807 c 8.559,0 12.836,-3.104 12.836,-9.308 0,-3.381 -1.146,-5.91 -3.439,-7.585 -2.03,-1.474 -4.838,-2.208 -8.425,-2.208 h -2.602 V 59.824 Z m 6.176,25.935 v -9.395 h 2.16 c 3.911,0 5.865,1.531 5.865,4.588 0,3.206 -1.954,4.807 -5.865,4.807 z" />

				</g>

			</g>

		</g>

	</g>
    <g
       id="g128"
       transform="matrix(0.22519666,0,0,-0.22519666,87.700328,61.75301)">
		<path
   id="path130"
   inkscape:connector-curvature="0"
   fill="#50ae2f"
   d="m -94.878,59.824 v 5.029 l 14.468,20.906 h -13.897 v 4.854 h 20.468 v -5.03 L -88.438,64.674 h 14.908 v -4.852 h -21.348 z" />

	</g>
    <path
       id="path132"
       inkscape:connector-curvature="0"
       fill="#50ae2f"
       d="m 72.234718,41.34714 h 1.39092 v 6.93393 h -1.39092 z"
       style="stroke-width:0.264583" />
    <g
       id="g134"
       transform="matrix(0.22519666,0,0,-0.22519666,-360.72291,721.63988)">
		<g
   id="g79">
			<defs
   id="defs70" />

			<clipPath
   id="clipPath1400">
				<use
   xlink:href="#SVGID_7_"
   overflow="visible"
   id="use1398" />

			</clipPath>

			<g
   id="g136"
   clip-path="url(#SVGID_8_)">
				<g
   id="g142"
   transform="translate(2070.873,2967.8169)">
					<path
   id="path144"
   inkscape:connector-curvature="0"
   fill="#50ae2f"
   d="m -110.802,52.314 -0.397,-5.205 c -2.354,1.088 -5.001,1.633 -7.94,1.633 -3.502,0 -6.266,-1.073 -8.293,-3.221 -1.913,-2.028 -2.868,-4.674 -2.868,-7.937 0,-3.208 0.941,-5.839 2.824,-7.896 1.882,-2.058 4.427,-3.087 7.632,-3.087 1.527,0 2.881,0.146 4.057,0.438 v 8.029 h -6.53 v 4.852 h 12.44 V 23.334 c -3.911,-1.058 -7.232,-1.588 -9.967,-1.588 -5.176,0 -9.236,1.264 -12.176,3.793 -3.147,2.676 -4.72,6.543 -4.72,11.601 0,5.236 1.498,9.286 4.501,12.155 2.999,2.869 7.13,4.3 12.395,4.3 3.173,-10e-4 6.188,-0.427 9.042,-1.281" />

				</g>

			</g>

		</g>

	</g>
    <g
       id="g146"
       transform="matrix(0.22519666,0,0,-0.22519666,152.21236,6.9578198)">
		<path
   id="path148"
   inkscape:connector-curvature="0"
   fill="#0074ac"
   d="m -148.648,11.159 v -140.181 h 16.842 V 28.003 h -157.03 V 11.159 Z" />

	</g>
    <g
       id="g150"
       transform="matrix(0.22519666,0,0,-0.22519666,142.72792,16.44004)">
		<path
   id="path152"
   inkscape:connector-curvature="0"
   fill="#0074ac"
   d="M -140.224,19.581 V -86.915 h 16.846 V 36.422 H -246.72 V 19.581 Z" />

	</g>
    <rect
       id="rect4213"
       x="104.10854"
       y="15.544972"
       fill="#0074ac"
       width="3.7951832"
       height="20.466049"
       style="stroke-width:0.264583" />
    <g
       id="g89"
       transform="matrix(0.26458333,0,0,0.26458333,-19.130932,-5.6074102)">
		<path
   fill="#0074ac"
   d="m 420.435,135.61 -5.926,21.774 h -12.977 l 22.069,-76.835 h 16.042 l 22.375,76.835 H 448.43 l -6.232,-21.774 z m 19.718,-10.602 -5.415,-18.924 c -1.327,-4.674 -2.451,-9.918 -3.475,-14.364 h -0.204 c -1.021,4.446 -2.146,9.804 -3.27,14.364 l -5.312,18.924 z"
   id="path87" />

	</g>
    <rect
       x="80.388908"
       y="14.618672"
       fill="none"
       width="6.3499999"
       height="23.018749"
       id="rect91"
       style="stroke-width:0.264583" />
    <text
       fill="#7a7b7a"
       font-family="MyriadPro-Regular"
       font-size="30.1625px"
       id="text93"
       style="line-height:0%;stroke-width:0.264583"
       x="80.388832"
       y="36.033722">.</text>
  </g>
</svg>
